<svg width="242" height="35" viewBox="0 0 242 35" fill="none" xmlns="http://www.w3.org/2000/svg">
<g clip-path="url(#clip0_366_7)">
<path d="M3.35599 11.9685L2.08915 14.2689H0V14.1467L2.18921 10.7572L3.35599 11.9685ZM8.4346 12.402C7.92338 12.402 7.49738 12.3278 7.1566 12.1797C6.81571 12.0315 6.52681 11.8055 6.28978 11.5018C6.05274 11.1981 5.81939 10.8054 5.58971 10.3239L4.74508 8.31245L5.47861 8.5013C5.15991 8.50877 4.86923 8.55875 4.6062 8.65133C4.34317 8.74404 4.11908 8.86439 3.93391 9.01252C3.74863 9.16065 3.60608 9.3292 3.50614 9.51816C3.40608 9.707 3.35599 9.90155 3.35599 10.1015C3.35599 10.3609 3.42827 10.5776 3.57272 10.7516C3.71718 10.9258 3.90792 11.0573 4.14507 11.1462C4.38211 11.2351 4.63398 11.2796 4.90069 11.2796C5.22662 11.2796 5.53594 11.2426 5.82864 11.1684C6.12123 11.0943 6.35648 11.0129 6.53429 10.924L6.75648 11.0351L6.30093 12.6242C6.00455 12.7501 5.70449 12.8483 5.40075 12.9188C5.09701 12.989 4.81546 13.0243 4.55623 13.0243C4.31172 13.0243 4.05249 12.9965 3.7783 12.941C3.50412 12.8854 3.23195 12.7927 2.96156 12.6631C2.69106 12.5335 2.44654 12.3631 2.22815 12.1519C2.00951 11.9407 1.83538 11.6796 1.70577 11.3685C1.57615 11.0573 1.51135 10.6905 1.51135 10.2683C1.51135 9.68303 1.63918 9.1718 1.89473 8.73477C2.15028 8.29762 2.49284 7.93097 2.92263 7.63459C3.35231 7.33821 3.83017 7.11588 4.35611 6.96775C4.88217 6.81962 5.41558 6.74556 5.95636 6.74556L6.16752 6.86781L7.0899 9.30142C7.27518 9.77561 7.4956 10.1349 7.75115 10.3794C8.0067 10.6239 8.30866 10.7462 8.65679 10.7462V12.1797L8.4346 12.402ZM10.9905 10.7462V12.1797L10.7683 12.402H8.4346V10.9684L8.65679 10.7462H10.9905ZM10.7683 12.402V10.9684L10.9905 10.7462H13.0464L12.4019 11.0461C12.313 10.9572 12.2518 10.8017 12.2185 10.5794C12.1851 10.3572 12.1685 10.0905 12.1685 9.77929V6.65665L14.0021 6.45654H14.1242V10.3349C14.1242 10.4832 14.1261 10.6665 14.1299 10.8851C14.1336 11.1036 14.141 11.3184 14.1521 11.5296C14.1632 11.7407 14.1836 11.913 14.2132 12.0464V12.1353C13.991 12.2242 13.7206 12.2908 13.402 12.3353C13.0834 12.3797 12.6908 12.402 12.2241 12.402H10.7683ZM12.4685 14.0466C12.4685 13.7652 12.5556 13.5483 12.7297 13.3965C12.9037 13.2447 13.1131 13.1688 13.3575 13.1688C13.602 13.1688 13.8095 13.2447 13.9798 13.3965C14.1502 13.5483 14.2355 13.7652 14.2355 14.0466C14.2355 14.3208 14.1502 14.5356 13.9798 14.6911C13.8095 14.8467 13.602 14.9245 13.3575 14.9245C13.1131 14.9245 12.9037 14.8467 12.7297 14.6911C12.5556 14.5356 12.4685 14.3208 12.4685 14.0466ZM10.457 14.2689C10.457 13.9947 10.5423 13.7818 10.7127 13.63C10.883 13.4781 11.0942 13.4021 11.3461 13.4021C11.5906 13.4021 11.7962 13.4781 11.9629 13.63C12.1296 13.7818 12.2129 13.9947 12.2129 14.2689C12.2129 14.5504 12.1296 14.769 11.9629 14.9245C11.7962 15.0801 11.5869 15.158 11.335 15.158C11.0905 15.158 10.883 15.0801 10.7127 14.9245C10.5423 14.769 10.457 14.5504 10.457 14.2689ZM19.2696 12.402V10.7462H21.0809V12.1797L20.8587 12.402H19.2696ZM15.0244 13.491C15.2171 13.5354 15.4097 13.5743 15.6022 13.6077C15.7949 13.641 15.9875 13.6577 16.1802 13.6577C16.4765 13.6577 16.7414 13.6206 16.9747 13.5466C17.2082 13.4725 17.3803 13.3984 17.4915 13.3244L17.0358 13.7799C17.1618 13.5946 17.2674 13.3595 17.3526 13.0743C17.4377 12.789 17.5026 12.452 17.5471 12.063C17.5915 11.674 17.6138 11.2314 17.6138 10.735C17.6138 10.0979 17.5841 9.49217 17.5249 8.91804C17.4655 8.34391 17.3989 7.80124 17.3247 7.29002L19.2139 7.09002H19.3362C19.4029 7.59376 19.4584 8.14937 19.5029 8.75697C19.5473 9.36445 19.5695 9.97929 19.5695 10.6016C19.5695 11.4537 19.4843 12.1779 19.314 12.7742C19.1436 13.3705 18.8973 13.8541 18.575 14.2244C18.2527 14.5949 17.8637 14.8653 17.4082 15.0357C16.9525 15.206 16.4394 15.2913 15.8689 15.2913C15.6764 15.2913 15.4745 15.2783 15.2634 15.2524C15.0522 15.2264 14.8744 15.2006 14.7299 15.1746C14.5854 15.1486 14.5132 15.1356 14.5132 15.1356V15.0245L15.0244 13.491ZM23.1923 12.402H20.8587V10.9684L21.0809 10.7462H23.4146H25.7483H28.082V12.1797L27.8597 12.402H25.526H23.1923ZM37.4611 12.402L38.5058 10.7462H41.8841V12.1797L41.6618 12.402H37.4611ZM27.8597 12.402L27.8708 10.9684L28.0931 10.7462H37.4611C37.9797 10.7462 38.3353 10.6795 38.528 10.5461C38.7206 10.4128 38.8169 10.2128 38.8169 9.94606C38.8169 9.72375 38.7669 9.5108 38.667 9.307C38.5669 9.10332 38.4502 8.93477 38.3168 8.80136L39.1281 8.86807C38.8169 8.94214 38.5502 8.9978 38.328 9.03472C38.1057 9.07175 37.9002 9.09774 37.7112 9.11258C37.5223 9.1273 37.313 9.13477 37.0833 9.13477H30.2156C29.8674 9.13477 29.5692 9.04029 29.321 8.85133C29.0728 8.66249 28.9265 8.33097 28.8821 7.85678L33.3938 3.80062H33.505L34.2718 4.97854L30.838 7.9902L30.5601 7.47898H37.4278C37.7759 7.47898 38.1205 7.46972 38.4613 7.45109C38.8022 7.43269 39.0836 7.39755 39.3059 7.34556H39.4392C39.6245 7.51601 39.8115 7.72895 40.0005 7.9845C40.1893 8.24017 40.3504 8.51993 40.4838 8.82368C40.6171 9.1273 40.6838 9.43484 40.6838 9.74594C40.6838 10.0868 40.6098 10.4091 40.4616 10.7128C40.3135 11.0166 40.0578 11.287 39.6949 11.524L39.2614 12.1686C39.0614 12.2427 38.8317 12.3001 38.5724 12.3407C38.3131 12.3816 38.0204 12.402 37.6945 12.402H27.8597ZM44.2177 10.7462V12.1797L43.9954 12.402H41.6618V10.9684L41.8841 10.7462H44.2177ZM43.9954 12.402V10.9684L44.2177 10.7462H46.2735L45.629 11.0461C45.5401 10.9572 45.4791 10.8072 45.4458 10.596C45.4124 10.3849 45.3957 10.1239 45.3957 9.81265V4.14518L47.2293 3.94507H47.3515V10.3349C47.3515 10.4832 47.3533 10.6665 47.3571 10.8851C47.3608 11.1036 47.3683 11.3184 47.3793 11.5296C47.3905 11.7407 47.4108 11.913 47.4404 12.0464V12.1353C47.2181 12.2242 46.9477 12.2908 46.6292 12.3353C46.3106 12.3797 45.9179 12.402 45.4512 12.402H43.9954ZM49.1074 4.15623L51.1188 3.95622L51.152 4.04513C51.1225 4.17842 51.1022 4.34519 51.091 4.54519C51.0799 4.74519 51.0725 4.94887 51.0688 5.15635C51.065 5.36383 51.0631 5.54163 51.0631 5.68976V12.402H49.1074V4.15623ZM54.5452 12.5353C54.7674 12.7945 55.0045 13.0039 55.2564 13.1632C55.5083 13.3225 55.7657 13.4355 56.0287 13.5022C56.2917 13.5688 56.5381 13.6021 56.7677 13.6021C56.9826 13.6021 57.1714 13.5651 57.3345 13.491C57.4975 13.4168 57.6309 13.3687 57.7345 13.3466L57.2566 13.7911C57.3826 13.6058 57.4882 13.3633 57.5734 13.0632C57.6585 12.7632 57.7216 12.426 57.7624 12.0518C57.803 11.6778 57.8234 11.2943 57.8234 10.9017C57.8234 10.5017 57.8087 10.0868 57.779 9.65703C57.7493 9.22736 57.7123 8.80884 57.6678 8.40136C57.6234 7.99388 57.5679 7.62343 57.5012 7.29002L59.3681 7.09002H59.4904C59.5868 7.79376 59.6589 8.44018 59.7071 9.02914C59.7552 9.61811 59.7793 10.1424 59.7793 10.6016C59.7793 11.424 59.6959 12.1334 59.5293 12.7298C59.3627 13.3261 59.1292 13.8133 58.8292 14.1911C58.5292 14.5689 58.1736 14.8467 57.7624 15.0245C57.3512 15.2024 56.901 15.2913 56.4121 15.2913C56.0343 15.2913 55.6934 15.2413 55.3897 15.1413C55.0861 15.0413 54.823 14.9209 54.6007 14.78C54.3785 14.6393 54.2007 14.506 54.0673 14.38C53.934 14.2541 53.8451 14.1652 53.8006 14.1133L54.4229 12.5353H54.5452ZM55.5565 11.2239C55.3119 11.2239 55.1045 11.1462 54.9341 10.9906C54.7637 10.8351 54.6785 10.6165 54.6785 10.3349C54.6785 10.0535 54.7637 9.83674 54.9341 9.68481C55.1045 9.53299 55.3119 9.45704 55.5565 9.45704C55.801 9.45704 56.0083 9.53299 56.1788 9.68481C56.3491 9.83674 56.4343 10.0535 56.4343 10.3349C56.4343 10.6165 56.3491 10.8351 56.1788 10.9906C56.0083 11.1462 55.801 11.2239 55.5565 11.2239ZM61.4462 5.26757L63.4576 5.06745L63.491 5.15635C63.4613 5.28977 63.441 5.45641 63.4299 5.65641C63.4188 5.85654 63.4113 6.06022 63.4077 6.2677C63.4039 6.47517 63.4021 6.65298 63.4021 6.80112V12.402H61.4462V5.26757ZM63.0909 4.323C62.8909 4.323 62.7076 4.28596 62.5408 4.21178C62.3742 4.13771 62.2315 4.0526 62.1129 3.95622C61.9944 3.85984 61.9018 3.7821 61.8352 3.72287L62.5131 3.90068C62.3056 3.9154 62.1056 3.94139 61.9129 3.97842C61.7203 4.01545 61.5129 4.12288 61.2906 4.30068H61.1795L60.6239 3.61178C60.7869 3.42649 60.9739 3.27467 61.1851 3.1561C61.3963 3.03752 61.6574 2.9783 61.9685 2.9783C62.2055 2.9783 62.4223 3.02827 62.6187 3.12821C62.8149 3.22827 62.9798 3.34317 63.1131 3.47278C63.2465 3.6024 63.3429 3.70803 63.4021 3.78957L62.5353 3.38945C62.639 3.38945 62.7557 3.38197 62.8854 3.36726C63.0149 3.35242 63.1557 3.31717 63.3076 3.26162C63.4594 3.20608 63.6132 3.11527 63.7687 2.98945H63.891L64.4356 3.68952C64.2725 3.8748 64.0855 4.02661 63.8744 4.14518C63.6632 4.26364 63.4021 4.323 63.0909 4.323ZM68.5473 12.402V10.7462H70.3587V12.1797L70.1364 12.402H68.5473ZM64.3021 13.491C64.4948 13.5354 64.6874 13.5743 64.8801 13.6077C65.0726 13.641 65.2654 13.6577 65.4579 13.6577C65.7543 13.6577 66.0192 13.6206 66.2525 13.5466C66.4859 13.4725 66.6581 13.3984 66.7692 13.3244L66.3136 13.7799C66.4395 13.5946 66.5451 13.3595 66.6304 13.0743C66.7155 12.789 66.7804 12.452 66.8248 12.063C66.8693 11.674 66.8915 11.2314 66.8915 10.735C66.8915 10.0979 66.8618 9.49217 66.8026 8.91804C66.7434 8.34391 66.6766 7.80124 66.6026 7.29002L68.4917 7.09002H68.614C68.6806 7.59376 68.7362 8.14937 68.7806 8.75697C68.8251 9.36445 68.8473 9.97929 68.8473 10.6016C68.8473 11.4537 68.7621 12.1779 68.5917 12.7742C68.4213 13.3705 68.1751 13.8541 67.8528 14.2244C67.5305 14.5949 67.1416 14.8653 66.6859 15.0357C66.2304 15.206 65.7172 15.2913 65.1468 15.2913C64.9541 15.2913 64.7522 15.2783 64.5412 15.2524C64.33 15.2264 64.1521 15.2006 64.0077 15.1746C63.8632 15.1486 63.7911 15.1356 63.7911 15.1356V15.0245L64.3021 13.491ZM72.47 12.402H70.1364V10.9684L70.3587 10.7462H72.6924H75.026V12.1797L74.8038 12.402H72.47ZM77.3597 10.7462V12.1797L77.1375 12.402H74.8038V10.9684L75.026 10.7462H77.3597ZM81.0047 2.20037L81.5493 1.83372C81.5048 1.75954 81.4677 1.67989 81.4381 1.59466C81.4084 1.50956 81.3937 1.41508 81.3937 1.31134C81.4011 1.17057 81.4417 1.03727 81.5159 0.911333C81.59 0.785397 81.7084 0.692706 81.8715 0.633477L81.6714 0.655675C81.79 0.663153 81.89 0.707654 81.9715 0.789079C82.053 0.870504 82.0937 0.970567 82.0937 1.08914C82.0937 1.22244 82.0438 1.33912 81.9438 1.43918C81.8438 1.53912 81.7141 1.61508 81.5548 1.66695C81.3954 1.71882 81.2195 1.74482 81.0269 1.74482C80.7825 1.74482 80.5658 1.69662 80.3769 1.60024C80.188 1.50398 79.9824 1.37437 79.7601 1.2114L79.649 1.22244L79.2266 1.72251C79.5379 2.01153 79.8472 2.21521 80.1546 2.33379C80.462 2.45236 80.7825 2.51158 81.1158 2.51158C81.4492 2.51158 81.7529 2.44856 82.027 2.32262C82.3012 2.19669 82.5178 2.02256 82.6772 1.80036C82.8365 1.57805 82.916 1.3225 82.916 1.0336C82.916 0.759413 82.8254 0.518695 82.6439 0.311215C82.4623 0.103736 82.1975 0 81.8492 0C81.627 0 81.4159 0.0574457 81.2159 0.172224C81.0159 0.287121 80.8547 0.440954 80.7325 0.633477C80.6103 0.82612 80.549 1.04463 80.549 1.28914C80.549 1.42991 80.5806 1.58173 80.6436 1.74482C80.7065 1.90779 80.8269 2.0596 81.0047 2.20037ZM81.0492 6.11208C81.6419 6.11208 82.1622 6.22509 82.6105 6.45097C83.0587 6.67696 83.4068 6.98438 83.6552 7.37335C83.9034 7.76231 84.0274 8.19387 84.0274 8.66806C84.0274 9.20884 83.9034 9.68113 83.6552 10.0849C83.4068 10.4887 83.0865 10.8498 82.6938 11.1684L82.2937 10.7462H84.9275V12.1797L84.7053 12.402H82.7272C82.216 12.402 81.7807 12.3353 81.4214 12.2019C81.0621 12.0686 80.7491 11.8796 80.4824 11.6352L81.9159 11.5907C81.5159 11.8871 81.0899 12.0963 80.6379 12.2185C80.1861 12.3407 79.6897 12.402 79.1489 12.402H77.1375V10.9684L77.3597 10.7462H79.9824L79.5489 11.1684C79.1341 10.8351 78.784 10.4535 78.4988 10.0238C78.2136 9.59413 78.0709 9.12729 78.0709 8.62355C78.0709 8.26794 78.1488 7.93833 78.3043 7.63459C78.4599 7.33085 78.6747 7.06592 78.9488 6.83992C79.223 6.61405 79.5396 6.43624 79.899 6.3065C80.2583 6.17689 80.6416 6.11208 81.0492 6.11208ZM79.4044 9.02368L79.5823 7.57903C79.649 8.00123 79.7564 8.38842 79.9045 8.74023C80.0526 9.09216 80.2213 9.40149 80.4102 9.6682C80.5991 9.9349 80.7861 10.1571 80.9713 10.3349C81.1566 10.5127 81.3195 10.6424 81.4604 10.7239L80.8714 10.8795C81.1084 10.7462 81.3195 10.5738 81.5048 10.3627C81.69 10.1515 81.8363 9.91816 81.9438 9.66261C82.0511 9.40694 82.1049 9.14962 82.1049 8.89027C82.1049 8.68279 82.064 8.48836 81.9826 8.30688C81.9012 8.12539 81.7789 7.97726 81.6159 7.86236C81.4529 7.74746 81.2566 7.69014 81.0269 7.69014C80.8417 7.69014 80.6491 7.73274 80.4491 7.81785C80.2491 7.90307 80.0582 8.04207 79.8769 8.23459C79.6953 8.42723 79.5379 8.69027 79.4044 9.02368ZM82.1382 5.20086C81.9012 5.20086 81.6955 5.123 81.5215 4.96751C81.3474 4.8119 81.2602 4.59706 81.2602 4.323C81.2602 4.04145 81.3474 3.82471 81.5215 3.67278C81.6955 3.52097 81.9012 3.44501 82.1382 3.44501C82.3901 3.44501 82.6013 3.52097 82.7716 3.67278C82.942 3.82471 83.0273 4.04145 83.0273 4.323C83.0273 4.59706 82.942 4.8119 82.7716 4.96751C82.6013 5.123 82.3901 5.20086 82.1382 5.20086ZM80.1268 5.43422C79.8823 5.43422 79.6748 5.35647 79.5045 5.20086C79.3341 5.04526 79.2488 4.83042 79.2488 4.55635C79.2488 4.27481 79.3341 4.05629 79.5045 3.90068C79.6748 3.74507 79.8823 3.66732 80.1268 3.66732C80.3712 3.66732 80.5787 3.74507 80.7491 3.90068C80.9195 4.05629 81.0047 4.27481 81.0047 4.55635C81.0047 4.83042 80.9195 5.04526 80.7491 5.20086C80.5787 5.35647 80.3712 5.43422 80.1268 5.43422ZM87.0389 10.7462V12.1797L86.8167 12.402H84.4831V10.9684L84.7053 10.7462H87.0389ZM89.3726 10.7462V12.1797L89.1504 12.402H86.8167V10.9684L87.0389 10.7462H89.3726ZM89.3726 10.7462H89.5949C89.7801 10.7535 89.932 10.7757 90.0505 10.8128C90.169 10.8498 90.2913 10.8943 90.4172 10.9462V4.15623L92.4175 3.95622L92.462 4.04513C92.4323 4.17842 92.412 4.34519 92.4008 4.54519C92.3898 4.74519 92.3823 4.94887 92.3787 5.15635C92.3749 5.36383 92.3731 5.54163 92.3731 5.68976V11.7241C92.5953 11.6426 92.8213 11.5388 93.0509 11.4129C93.2806 11.287 93.501 11.1444 93.7122 10.985C93.9234 10.8257 94.1066 10.6646 94.2622 10.5017V4.15623L96.2626 3.95622L96.307 4.04513C96.2995 4.11919 96.2885 4.23765 96.2736 4.40074C96.2589 4.56371 96.2459 4.75635 96.2348 4.97854C96.2237 5.20086 96.2181 5.43789 96.2181 5.68976V10.2016C96.2181 10.5721 96.1348 10.8906 95.9681 11.1573C95.8015 11.4241 95.5514 11.6721 95.218 11.9019C94.8846 12.1316 94.4734 12.3723 93.9845 12.6242C93.4955 12.8762 92.9287 13.1724 92.2842 13.5132C92.0915 13.3429 91.8748 13.1724 91.6341 13.002C91.3934 12.8317 91.1063 12.689 90.7728 12.5742C90.4394 12.4593 90.0394 12.402 89.5727 12.402H89.1504V10.9684L89.3726 10.7462ZM99.1889 7.89014C98.9666 7.89014 98.7703 7.83459 98.5999 7.7235C98.4295 7.61228 98.2943 7.45109 98.1944 7.24005C98.0943 7.02889 98.0442 6.77143 98.0442 6.46769V5.76763L98.8111 5.67873H98.9332V6.40098C98.9332 6.66769 98.9573 6.85844 99.0055 6.97334C99.0537 7.08824 99.1241 7.15482 99.2167 7.17334C99.3093 7.19185 99.4148 7.19743 99.5334 7.19007L99.2778 7.32338C99.3445 7.23447 99.3871 7.09191 99.4056 6.89547C99.424 6.69927 99.4334 6.49357 99.4334 6.27873V5.84538L100.167 5.75647H100.278V6.15659C100.278 6.27505 100.272 6.38627 100.261 6.48989C100.25 6.59363 100.219 6.67138 100.167 6.72325L100.122 6.3566C100.182 6.46022 100.25 6.54176 100.328 6.60111C100.406 6.66034 100.495 6.70105 100.595 6.72325C100.695 6.74556 100.8 6.75661 100.911 6.75661L100.634 6.9344C100.671 6.88253 100.71 6.81037 100.75 6.71767C100.791 6.62509 100.826 6.48621 100.856 6.30104C100.885 6.11576 100.9 5.86389 100.9 5.54531V5.32312L101.667 5.23421H101.789V5.36751C101.789 5.93796 101.732 6.38247 101.617 6.70105C101.502 7.01963 101.356 7.24005 101.178 7.36218C101 7.48444 100.811 7.54568 100.611 7.54568C100.448 7.54568 100.306 7.51234 100.184 7.44563C100.061 7.37892 99.9667 7.31969 99.9001 7.26782L100.111 7.19007C100.015 7.44195 99.8835 7.62165 99.7168 7.72896C99.5501 7.83637 99.3741 7.89014 99.1889 7.89014ZM107.712 12.402C107.268 12.402 106.901 12.3428 106.612 12.2242C106.323 12.1056 106.079 11.9185 105.879 11.6629C105.679 11.4073 105.486 11.0832 105.301 10.6905L104.156 8.21239L105.112 8.94581C104.882 8.97549 104.655 9.0181 104.429 9.07365C104.203 9.1292 104.017 9.21252 103.873 9.32374C103.729 9.43483 103.656 9.59781 103.656 9.81265C103.656 9.97573 103.703 10.1497 103.795 10.3349C103.888 10.5202 104.001 10.7092 104.134 10.9017C104.267 11.0943 104.403 11.287 104.54 11.4796C104.677 11.6721 104.792 11.8593 104.884 12.0407C104.977 12.2223 105.023 12.3871 105.023 12.5353C105.023 13.054 104.869 13.5244 104.562 13.9467C104.254 14.3689 103.825 14.706 103.273 14.9578C102.721 15.2098 102.086 15.3358 101.367 15.3358C100.804 15.3358 100.317 15.2932 99.9057 15.2079C99.4946 15.1227 99.1778 15.0375 98.9556 14.9524C98.7332 14.8672 98.6221 14.8245 98.6221 14.8245L99.1 13.2021H99.2223C99.3185 13.2318 99.4724 13.2798 99.6834 13.3466C99.8946 13.4133 100.158 13.4762 100.472 13.5354C100.787 13.5946 101.141 13.6243 101.534 13.6243C102.067 13.6243 102.528 13.5429 102.917 13.3799C103.306 13.2168 103.619 13.0317 103.856 12.8242L103.901 13.5354C103.664 13.2243 103.419 12.9225 103.167 12.6298C102.915 12.3371 102.68 12.0501 102.462 11.7685C102.243 11.487 102.067 11.2017 101.934 10.9128C101.8 10.6239 101.734 10.3275 101.734 10.0238C101.734 9.54962 101.843 9.14403 102.062 8.80694C102.28 8.46984 102.569 8.18272 102.928 7.94569C103.288 7.70866 103.684 7.51411 104.117 7.36218C104.551 7.21037 104.986 7.09002 105.423 7.00111L105.601 7.09002L106.557 9.24588C106.72 9.61632 106.866 9.9127 106.996 10.1349C107.125 10.3572 107.26 10.5146 107.401 10.6072C107.542 10.6999 107.72 10.7462 107.935 10.7462V12.1797L107.712 12.402ZM100.133 10.6683C99.8965 10.6683 99.6908 10.5906 99.5168 10.435C99.3426 10.2794 99.2556 10.0646 99.2556 9.79045C99.2556 9.5089 99.3426 9.29216 99.5168 9.14023C99.6908 8.98842 99.9001 8.91258 100.145 8.91258C100.389 8.91258 100.597 8.98842 100.767 9.14023C100.937 9.29216 101.023 9.5089 101.023 9.79045C101.023 10.0646 100.937 10.2794 100.767 10.435C100.597 10.5906 100.385 10.6683 100.133 10.6683ZM100.133 12.7576C99.889 12.7576 99.6797 12.6816 99.5056 12.5298C99.3315 12.3779 99.2445 12.1611 99.2445 11.8796C99.2445 11.5982 99.3315 11.3814 99.5056 11.2295C99.6797 11.0777 99.889 11.0017 100.133 11.0017C100.378 11.0017 100.585 11.0777 100.756 11.2295C100.926 11.3814 101.011 11.5982 101.011 11.8796C101.011 12.1611 100.926 12.3779 100.756 12.5298C100.585 12.6816 100.378 12.7576 100.133 12.7576ZM109.857 10.7462L110.313 12.402H107.712V10.9684L107.935 10.7462H109.857ZM115.669 12.402C115.165 12.402 114.743 12.3278 114.402 12.1797C114.061 12.0315 113.771 11.8055 113.53 11.5018C113.289 11.1981 113.058 10.8054 112.835 10.3239L111.98 8.31245L112.646 8.5013C112.343 8.50877 112.065 8.55875 111.813 8.65133C111.561 8.74404 111.343 8.86439 111.157 9.01252C110.972 9.16065 110.831 9.3292 110.735 9.51816C110.639 9.707 110.591 9.90155 110.591 10.1015C110.591 10.3609 110.665 10.5776 110.813 10.7516C110.961 10.9258 111.154 11.0573 111.391 11.1462C111.628 11.2351 111.876 11.2796 112.135 11.2796C112.461 11.2796 112.77 11.2426 113.063 11.1684C113.356 11.0943 113.591 11.0129 113.769 10.924L113.991 11.0351L113.535 12.6242C113.239 12.7501 112.941 12.8483 112.641 12.9188C112.341 12.989 112.057 13.0243 111.791 13.0243C111.554 13.0243 111.296 12.9965 111.018 12.941C110.741 12.8854 110.468 12.7927 110.202 12.6631C109.935 12.5335 109.692 12.3631 109.474 12.1519C109.255 11.9407 109.079 11.6796 108.946 11.3685C108.813 11.0573 108.746 10.6905 108.746 10.2683C108.746 9.68303 108.874 9.1718 109.129 8.73477C109.385 8.29762 109.727 7.93097 110.157 7.63459C110.587 7.33821 111.067 7.11588 111.596 6.96775C112.126 6.81962 112.661 6.74556 113.202 6.74556L113.413 6.86781L114.336 9.30142C114.513 9.77561 114.732 10.1349 114.991 10.3794C115.251 10.6239 115.551 10.7462 115.891 10.7462V12.1797L115.669 12.402ZM118.225 10.7462V12.1797L118.003 12.402H115.669V10.9684L115.891 10.7462H118.225ZM118.003 12.402V10.9684L118.225 10.7462H120.403L119.759 11.0461C119.67 10.9572 119.607 10.8072 119.57 10.596C119.533 10.3849 119.514 10.1239 119.514 9.81265V4.15623L121.359 3.95622H121.481V11.5573L120.681 10.7462H122.937V12.1797L122.715 12.402H118.003ZM125.271 10.7462V12.1797L125.048 12.402H122.715V10.9684L122.937 10.7462H125.271ZM127.604 10.7462V12.1797L127.382 12.402H125.048V10.9684L125.271 10.7462H127.604ZM129.938 10.7462V12.1797L129.716 12.402H127.382V10.9684L127.604 10.7462H129.938ZM129.938 10.7462H132.694L132.372 11.7797L131.638 9.9127C131.586 9.77929 131.512 9.60706 131.416 9.3959C131.32 9.18474 131.212 8.96622 131.094 8.74023C130.975 8.51435 130.858 8.30688 130.744 8.11791C130.629 7.92895 130.527 7.7864 130.438 7.69014L130.405 7.56788C130.716 7.31601 131.066 7.09001 131.455 6.89001C131.844 6.69001 132.253 6.53072 132.683 6.41215C133.113 6.29357 133.546 6.23435 133.983 6.23435C134.568 6.23435 135.076 6.33809 135.505 6.54545C135.935 6.75293 136.267 7.03993 136.5 7.40669C136.734 7.77346 136.85 8.18653 136.85 8.64588C136.85 8.97181 136.785 9.29039 136.656 9.60149C136.526 9.91271 136.354 10.1941 136.139 10.4461C135.924 10.698 135.687 10.898 135.428 11.0461L135.028 10.7462H137.784V12.1797L137.561 12.402H129.716V10.9684L129.938 10.7462ZM134.027 11.4684L133.305 11.124C133.587 10.9906 133.857 10.8314 134.116 10.6461C134.376 10.4608 134.591 10.2313 134.761 9.9571C134.931 9.68303 135.016 9.35341 135.016 8.96813C135.016 8.58284 134.904 8.2772 134.678 8.05121C134.452 7.82533 134.153 7.71233 133.783 7.71233C133.464 7.71233 133.174 7.77536 132.911 7.9013C132.648 8.02711 132.435 8.14569 132.272 8.25691L132.361 7.71233C132.531 7.89762 132.67 8.08278 132.777 8.26794C132.885 8.45322 132.99 8.67174 133.094 8.92362C133.198 9.1756 133.32 9.49786 133.461 9.89039L134.027 11.4684ZM137.317 12.402V10.9684L137.539 10.7462H139.595L138.95 11.0461C138.861 10.9572 138.8 10.8072 138.767 10.596C138.734 10.3849 138.717 10.1239 138.717 9.81265V4.14518L140.551 3.94507H140.673V10.3349C140.673 10.4832 140.675 10.6665 140.678 10.8851C140.682 11.1036 140.69 11.3184 140.701 11.5296C140.712 11.7407 140.732 11.913 140.762 12.0464V12.1353C140.54 12.2242 140.269 12.2908 139.951 12.3353C139.632 12.3797 139.239 12.402 138.773 12.402H137.317ZM142.429 4.15623L144.44 3.95622L144.473 4.04513C144.444 4.17842 144.424 4.34519 144.412 4.54519C144.401 4.74519 144.394 4.94887 144.39 5.15635C144.386 5.36383 144.385 5.54163 144.385 5.68976V12.402H142.429V4.15623ZM150.022 11.7797L149.3 9.80148C149.248 9.66071 149.172 9.4867 149.072 9.27923C148.972 9.07175 148.865 8.85323 148.75 8.62355C148.635 8.39388 148.52 8.18462 148.406 7.99566C148.291 7.8067 148.189 7.66426 148.1 7.56788L148.067 7.44563C148.378 7.20112 148.726 6.97702 149.111 6.77322C149.496 6.56954 149.906 6.40847 150.339 6.28989C150.773 6.17132 151.204 6.11208 151.634 6.11208C152.226 6.11208 152.738 6.21761 153.167 6.42877C153.597 6.63993 153.929 6.92705 154.162 7.29002C154.395 7.6531 154.512 8.06795 154.512 8.53466C154.512 8.85323 154.445 9.17359 154.312 9.49584C154.179 9.81822 153.999 10.109 153.773 10.3683C153.547 10.6276 153.29 10.8239 153.001 10.9572L152.689 10.7462H155.379V12.1797L155.157 12.402H151.245C150.763 12.402 150.38 12.4556 150.095 12.5632C149.809 12.6705 149.609 12.8057 149.495 12.9687C149.38 13.1317 149.319 13.2984 149.311 13.4688L149.267 13.1354C149.348 13.3207 149.498 13.4484 149.717 13.5188C149.935 13.5892 150.234 13.6243 150.611 13.6243H152.99V13.7466L152.423 15.2469H150.411C149.863 15.2469 149.387 15.1616 148.983 14.9912C148.58 14.8209 148.268 14.58 148.05 14.2689C147.831 13.9577 147.722 13.5836 147.722 13.1466C147.722 12.902 147.768 12.6631 147.861 12.4298C147.954 12.1963 148.098 11.9814 148.294 11.7851C148.491 11.5889 148.739 11.4148 149.039 11.2629C149.339 11.111 149.704 11.0017 150.134 10.935L150.022 11.7797ZM151.689 11.4684L150.867 10.9684C151.104 10.887 151.332 10.7776 151.55 10.6405C151.769 10.5035 151.962 10.3443 152.128 10.1627C152.295 9.9812 152.428 9.77751 152.528 9.55152C152.628 9.32552 152.678 9.07923 152.678 8.81252C152.678 8.44944 152.564 8.15685 152.334 7.93466C152.104 7.71234 151.808 7.60123 151.445 7.60123C151.126 7.60123 150.836 7.66426 150.573 7.79008C150.309 7.91601 150.093 8.03459 149.922 8.14569L150.022 7.59008C150.193 7.77536 150.332 7.96052 150.439 8.14569C150.547 8.33097 150.65 8.55127 150.75 8.80694C150.85 9.06249 150.971 9.38664 151.112 9.77929L151.689 11.4684ZM157.49 10.7462V12.1797L157.268 12.402H154.934V10.9684L155.157 10.7462H157.49ZM159.824 10.7462V12.1797L159.602 12.402H157.268V10.9684L157.49 10.7462H159.824ZM161.746 10.7462L162.202 12.402H159.602V10.9684L159.824 10.7462H161.746ZM167.558 12.402C167.055 12.402 166.632 12.3278 166.292 12.1797C165.951 12.0315 165.66 11.8055 165.419 11.5018C165.178 11.1981 164.947 10.8054 164.725 10.3239L163.869 8.31245L164.536 8.5013C164.232 8.50877 163.954 8.55875 163.702 8.65133C163.45 8.74404 163.232 8.86439 163.047 9.01252C162.861 9.16065 162.721 9.3292 162.624 9.51816C162.528 9.707 162.48 9.90155 162.48 10.1015C162.48 10.3609 162.554 10.5776 162.702 10.7516C162.85 10.9258 163.043 11.0573 163.28 11.1462C163.517 11.2351 163.765 11.2796 164.024 11.2796C164.351 11.2796 164.66 11.2426 164.952 11.1684C165.245 11.0943 165.48 11.0129 165.658 10.924L165.88 11.0351L165.425 12.6242C165.128 12.7501 164.83 12.8483 164.53 12.9188C164.23 12.989 163.947 13.0243 163.68 13.0243C163.443 13.0243 163.186 12.9965 162.908 12.941C162.63 12.8854 162.358 12.7927 162.091 12.6631C161.824 12.5335 161.582 12.3631 161.363 12.1519C161.144 11.9407 160.969 11.6796 160.835 11.3685C160.702 11.0573 160.635 10.6905 160.635 10.2683C160.635 9.68303 160.763 9.1718 161.019 8.73477C161.274 8.29762 161.617 7.93097 162.046 7.63459C162.476 7.33821 162.956 7.11588 163.486 6.96775C164.015 6.81962 164.551 6.74556 165.091 6.74556L165.302 6.86781L166.225 9.30142C166.403 9.77561 166.621 10.1349 166.881 10.3794C167.14 10.6239 167.44 10.7462 167.781 10.7462V12.1797L167.558 12.402ZM170.114 10.7462V12.1797L169.892 12.402H167.558V10.9684L167.781 10.7462H170.114ZM172.448 10.7462V12.1797L172.226 12.402H169.892V10.9684L170.114 10.7462H172.448ZM174.782 10.7462V12.1797L174.56 12.402H172.226V10.9684L172.448 10.7462H174.782ZM174.56 12.402V10.9684L174.782 10.7462H180.249L179.838 10.9795C179.431 10.7647 178.997 10.4776 178.538 10.1182C178.079 9.75888 177.61 9.34404 177.132 8.87353C176.654 8.40314 176.178 7.89762 175.704 7.35672L176.815 5.87873H176.938C177.841 6.84182 178.627 7.63826 179.294 8.26794C179.96 8.89774 180.527 9.394 180.994 9.75709C181.46 10.1202 181.846 10.3757 182.149 10.5239C182.453 10.672 182.69 10.7462 182.861 10.7462H183.161V12.1797L182.938 12.402H174.56ZM177.226 14.28C177.226 13.9986 177.314 13.7818 177.488 13.63C177.662 13.4781 177.871 13.4021 178.115 13.4021C178.36 13.4021 178.567 13.4781 178.738 13.63C178.908 13.7818 178.993 13.9986 178.993 14.28C178.993 14.5542 178.908 14.769 178.738 14.9245C178.567 15.0801 178.36 15.158 178.115 15.158C177.871 15.158 177.662 15.0801 177.488 14.9245C177.314 14.769 177.226 14.5542 177.226 14.28ZM184.972 5.78983V5.05641L187.817 4.13403H187.928V4.86745L185.094 5.78983H184.972ZM184.861 10.7462L185.317 12.402H182.716V10.9684L182.938 10.7462H184.861ZM190.673 12.402C190.169 12.402 189.747 12.3278 189.406 12.1797C189.065 12.0315 188.775 11.8055 188.534 11.5018C188.293 11.1981 188.061 10.8054 187.839 10.3239L186.984 8.31245L187.65 8.5013C187.347 8.50877 187.069 8.55875 186.817 8.65133C186.565 8.74404 186.346 8.86439 186.161 9.01252C185.976 9.16065 185.835 9.3292 185.739 9.51816C185.643 9.707 185.594 9.90155 185.594 10.1015C185.594 10.3609 185.669 10.5776 185.817 10.7516C185.965 10.9258 186.158 11.0573 186.395 11.1462C186.632 11.2351 186.88 11.2796 187.139 11.2796C187.465 11.2796 187.774 11.2426 188.067 11.1684C188.36 11.0943 188.595 11.0129 188.773 10.924L188.995 11.0351L188.539 12.6242C188.243 12.7501 187.945 12.8483 187.645 12.9188C187.345 12.989 187.061 13.0243 186.795 13.0243C186.558 13.0243 186.3 12.9965 186.022 12.941C185.745 12.8854 185.472 12.7927 185.206 12.6631C184.939 12.5335 184.696 12.3631 184.478 12.1519C184.259 11.9407 184.083 11.6796 183.95 11.3685C183.816 11.0573 183.75 10.6905 183.75 10.2683C183.75 9.68303 183.878 9.1718 184.133 8.73477C184.389 8.29762 184.731 7.93097 185.161 7.63459C185.591 7.33821 186.07 7.11588 186.6 6.96775C187.13 6.81962 187.665 6.74556 188.206 6.74556L188.417 6.86781L189.339 9.30142C189.517 9.77561 189.736 10.1349 189.995 10.3794C190.254 10.6239 190.554 10.7462 190.895 10.7462V12.1797L190.673 12.402ZM190.673 12.402V10.9684L190.895 10.7462H192.951L192.307 11.0461C192.218 10.9572 192.157 10.8072 192.123 10.596C192.09 10.3849 192.073 10.1239 192.073 9.81265V4.14518L193.907 3.94507H194.029V10.3349C194.029 10.4832 194.031 10.6665 194.035 10.8851C194.038 11.1036 194.046 11.3184 194.057 11.5296C194.068 11.7407 194.088 11.913 194.118 12.0464V12.1353C193.896 12.2242 193.625 12.2908 193.307 12.3353C192.988 12.3797 192.595 12.402 192.129 12.402H190.673ZM195.785 4.15623L197.796 3.95622L197.83 4.04513C197.8 4.17842 197.78 4.34519 197.769 4.54519C197.757 4.74519 197.75 4.94887 197.746 5.15635C197.743 5.36383 197.741 5.54163 197.741 5.68976V12.402H195.785V4.15623Z" fill="#181818"/>
<path d="M6.35673 31.8245C5.66771 31.8245 4.9769 31.806 4.2842 31.7689C3.59149 31.7319 2.85985 31.617 2.0894 31.4245C1.94863 31.3874 1.79302 31.3448 1.6227 31.2966C1.45225 31.2485 1.28928 31.1985 1.13367 31.1466C0.978175 31.0947 0.85224 31.0467 0.755859 31.0022L1.15599 29.4241H1.27812C1.35967 29.4611 1.47456 29.5074 1.6227 29.563C1.77083 29.6186 1.91718 29.6686 2.06163 29.7131C2.20608 29.7575 2.31908 29.7945 2.40062 29.8242C2.77843 29.9353 3.20431 30.015 3.6785 30.0632C4.15268 30.1113 4.62307 30.1409 5.0899 30.1519C5.55661 30.1631 5.97893 30.1687 6.35673 30.1687H8.67924L8.25704 30.4243C7.93846 30.1798 7.66985 29.8705 7.45133 29.4964C7.23281 29.1223 7.1235 28.6907 7.1235 28.2018C7.1235 27.6461 7.26048 27.1701 7.53466 26.7738C7.80885 26.3774 8.19033 26.0718 8.67924 25.857C9.16826 25.6421 9.72387 25.5347 10.3462 25.5347C10.724 25.5347 11.1371 25.5735 11.5854 25.6513C12.0336 25.7291 12.4724 25.8421 12.9022 25.9903L12.9466 26.0792C12.9169 26.2126 12.8947 26.3904 12.8799 26.6126C12.8651 26.8349 12.854 27.0608 12.8466 27.2906C12.8391 27.5202 12.8355 27.7091 12.8355 27.8572V31.4689L12.7909 31.5578C12.5688 31.6467 12.2928 31.7134 11.9632 31.7579C11.6334 31.8023 11.2352 31.8245 10.7685 31.8245H6.35673ZM9.04601 28.2573C9.04601 28.5981 9.14607 28.9223 9.34607 29.2297C9.54607 29.5371 9.82204 29.7891 10.174 29.9853C10.5259 30.1816 10.9388 30.2799 11.413 30.2799L10.8796 30.9244V28.2573C10.8796 27.9609 10.8944 27.7054 10.9241 27.4906C10.9537 27.2757 10.9907 27.0757 11.0352 26.8904L11.213 27.3128C11.1388 27.2906 11.0556 27.2646 10.963 27.2349C10.8703 27.2052 10.7685 27.1776 10.6574 27.1516C10.5462 27.1257 10.4129 27.1128 10.2573 27.1128C9.87949 27.1128 9.5831 27.2256 9.36827 27.4516C9.15343 27.6776 9.04601 27.9461 9.04601 28.2573ZM10.1572 24.8902C9.91284 24.8902 9.70535 24.8123 9.53491 24.6567C9.36458 24.5012 9.27936 24.2826 9.27936 24.0012C9.27936 23.7196 9.36458 23.5029 9.53491 23.3509C9.70535 23.1991 9.91284 23.1232 10.1572 23.1232C10.4017 23.1232 10.6092 23.1991 10.7795 23.3509C10.95 23.5029 11.0352 23.7196 11.0352 24.0012C11.0352 24.2826 10.95 24.5012 10.7795 24.6567C10.6092 24.8123 10.4017 24.8902 10.1572 24.8902ZM17.9807 31.8245V30.1687H19.7921V31.6023L19.5697 31.8245H17.9807ZM13.7356 32.9136C13.9282 32.958 14.1208 32.9969 14.3135 33.0303C14.5061 33.0637 14.6987 33.0803 14.8914 33.0803C15.1876 33.0803 15.4526 33.0432 15.6859 32.9692C15.9193 32.895 16.0915 32.821 16.2026 32.7469L15.7471 33.2025C15.8729 33.0172 15.9785 32.7821 16.0637 32.4969C16.149 32.2117 16.2138 31.8746 16.2582 31.4855C16.3027 31.0966 16.3249 30.654 16.3249 30.1576C16.3249 29.5205 16.2952 28.9148 16.236 28.3407C16.1767 27.7665 16.11 27.2239 16.036 26.7126L17.9251 26.5126H18.0474C18.1141 27.0164 18.1696 27.572 18.214 28.1795C18.2585 28.7871 18.2807 29.4019 18.2807 30.0242C18.2807 30.8762 18.1955 31.6004 18.0252 32.1968C17.8547 32.7931 17.6084 33.2766 17.2862 33.647C16.9639 34.0174 16.575 34.2879 16.1193 34.4582C15.6637 34.6286 15.1506 34.7139 14.5802 34.7139C14.3875 34.7139 14.1857 34.7009 13.9746 34.6749C13.7634 34.6491 13.5855 34.6231 13.441 34.5972C13.2966 34.5712 13.2244 34.5583 13.2244 34.5583V34.4472L13.7356 32.9136ZM26.1152 32.4024C25.8411 32.2543 25.5707 32.1375 25.304 32.0524C25.0373 31.9672 24.7354 31.9079 24.3984 31.8746C24.0612 31.8412 23.6556 31.8245 23.1814 31.8245H19.5587V30.391L19.7809 30.1687H21.8257L21.17 30.4799C21.0886 30.391 21.0348 30.2465 21.0089 30.0464C20.9829 29.8464 20.97 29.6019 20.97 29.313V26.8349L22.8036 26.6349H22.9259V30.98L22.1257 30.1687H23.1926C23.5038 30.1687 23.789 30.1928 24.0482 30.2408C24.3075 30.2892 24.552 30.3613 24.7817 30.4577L24.3039 31.1356V26.4681L26.1375 26.2681H26.2596V31.48L25.5929 30.7576C25.9782 30.7354 26.319 30.6651 26.6153 30.5466C26.9116 30.428 27.1654 30.2799 27.3766 30.1021C27.5877 29.9243 27.7451 29.7353 27.8489 29.5353L27.6377 30.6911V26.1125L29.4713 25.9125H29.5936V28.8463C29.5936 29.4908 29.4528 30.0483 29.1712 30.5187C28.8898 30.9892 28.4916 31.3782 27.9767 31.6856C27.4617 31.993 26.8413 32.2321 26.1152 32.4024ZM25.1928 23.6455C24.9631 23.6455 24.7706 23.5752 24.615 23.4344C24.4594 23.2936 24.3816 23.0973 24.3816 22.8454C24.3816 22.5861 24.4594 22.3861 24.615 22.2453C24.7706 22.1045 24.9631 22.0341 25.1928 22.0341C25.4226 22.0341 25.6151 22.1045 25.7707 22.2453C25.9263 22.3861 26.0041 22.5861 26.0041 22.8454C26.0041 23.0973 25.9263 23.2936 25.7707 23.4344C25.6151 23.5752 25.4226 23.6455 25.1928 23.6455ZM26.3485 25.3235C26.1115 25.3235 25.9059 25.2458 25.7319 25.0902C25.5578 24.9346 25.4707 24.7161 25.4707 24.4345C25.4707 24.1603 25.5578 23.9474 25.7319 23.7955C25.9059 23.6436 26.1152 23.5677 26.3597 23.5677C26.6042 23.5677 26.8117 23.6436 26.982 23.7955C27.1524 23.9474 27.2376 24.1603 27.2376 24.4345C27.2376 24.7161 27.1524 24.9346 26.982 25.0902C26.8117 25.2458 26.6005 25.3235 26.3485 25.3235ZM24.3371 25.5347C24.0927 25.5347 23.8853 25.4568 23.7148 25.3013C23.5445 25.1457 23.4593 24.9271 23.4593 24.6457C23.4593 24.3715 23.5445 24.1566 23.7148 24.0012C23.8853 23.8455 24.0927 23.7677 24.3371 23.7677C24.5817 23.7677 24.7891 23.8455 24.9595 24.0012C25.1299 24.1566 25.2151 24.3715 25.2151 24.6457C25.2151 24.9271 25.1318 25.1457 24.9652 25.3013C24.7984 25.4568 24.5891 25.5347 24.3371 25.5347ZM32.2828 31.8245C31.8753 31.8245 31.5587 31.6856 31.3327 31.4077C31.1067 31.1299 30.9938 30.7429 30.9938 30.2465C31.1123 30.1798 31.2345 30.0872 31.3604 29.9687C31.4864 29.8501 31.6327 29.6723 31.7995 29.4353C31.9662 29.1982 32.1681 28.8685 32.4051 28.4462L33.2052 27.0794V28.4685L31.2048 25.0013V24.879H33.0718L34.0831 26.7238L33.3497 26.8127L35.3389 23.3788H37.228V23.501L34.072 29.1242C33.909 29.4131 33.7683 29.6372 33.6497 29.7964C33.5311 29.9557 33.42 30.0742 33.3163 30.1519C33.2126 30.2298 33.1052 30.2984 32.9941 30.3576L32.505 30.1687H35.5389L35.55 31.4578L34.5166 29.6242L35.0944 28.6351H35.1833L36.928 31.5578V31.6467C36.8539 31.7134 36.7521 31.7597 36.6224 31.7855C36.4927 31.8115 36.3427 31.8245 36.1724 31.8245H32.2828ZM30.7826 22.7565C30.7826 22.4675 30.8586 22.2027 31.0104 21.9619C31.1622 21.7211 31.3772 21.5285 31.6551 21.384C31.9328 21.2395 32.2643 21.1673 32.6496 21.1673H33.3163V21.2674L32.9719 22.2897H32.6606C32.431 22.2897 32.242 22.3286 32.0939 22.4064C31.9457 22.4841 31.8383 22.649 31.7716 22.901L31.7383 22.5342C31.8124 22.7195 31.918 22.8435 32.0551 22.9064C32.192 22.9695 32.3495 23.0009 32.5273 23.0009H33.3163V23.101L32.9829 24.1011H32.2273C31.9457 24.1011 31.6956 24.04 31.4772 23.9177C31.2586 23.7955 31.0883 23.6325 30.966 23.4288C30.8438 23.225 30.7826 23.0009 30.7826 22.7565ZM38.0503 23.5788L40.0618 23.3788L40.0951 23.4677C40.0654 23.601 40.0451 23.7677 40.034 23.9678C40.0229 24.1678 40.0155 24.3715 40.0118 24.579C40.0081 24.7865 40.0062 24.9643 40.0062 25.1124V31.8245H38.0503V23.5788ZM52.2903 25.5347C52.883 25.5347 53.4015 25.6477 53.8461 25.8736C54.2906 26.0996 54.6388 26.407 54.8907 26.796C55.1426 27.1849 55.2685 27.6165 55.2685 28.0906C55.2685 28.6315 55.1445 29.1037 54.8963 29.5074C54.6481 29.9112 54.3314 30.2724 53.9461 30.591L53.535 30.1687H56.1687V31.6023L55.9464 31.8245H53.9683C53.4646 31.8245 53.0312 31.7579 52.6681 31.6245C52.305 31.4912 51.9903 31.3022 51.7236 31.0577L53.157 31.0133C52.757 31.3097 52.3329 31.5188 51.8847 31.6411C51.4364 31.7633 50.9419 31.8245 50.4012 31.8245H48.6453C47.9711 31.8245 47.2821 31.806 46.5784 31.7689C45.8745 31.7319 45.1374 31.617 44.3668 31.4245C44.2261 31.3874 44.0706 31.3448 43.9001 31.2966C43.7298 31.2485 43.5668 31.1985 43.4112 31.1466C43.2556 31.0947 43.1297 31.0467 43.0334 31.0022L43.4334 29.4241H43.5557C43.6371 29.4611 43.752 29.5074 43.9001 29.563C44.0482 29.6186 44.1947 29.6686 44.3392 29.7131C44.4836 29.7575 44.5966 29.7945 44.678 29.8242C45.0633 29.9353 45.4911 30.015 45.9616 30.0632C46.432 30.1113 46.9043 30.1409 47.3785 30.1519C47.8527 30.1631 48.2749 30.1687 48.6453 30.1687H51.2345L50.79 30.591C50.3752 30.2576 50.0251 29.8761 49.7399 29.4464C49.4547 29.0166 49.312 28.5499 49.312 28.0462C49.312 27.6906 49.3899 27.3608 49.5455 27.0571C49.701 26.7535 49.9158 26.4885 50.19 26.2625C50.4641 26.0365 50.7808 25.8587 51.1402 25.7291C51.4995 25.5995 51.8828 25.5347 52.2903 25.5347ZM50.6567 28.4462L50.8345 27.0015C50.9012 27.4239 51.0087 27.8109 51.1568 28.1628C51.3049 28.5148 51.4717 28.8241 51.6568 29.0908C51.8421 29.3575 52.0273 29.5797 52.2125 29.7575C52.3977 29.9353 52.5607 30.0651 52.7015 30.1465L52.1125 30.3021C52.3496 30.1687 52.5607 29.9965 52.7459 29.7853C52.9312 29.5741 53.0793 29.3408 53.1904 29.0852C53.3016 28.8296 53.3572 28.5721 53.3572 28.3129C53.3572 28.1054 53.3145 27.911 53.2293 27.7294C53.1441 27.5479 53.0201 27.3998 52.8571 27.2849C52.694 27.1701 52.4978 27.1128 52.2681 27.1128C52.0903 27.1128 51.8995 27.1554 51.6958 27.2405C51.492 27.3257 51.3012 27.4647 51.1234 27.6572C50.9456 27.8499 50.79 28.1129 50.6567 28.4462ZM52.2236 24.8902C51.9791 24.8902 51.7716 24.8123 51.6013 24.6567C51.431 24.5012 51.3457 24.2826 51.3457 24.0012C51.3457 23.7196 51.431 23.5029 51.6013 23.3509C51.7716 23.1991 51.9791 23.1232 52.2236 23.1232C52.4681 23.1232 52.6756 23.1991 52.8459 23.3509C53.0163 23.5029 53.1015 23.7196 53.1015 24.0012C53.1015 24.2826 53.0163 24.5012 52.8459 24.6567C52.6756 24.8123 52.4681 24.8902 52.2236 24.8902ZM55.7242 31.8245V30.391L55.9464 30.1687H61.4139L61.0027 30.402C60.5952 30.1873 60.1618 29.9002 59.7025 29.5408C59.2432 29.1815 58.7746 28.7667 58.2968 28.2961C57.8189 27.8258 57.3429 27.3201 56.8688 26.7793L57.9801 25.3013H58.1022C59.0061 26.2644 59.7914 27.0608 60.4582 27.6906C61.1249 28.3204 61.6917 28.8166 62.1584 29.1797C62.6252 29.5427 63.0105 29.7984 63.3141 29.9465C63.6179 30.0946 63.855 30.1687 64.0254 30.1687H64.3254V31.6023L64.1032 31.8245H55.7242ZM58.3913 33.7026C58.3913 33.421 58.4783 33.2043 58.6524 33.0525C58.8265 32.9007 59.0358 32.8247 59.2803 32.8247C59.5247 32.8247 59.7322 32.9007 59.9026 33.0525C60.0729 33.2043 60.1581 33.421 60.1581 33.7026C60.1581 33.9768 60.0729 34.1915 59.9026 34.3471C59.7322 34.5027 59.5247 34.5805 59.2803 34.5805C59.0358 34.5805 58.8265 34.5027 58.6524 34.3471C58.4783 34.1915 58.3913 33.9768 58.3913 33.7026ZM64.1032 30.1687H66.1924L65.5367 30.4687C65.4478 30.3798 65.3868 30.2298 65.3534 30.0186C65.3201 29.8075 65.3033 29.5464 65.3033 29.2353V26.0792L67.137 25.8791H67.2592V30.9688L66.4702 30.1687H68.6928V31.6023L68.4705 31.8245H63.8809V30.391L64.1032 30.1687ZM66.2591 25.068C66.0146 25.068 65.8071 24.9901 65.6368 24.8345C65.4664 24.679 65.3812 24.4604 65.3812 24.179C65.3812 23.8974 65.4664 23.6807 65.6368 23.5288C65.8071 23.3769 66.0146 23.301 66.2591 23.301C66.5036 23.301 66.7111 23.3769 66.8814 23.5288C67.0517 23.6807 67.137 23.8974 67.137 24.179C67.137 24.4604 67.0517 24.679 66.8814 24.8345C66.7111 24.9901 66.5036 25.068 66.2591 25.068ZM68.4705 31.8245V30.391L68.6928 30.1687H70.7486L70.1041 30.4687C70.0152 30.3798 69.9541 30.2298 69.9208 30.0186C69.8875 29.8075 69.8707 29.5464 69.8707 29.2353V23.5677L71.7043 23.3677H71.8266V29.7575C71.8266 29.9056 71.8284 30.089 71.8322 30.3076C71.8359 30.5262 71.8433 30.741 71.8544 30.9521C71.8655 31.1632 71.8858 31.3356 71.9155 31.4689V31.5578C71.6932 31.6467 71.4228 31.7134 71.1042 31.7579C70.7856 31.8023 70.393 31.8245 69.9263 31.8245H68.4705ZM73.5823 23.5788L75.5937 23.3788L75.6271 23.4677C75.5974 23.601 75.5771 23.7677 75.5661 23.9678C75.5549 24.1678 75.5476 24.3715 75.5439 24.579C75.5401 24.7865 75.5382 24.9643 75.5382 25.1124V31.8245H73.5823V23.5788ZM82.066 30.1687H84.3551L83.9329 30.5466C83.6142 30.2946 83.3438 29.9928 83.1216 29.6408C82.8993 29.2889 82.7882 28.8871 82.7882 28.4351C82.7882 27.8425 82.9272 27.3404 83.205 26.9293C83.4828 26.5181 83.8718 26.2033 84.3718 25.9847C84.8719 25.7662 85.4516 25.657 86.111 25.657C86.3332 25.657 86.5796 25.6736 86.85 25.7069C87.1203 25.7402 87.4037 25.7903 87.7001 25.857C87.9964 25.9237 88.289 26.0051 88.578 26.1015L88.6224 26.1904C88.5928 26.3237 88.5687 26.5015 88.5503 26.7238C88.5317 26.946 88.5188 27.172 88.5113 27.4017C88.5039 27.6313 88.5002 27.8203 88.5002 27.9684V31.4689L88.4558 31.5578C88.2335 31.6467 87.9594 31.7134 87.6333 31.7579C87.3074 31.8023 86.9111 31.8245 86.4444 31.8245H81.8436V30.391L82.066 30.1687ZM84.7107 28.3351C84.7107 28.7277 84.8183 29.0722 85.033 29.3686C85.2478 29.6649 85.5349 29.8964 85.8943 30.0632C86.2536 30.2298 86.6481 30.3131 87.0777 30.3131L86.5443 31.0355V28.3684C86.5443 28.072 86.5592 27.8165 86.5888 27.6017C86.6185 27.3868 86.6555 27.1905 86.6999 27.0127L86.8777 27.435C86.811 27.4127 86.7314 27.3849 86.6388 27.3516C86.5462 27.3182 86.4407 27.2887 86.3221 27.2627C86.2035 27.2368 86.0628 27.2238 85.8998 27.2238C85.522 27.2238 85.2294 27.3201 85.0219 27.5128C84.8145 27.7054 84.7107 27.9795 84.7107 28.3351ZM85.8109 24.9012C85.5664 24.9012 85.3589 24.8235 85.1886 24.6679C85.0183 24.5123 84.933 24.2974 84.933 24.0234C84.933 23.7418 85.0183 23.5233 85.1886 23.3677C85.3589 23.2121 85.5664 23.1343 85.8109 23.1343C86.0554 23.1343 86.2629 23.2121 86.4332 23.3677C86.6035 23.5233 86.6888 23.7418 86.6888 24.0234C86.6888 24.2974 86.6035 24.5123 86.4332 24.6679C86.2629 24.8235 86.0554 24.9012 85.8109 24.9012ZM86.7333 33.5581C86.7333 33.2766 86.8203 33.0599 86.9944 32.908C87.1685 32.7561 87.3778 32.6801 87.6223 32.6801C87.8668 32.6801 88.0743 32.7561 88.2446 32.908C88.4149 33.0599 88.5002 33.2766 88.5002 33.5581C88.5002 33.8322 88.4149 34.047 88.2446 34.2026C88.0743 34.3583 87.8668 34.436 87.6223 34.436C87.3778 34.436 87.1685 34.3583 86.9944 34.2026C86.8203 34.047 86.7333 33.8322 86.7333 33.5581ZM84.7219 33.7915C84.7219 33.5099 84.8071 33.2932 84.9774 33.1414C85.1479 32.9895 85.3552 32.9136 85.5997 32.9136C85.8517 32.9136 86.061 32.9895 86.2276 33.1414C86.3944 33.2932 86.4777 33.5099 86.4777 33.7915C86.4777 34.0657 86.3944 34.2804 86.2276 34.436C86.061 34.5916 85.8517 34.6694 85.5997 34.6694C85.3552 34.6694 85.1479 34.5916 84.9774 34.436C84.8071 34.2804 84.7219 34.0657 84.7219 33.7915ZM86.0554 30.1687V31.6023L85.8331 31.8245H81.9214C81.4325 31.8245 81.0417 31.8746 80.749 31.9746C80.4564 32.0746 80.2509 32.2061 80.1323 32.369C80.0137 32.532 79.9693 32.7061 79.9989 32.8913L79.8767 32.558C79.9804 32.7432 80.1712 32.871 80.4491 32.9414C80.7268 33.0118 81.1065 33.0469 81.5881 33.0469H84.3441V33.1692L83.7773 34.6694H81.0325C80.5656 34.6694 80.1248 34.5934 79.71 34.4416C79.2951 34.2898 78.9599 34.0657 78.7044 33.7693C78.4487 33.4729 78.3209 33.1061 78.3209 32.6691C78.3209 32.3357 78.3932 32.0209 78.5376 31.7245C78.6821 31.4282 78.9062 31.1632 79.2099 30.9299C79.5137 30.6965 79.9007 30.5114 80.3712 30.3743C80.8416 30.2373 81.4066 30.1687 82.066 30.1687H86.0554ZM94.1278 31.3911L92.8609 33.6914H90.7716V33.5692L92.9609 30.1798L94.1278 31.3911ZM99.2062 31.8245C98.6951 31.8245 98.2691 31.7504 97.9282 31.6023C97.5875 31.4542 97.2986 31.2282 97.0615 30.9244C96.8245 30.6207 96.5912 30.2279 96.3614 29.7465L95.5168 27.735L96.2503 27.9239C95.9317 27.9314 95.6409 27.9814 95.378 28.0739C95.1149 28.1665 94.8908 28.287 94.7056 28.4351C94.5204 28.5833 94.3778 28.7518 94.2778 28.9407C94.1778 29.1296 94.1278 29.3242 94.1278 29.5242C94.1278 29.7834 94.2 30.0001 94.3445 30.1743C94.4889 30.3484 94.6797 30.4799 94.9167 30.5688C95.1538 30.6577 95.4057 30.7021 95.6724 30.7021C95.9984 30.7021 96.3077 30.6651 96.6004 30.591C96.893 30.5169 97.1281 30.4354 97.3059 30.3465L97.5282 30.4577L97.0726 32.0468C96.7762 32.1727 96.4763 32.2709 96.1725 32.3413C95.8688 32.4117 95.5872 32.4468 95.3279 32.4468C95.0835 32.4468 94.8241 32.4191 94.5501 32.3636C94.2759 32.3079 94.0036 32.2153 93.7333 32.0857C93.4628 31.956 93.2183 31.7855 92.9998 31.5744C92.7813 31.3633 92.6071 31.1022 92.4775 30.791C92.3478 30.4799 92.283 30.1131 92.283 29.6908C92.283 29.1055 92.4108 28.5944 92.6665 28.1573C92.922 27.7202 93.2646 27.3535 93.6943 27.0571C94.1241 26.7607 94.6019 26.5385 95.1279 26.3904C95.6538 26.2422 96.1872 26.1681 96.7281 26.1681L96.9393 26.2903L97.8617 28.724C98.0468 29.1982 98.2673 29.5575 98.5229 29.802C98.7785 30.0464 99.0803 30.1687 99.4286 30.1687V31.6023L99.2062 31.8245ZM99.2062 31.8245V30.391L99.4286 30.1687H101.484L100.84 30.4687C100.751 30.3798 100.69 30.2242 100.656 30.002C100.623 29.7797 100.606 29.513 100.606 29.2019V26.0792L102.44 25.8791H102.562V29.7575C102.562 29.9056 102.564 30.089 102.568 30.3076C102.571 30.5262 102.579 30.741 102.59 30.9521C102.601 31.1632 102.621 31.3356 102.651 31.4689V31.5578C102.429 31.6467 102.158 31.7134 101.84 31.7579C101.521 31.8023 101.128 31.8245 100.662 31.8245H99.2062ZM100.906 33.4692C100.906 33.1877 100.993 32.971 101.167 32.8191C101.341 32.6672 101.551 32.5912 101.795 32.5912C102.04 32.5912 102.247 32.6672 102.418 32.8191C102.588 32.971 102.673 33.1877 102.673 33.4692C102.673 33.7433 102.588 33.9581 102.418 34.1138C102.247 34.2694 102.04 34.3471 101.795 34.3471C101.551 34.3471 101.341 34.2694 101.167 34.1138C100.993 33.9581 100.906 33.7433 100.906 33.4692ZM98.8951 33.6914C98.8951 33.4174 98.9804 33.2043 99.1507 33.0525C99.321 32.9007 99.5322 32.8247 99.7842 32.8247C100.028 32.8247 100.234 32.9007 100.401 33.0525C100.567 33.2043 100.651 33.4174 100.651 33.6914C100.651 33.973 100.567 34.1915 100.401 34.3471C100.234 34.5027 100.025 34.5805 99.773 34.5805C99.5285 34.5805 99.321 34.5027 99.1507 34.3471C98.9804 34.1915 98.8951 33.973 98.8951 33.6914ZM107.707 31.8245V30.1687H109.519V31.6023L109.296 31.8245H107.707ZM103.462 32.9136C103.655 32.958 103.847 32.9969 104.04 33.0303C104.233 33.0637 104.425 33.0803 104.618 33.0803C104.914 33.0803 105.179 33.0432 105.413 32.9692C105.646 32.895 105.818 32.821 105.929 32.7469L105.474 33.2025C105.599 33.0172 105.705 32.7821 105.79 32.4969C105.875 32.2117 105.94 31.8746 105.985 31.4855C106.029 31.0966 106.051 30.654 106.051 30.1576C106.051 29.5205 106.022 28.9148 105.963 28.3407C105.903 27.7665 105.837 27.2239 105.763 26.7126L107.652 26.5126H107.774C107.841 27.0164 107.896 27.572 107.941 28.1795C107.985 28.7871 108.007 29.4019 108.007 30.0242C108.007 30.8762 107.922 31.6004 107.752 32.1968C107.581 32.7931 107.335 33.2766 107.013 33.647C106.691 34.0174 106.302 34.2879 105.846 34.4582C105.39 34.6286 104.877 34.7139 104.307 34.7139C104.114 34.7139 103.912 34.7009 103.701 34.6749C103.49 34.6491 103.312 34.6231 103.168 34.5972C103.023 34.5712 102.951 34.5583 102.951 34.5583V34.4472L103.462 32.9136ZM118.898 31.8245L119.942 30.1687H123.321V31.6023L123.098 31.8245H118.898ZM109.296 31.8245L109.308 30.391L109.53 30.1687H118.898C119.416 30.1687 119.772 30.1021 119.965 29.9687C120.157 29.8354 120.254 29.6353 120.254 29.3686C120.254 29.1464 120.204 28.9333 120.104 28.7296C120.004 28.5258 119.887 28.3573 119.753 28.224L120.565 28.2907C120.254 28.3648 119.987 28.4203 119.765 28.4573C119.542 28.4944 119.337 28.5204 119.148 28.5351C118.959 28.5499 118.75 28.5574 118.52 28.5574H111.652C111.304 28.5574 111.006 28.4629 110.758 28.2739C110.51 28.085 110.363 27.7536 110.319 27.2794L114.83 23.2232H114.942L115.708 24.4012L112.275 27.4127L111.997 26.9016H118.864C119.213 26.9016 119.557 26.8922 119.898 26.8737C120.239 26.8553 120.52 26.82 120.743 26.7682H120.876C121.061 26.9385 121.248 27.1516 121.437 27.4071C121.626 27.6628 121.787 27.9424 121.921 28.2462C122.054 28.5499 122.121 28.8575 122.121 29.1686C122.121 29.5093 122.046 29.8317 121.898 30.1353C121.75 30.4391 121.495 30.7096 121.132 30.9466L120.698 31.5911C120.498 31.6653 120.268 31.7226 120.009 31.7633C119.75 31.8042 119.457 31.8245 119.131 31.8245H109.296ZM123.098 31.8245V30.391L123.321 30.1687H125.377L124.732 30.4687C124.643 30.3798 124.582 30.2298 124.549 30.0186C124.515 29.8075 124.499 29.5464 124.499 29.2353V23.5677L126.332 23.3677H126.455V29.7575C126.455 29.9056 126.456 30.089 126.46 30.3076C126.464 30.5262 126.471 30.741 126.482 30.9521C126.493 31.1632 126.514 31.3356 126.543 31.4689V31.5578C126.321 31.6467 126.051 31.7134 125.732 31.7579C125.414 31.8023 125.021 31.8245 124.554 31.8245H123.098ZM128.21 23.5788L130.222 23.3788L130.255 23.4677C130.225 23.601 130.205 23.7677 130.194 23.9678C130.183 24.1678 130.175 24.3715 130.172 24.579C130.168 24.7865 130.166 24.9643 130.166 25.1124V31.8245H128.21V23.5788ZM133.004 31.9579C133.227 32.2171 133.464 32.4265 133.716 32.5858C133.968 32.7451 134.225 32.8579 134.488 32.9247C134.751 32.9914 134.997 33.0247 135.227 33.0247C135.442 33.0247 135.631 32.9877 135.794 32.9136C135.957 32.8394 136.09 32.7914 136.194 32.7691L135.716 33.2136C135.842 33.0284 135.947 32.7858 136.033 32.4857C136.118 32.1858 136.181 31.8486 136.222 31.4744C136.262 31.1003 136.283 30.7169 136.283 30.3243C136.283 29.9243 136.268 29.5093 136.238 29.0797C136.209 28.65 136.172 28.2315 136.127 27.8239C136.083 27.4164 136.027 27.046 135.96 26.7126L137.827 26.5126H137.95C138.046 27.2164 138.118 27.8628 138.166 28.4517C138.215 29.0407 138.238 29.565 138.238 30.0242C138.238 30.8465 138.155 31.556 137.989 32.1524C137.822 32.7488 137.589 33.2359 137.288 33.6137C136.988 33.9915 136.633 34.2694 136.222 34.4472C135.81 34.625 135.36 34.7139 134.871 34.7139C134.494 34.7139 134.153 34.6639 133.849 34.5638C133.545 34.4639 133.282 34.3434 133.06 34.2026C132.838 34.0619 132.66 33.9285 132.527 33.8027C132.393 33.6767 132.304 33.5878 132.26 33.5359L132.882 31.9579H133.004ZM134.016 30.6465C133.771 30.6465 133.564 30.5688 133.393 30.4132C133.223 30.2576 133.138 30.0391 133.138 29.7575C133.138 29.4761 133.223 29.2594 133.393 29.1074C133.564 28.9556 133.771 28.8796 134.016 28.8796C134.26 28.8796 134.468 28.9556 134.638 29.1074C134.808 29.2594 134.894 29.4761 134.894 29.7575C134.894 30.0391 134.808 30.2576 134.638 30.4132C134.468 30.5688 134.26 30.6465 134.016 30.6465ZM139.905 24.6901L141.917 24.4901L141.95 24.579C141.921 24.7124 141.9 24.879 141.889 25.079C141.878 25.279 141.871 25.4828 141.867 25.6903C141.863 25.8977 141.861 26.0755 141.861 26.2237V31.8245H139.905V24.6901ZM141.55 23.7455C141.35 23.7455 141.167 23.7085 141 23.6344C140.833 23.5603 140.691 23.4751 140.572 23.3788C140.454 23.2825 140.361 23.2047 140.294 23.1454L140.972 23.3232C140.765 23.338 140.565 23.364 140.372 23.401C140.18 23.4381 139.972 23.5455 139.75 23.7233H139.639L139.083 23.0343C139.246 22.8491 139.433 22.6973 139.644 22.5787C139.855 22.4601 140.117 22.4009 140.428 22.4009C140.665 22.4009 140.882 22.4509 141.078 22.5508C141.274 22.6509 141.439 22.7658 141.572 22.8954C141.706 23.025 141.802 23.1307 141.861 23.2121L140.994 22.8121C141.098 22.8121 141.215 22.8046 141.345 22.7899C141.474 22.775 141.615 22.7398 141.767 22.6842C141.919 22.6287 142.072 22.5379 142.228 22.412H142.35L142.895 23.1121C142.732 23.2973 142.545 23.4491 142.334 23.5677C142.122 23.6863 141.861 23.7455 141.55 23.7455ZM147.007 31.8245V30.1687H148.818V31.6023L148.596 31.8245H147.007ZM142.761 32.9136C142.954 32.958 143.147 32.9969 143.339 33.0303C143.532 33.0637 143.725 33.0803 143.917 33.0803C144.213 33.0803 144.478 33.0432 144.712 32.9692C144.945 32.895 145.117 32.821 145.228 32.7469L144.773 33.2025C144.899 33.0172 145.004 32.7821 145.09 32.4969C145.175 32.2117 145.24 31.8746 145.284 31.4855C145.329 31.0966 145.351 30.654 145.351 30.1576C145.351 29.5205 145.321 28.9148 145.262 28.3407C145.203 27.7665 145.136 27.2239 145.062 26.7126L146.951 26.5126H147.073C147.14 27.0164 147.195 27.572 147.24 28.1795C147.284 28.7871 147.307 29.4019 147.307 30.0242C147.307 30.8762 147.221 31.6004 147.051 32.1968C146.881 32.7931 146.634 33.2766 146.312 33.647C145.99 34.0174 145.601 34.2879 145.145 34.4582C144.69 34.6286 144.176 34.7139 143.606 34.7139C143.413 34.7139 143.212 34.7009 143 34.6749C142.789 34.6491 142.611 34.6231 142.467 34.5972C142.322 34.5712 142.25 34.5583 142.25 34.5583V34.4472L142.761 32.9136ZM152.463 21.623L153.007 21.2562C152.963 21.1821 152.926 21.1025 152.896 21.0173C152.867 20.9322 152.852 20.8377 152.852 20.734C152.859 20.5932 152.9 20.4598 152.974 20.3338C153.048 20.208 153.167 20.1153 153.33 20.0561L153.13 20.0783C153.248 20.0858 153.348 20.1302 153.43 20.2117C153.511 20.2931 153.552 20.3932 153.552 20.5116C153.552 20.645 153.502 20.7617 153.402 20.8617C153.302 20.9617 153.172 21.0377 153.013 21.0896C152.854 21.1414 152.678 21.1673 152.485 21.1673C152.241 21.1673 152.024 21.1192 151.835 21.0229C151.646 20.9266 151.44 20.797 151.218 20.6339L151.107 20.6451L150.685 21.1451C150.996 21.434 151.305 21.6377 151.613 21.7563C151.92 21.8749 152.241 21.9341 152.574 21.9341C152.907 21.9341 153.211 21.8712 153.485 21.7452C153.759 21.6193 153.976 21.4452 154.135 21.2229C154.295 21.0007 154.374 20.7451 154.374 20.4561C154.374 20.182 154.284 19.9413 154.102 19.7338C153.921 19.5264 153.656 19.4226 153.307 19.4226C153.085 19.4226 152.874 19.4801 152.674 19.5948C152.474 19.7097 152.313 19.8634 152.191 20.0561C152.068 20.2486 152.007 20.4672 152.007 20.7118C152.007 20.8525 152.039 21.0043 152.102 21.1673C152.165 21.3304 152.285 21.4822 152.463 21.623ZM152.507 25.5347C153.1 25.5347 153.62 25.6477 154.069 25.8736C154.517 26.0996 154.865 26.407 155.113 26.796C155.361 27.1849 155.486 27.6165 155.486 28.0906C155.486 28.6315 155.361 29.1037 155.113 29.5074C154.865 29.9112 154.545 30.2724 154.152 30.591L153.752 30.1687H156.386V31.6023L156.163 31.8245H154.185C153.674 31.8245 153.239 31.7579 152.88 31.6245C152.52 31.4912 152.207 31.3022 151.941 31.0577L153.374 31.0133C152.974 31.3097 152.548 31.5188 152.096 31.6411C151.644 31.7633 151.148 31.8245 150.607 31.8245H148.596V30.391L148.818 30.1687H151.44L151.007 30.591C150.592 30.2576 150.242 29.8761 149.957 29.4464C149.672 29.0166 149.529 28.5499 149.529 28.0462C149.529 27.6906 149.607 27.3608 149.762 27.0571C149.918 26.7535 150.133 26.4885 150.407 26.2625C150.681 26.0365 150.998 25.8587 151.357 25.7291C151.716 25.5995 152.1 25.5347 152.507 25.5347ZM150.863 28.4462L151.04 27.0015C151.107 27.4239 151.215 27.8109 151.363 28.1628C151.511 28.5148 151.68 28.8241 151.868 29.0908C152.057 29.3575 152.244 29.5797 152.43 29.7575C152.615 29.9353 152.778 30.0651 152.918 30.1465L152.329 30.3021C152.567 30.1687 152.778 29.9965 152.963 29.7853C153.148 29.5741 153.294 29.3408 153.402 29.0852C153.509 28.8296 153.563 28.5721 153.563 28.3129C153.563 28.1054 153.522 27.911 153.441 27.7294C153.359 27.5479 153.237 27.3998 153.074 27.2849C152.911 27.1701 152.715 27.1128 152.485 27.1128C152.3 27.1128 152.107 27.1554 151.907 27.2405C151.707 27.3257 151.516 27.4647 151.335 27.6572C151.153 27.8499 150.996 28.1129 150.863 28.4462ZM153.596 24.6235C153.359 24.6235 153.154 24.5456 152.98 24.39C152.806 24.2345 152.718 24.0197 152.718 23.7455C152.718 23.4641 152.806 23.2473 152.98 23.0954C153.154 22.9436 153.359 22.8676 153.596 22.8676C153.848 22.8676 154.059 22.9436 154.23 23.0954C154.4 23.2473 154.485 23.4641 154.485 23.7455C154.485 24.0197 154.4 24.2345 154.23 24.39C154.059 24.5456 153.848 24.6235 153.596 24.6235ZM151.585 24.8568C151.341 24.8568 151.133 24.779 150.963 24.6235C150.792 24.4679 150.707 24.253 150.707 23.9788C150.707 23.6974 150.792 23.4788 150.963 23.3232C151.133 23.1677 151.341 23.0898 151.585 23.0898C151.829 23.0898 152.037 23.1677 152.207 23.3232C152.378 23.4788 152.463 23.6974 152.463 23.9788C152.463 24.253 152.378 24.4679 152.207 24.6235C152.037 24.779 151.829 24.8568 151.585 24.8568Z" fill="#181818"/>
<path d="M155.941 31.8247V30.3912L156.164 30.1689H158.219L157.575 30.469C157.486 30.3801 157.425 30.23 157.392 30.0189C157.358 29.8077 157.342 29.5466 157.342 29.2355V23.5679L159.175 23.3679H159.297V29.7578C159.297 29.9059 159.299 30.0893 159.303 30.3078C159.307 30.5264 159.314 30.7413 159.325 30.9523C159.336 31.1635 159.357 31.3358 159.386 31.4691V31.558C159.164 31.6469 158.894 31.7136 158.575 31.7581C158.257 31.8025 157.864 31.8247 157.397 31.8247H155.941ZM161.053 23.5791L163.065 23.3791L163.098 23.468C163.068 23.6013 163.048 23.7679 163.037 23.968C163.026 24.1681 163.018 24.3717 163.015 24.5792C163.011 24.7867 163.009 24.9645 163.009 25.1126V31.8247H161.053V23.5791ZM169.781 31.8247V30.1689H174.426V31.6025L174.204 31.8247H169.781ZM165.936 31.7026L166.525 30.1689H170.226C170.693 30.1689 171.02 30.1041 171.209 29.9745C171.398 29.8449 171.493 29.643 171.493 29.3688C171.493 29.1466 171.441 28.9335 171.337 28.7299C171.233 28.5261 171.118 28.3575 170.993 28.2242L171.793 28.2798C171.489 28.3465 171.226 28.3983 171.004 28.4354C170.781 28.4724 170.574 28.4984 170.381 28.5131C170.189 28.528 169.981 28.5353 169.759 28.5353H169.326C169.103 28.5353 168.853 28.528 168.576 28.5131C168.298 28.4984 168.02 28.4651 167.742 28.4132C167.464 28.3612 167.199 28.2834 166.948 28.1797L167.425 26.6573H167.536C167.855 26.7537 168.211 26.8184 168.603 26.8518C168.996 26.8851 169.374 26.9018 169.737 26.9018H170.092C170.448 26.9018 170.794 26.8925 171.132 26.8739C171.469 26.8555 171.748 26.8203 171.97 26.7684H172.104C172.289 26.9387 172.476 27.1518 172.665 27.4074C172.854 27.663 173.015 27.9427 173.149 28.2464C173.282 28.5502 173.348 28.8577 173.348 29.1688C173.348 29.5392 173.263 29.8875 173.093 30.2134C172.922 30.5394 172.637 30.8209 172.237 31.0579L171.859 31.6247C171.674 31.6914 171.467 31.7414 171.237 31.7747C171.007 31.8081 170.752 31.8247 170.47 31.8247H165.936V31.7026ZM183.383 30.1689V31.5803L183.161 31.8247C182.998 31.8247 182.805 31.7969 182.583 31.7414C182.361 31.6858 182.142 31.5746 181.928 31.408C181.713 31.2413 181.531 30.9877 181.383 30.6468L181.794 30.6913C181.683 31.3358 181.476 31.8748 181.172 32.3082C180.868 32.7416 180.496 33.0657 180.055 33.2805C179.614 33.4953 179.123 33.6028 178.583 33.6028C178.153 33.6028 177.736 33.5139 177.333 33.3361C176.929 33.1583 176.569 32.9045 176.255 32.5749C175.94 32.2453 175.691 31.8581 175.51 31.4136C175.328 30.969 175.238 30.4801 175.238 29.9467C175.238 29.3836 175.323 28.8483 175.493 28.3409C175.664 27.8335 175.904 27.3815 176.216 26.985C176.527 26.5888 176.899 26.2758 177.333 26.0462C177.766 25.8164 178.245 25.7016 178.772 25.7016C179.209 25.7016 179.586 25.8071 179.905 26.0183C180.224 26.2294 180.47 26.4999 180.644 26.8296C180.818 27.1592 180.905 27.5167 180.905 27.902C180.905 28.2057 180.855 28.5206 180.755 28.8465C180.655 29.1725 180.509 29.4874 180.316 29.7911C180.124 30.0949 179.874 30.3654 179.566 30.6024C179.259 30.8394 178.897 31.0283 178.483 31.1692C178.068 31.3099 177.594 31.3802 177.06 31.3802L176.004 31.8247H174.204V30.4356L174.426 30.1689H176.06C176.549 30.1689 176.984 30.1134 177.366 30.0023C177.747 29.8912 178.075 29.741 178.349 29.5522C178.623 29.3632 178.831 29.1503 178.972 28.9132C179.112 28.6762 179.183 28.4354 179.183 28.1909C179.183 27.8056 179.053 27.5148 178.794 27.3185C178.535 27.1222 178.194 26.9944 177.771 26.9352L178.505 26.8907C178.194 27.0241 177.933 27.2388 177.721 27.5352C177.51 27.8316 177.353 28.165 177.249 28.5353C177.145 28.9058 177.093 29.2725 177.093 29.6355C177.093 30.0727 177.197 30.469 177.405 30.8246C177.612 31.1802 177.886 31.4617 178.227 31.6692C178.568 31.8767 178.942 31.9803 179.349 31.9803C179.624 31.9803 179.886 31.9193 180.138 31.7969C180.39 31.6747 180.627 31.5099 180.85 31.3025L179.538 32.6916C179.842 32.3063 180.04 31.9248 180.133 31.547C180.225 31.1692 180.275 30.8579 180.283 30.6134C180.283 30.332 180.259 30.0708 180.211 29.8299C180.162 29.5892 180.075 29.3022 179.949 28.9688L181.394 28.1909C181.564 28.665 181.735 29.0484 181.905 29.341C182.076 29.6337 182.278 29.8449 182.511 29.9745C182.744 30.1041 183.035 30.1689 183.383 30.1689ZM183.161 30.1689H185.917L185.595 31.2024L184.861 29.3354C184.809 29.2022 184.735 29.0298 184.639 28.8188C184.543 28.6076 184.435 28.3891 184.317 28.1631C184.198 27.9371 184.082 27.7296 183.967 27.5408C183.852 27.3518 183.75 27.2093 183.661 27.113L183.628 26.9907C183.939 26.7388 184.289 26.5129 184.678 26.3129C185.067 26.1127 185.476 25.9536 185.906 25.835C186.336 25.7164 186.769 25.6572 187.206 25.6572C187.791 25.6572 188.299 25.7608 188.729 25.9683C189.158 26.1758 189.49 26.4628 189.723 26.8296C189.957 27.1962 190.073 27.6094 190.073 28.0686C190.073 28.3945 190.008 28.7131 189.879 29.0243C189.749 29.3354 189.577 29.617 189.362 29.8689C189.147 30.1208 188.91 30.3209 188.651 30.469L188.251 30.1689H191.007V31.6025L190.784 31.8247H182.939V30.3912L183.161 30.1689ZM187.251 30.8913L186.528 30.5468C186.81 30.4134 187.08 30.2541 187.339 30.069C187.599 29.8837 187.814 29.6541 187.984 29.38C188.154 29.1058 188.24 28.7762 188.24 28.3909C188.24 28.0056 188.127 27.7001 187.901 27.4741C187.675 27.2481 187.376 27.1352 187.006 27.1352C186.687 27.1352 186.397 27.1982 186.134 27.324C185.871 27.45 185.658 27.5686 185.495 27.6796L185.584 27.1352C185.754 27.3204 185.893 27.5055 186 27.6908C186.108 27.8761 186.213 28.0945 186.317 28.3465C186.421 28.5983 186.543 28.9206 186.684 29.3132L187.251 30.8913ZM194.596 26.2017C195.293 26.2017 195.893 26.3314 196.396 26.5906C196.9 26.8499 197.287 27.2 197.558 27.6407C197.828 28.0815 197.963 28.5798 197.963 29.1354C197.963 29.6985 197.836 30.2042 197.58 30.6524C197.324 31.1006 196.965 31.4562 196.502 31.7192C196.039 31.9822 195.5 32.1137 194.885 32.1137C194.485 32.1137 194.094 32.0563 193.713 31.9415C193.331 31.8266 192.972 31.6488 192.635 31.408C192.298 31.1673 191.988 30.8579 191.707 30.4801L193.151 29.38C193.381 29.5948 193.644 29.7855 193.94 29.9522C194.237 30.119 194.544 30.2505 194.863 30.3467C195.181 30.4431 195.489 30.4949 195.785 30.5023C195.919 30.5098 196.02 30.5116 196.091 30.5078C196.161 30.5042 196.219 30.5023 196.263 30.5023L195.33 31.0469C195.544 30.8099 195.72 30.5523 195.857 30.2744C195.994 29.9967 196.063 29.6874 196.063 29.3466C196.063 29.0207 195.965 28.7428 195.769 28.5131C195.572 28.2834 195.307 28.1112 194.974 27.9963C194.641 27.8815 194.263 27.8316 193.841 27.8464L194.207 27.5018C194.155 28.1687 194.065 28.7706 193.935 29.3077C193.805 29.8449 193.607 30.2987 193.34 30.669C193.074 31.0394 192.714 31.3246 192.262 31.5248C191.81 31.7248 191.236 31.8247 190.54 31.8247V30.3912L190.762 30.1689C191.184 30.1689 191.507 30.0467 191.729 29.8023C191.951 29.5578 192.124 29.1763 192.246 28.6576C192.368 28.139 192.474 27.476 192.563 26.6685L192.718 26.5239C192.992 26.435 193.292 26.3592 193.618 26.2961C193.944 26.2332 194.27 26.2017 194.596 26.2017Z" fill="#181818"/>
<path d="M228.546 0.0452168C229.021 0.836463 229.473 1.6051 229.993 2.48677C229.812 2.64502 229.473 2.8937 229.021 3.25542C229.925 3.82059 230.829 4.34055 231.643 4.92834C232.502 5.53873 233.361 6.14911 234.085 6.89514C235.486 8.34199 235.644 10.0375 234.808 11.8913C232.728 16.6162 231.688 21.5897 231.259 26.6989C231.055 29.2761 230.965 31.8759 230.829 34.5662C229.676 34.5662 228.41 34.5662 227.009 34.5662C227.009 32.8028 226.85 30.9942 227.054 29.2309C227.438 25.7946 227.868 22.381 228.546 18.9899C228.998 16.684 229.789 14.4233 230.671 12.253C231.733 9.6306 231.485 7.86725 229.247 6.0813C227.958 5.06398 226.534 4.20491 225.336 3.36845C226.172 2.26071 227.031 1.13035 227.89 0C228.094 0.0452141 228.32 0.0452168 228.546 0.0452168Z" fill="#045633"/>
<path d="M221.989 0.045166C222.826 1.15291 223.685 2.23805 224.612 3.43622C223.911 3.88836 222.939 4.43093 222.034 5.06393C220.655 6.03603 219.299 7.00813 218.734 8.74887C218.236 10.3314 219.005 11.62 219.548 12.9312C221.356 17.4752 222.26 22.2227 222.645 27.0606C222.848 29.5247 222.893 32.0115 223.029 34.5661C221.537 34.5661 220.248 34.5661 218.847 34.5661C218.847 34.114 218.847 33.6618 218.847 33.2323C219.005 27.2188 218.214 21.3184 216.45 15.5762C216.089 14.3554 215.659 13.1572 215.139 11.9817C214.145 9.69836 214.416 7.93502 216.337 6.35252C217.716 5.22217 219.254 4.27268 220.791 3.21015C220.475 2.96147 220.158 2.69019 219.909 2.48672C220.384 1.67287 220.859 0.859019 221.311 0.045166C221.537 0.045166 221.763 0.045166 221.989 0.045166Z" fill="#045633"/>
<path d="M217.919 0.045166C218.416 0.813805 218.936 1.58244 219.524 2.50933C218.62 3.09711 217.602 3.66229 216.675 4.3405C215.409 5.26739 214.098 6.17167 213.013 7.27942C211.77 8.56802 211.792 10.1731 212.516 11.8008C214.392 16.0283 215.432 20.4593 215.862 25.0485C216.155 28.1909 216.314 31.3333 216.54 34.5887C214.98 34.5887 213.691 34.5887 212.244 34.5887C212.244 32.4636 212.403 30.3386 212.222 28.2587C211.679 22.2001 210.752 16.2092 207.949 10.6705C207.949 10.1505 207.949 9.60794 207.949 9.08798C208.582 7.30202 209.871 6.08124 211.408 5.08653C212.584 4.3405 213.85 3.7075 214.912 2.82583C215.862 2.03458 216.608 0.972054 217.444 0.045166C217.625 0.045166 217.761 0.045166 217.919 0.045166Z" fill="#045633"/>
<path d="M241.882 10.6705C238.31 18.2438 237.451 26.2919 237.36 34.6113C236.185 34.6113 234.919 34.6113 233.562 34.6113C233.562 32.6897 233.472 30.7681 233.585 28.8691C233.902 23.5339 234.828 18.289 236.705 13.2703C236.886 12.7729 237.089 12.2982 237.338 11.8234C238.581 9.31405 237.496 7.50549 235.823 6.17167C234.263 4.95089 232.523 3.93357 230.872 2.84844C230.691 2.7354 230.51 2.57716 230.375 2.46412C230.895 1.65027 231.415 0.836412 231.935 0.045166C232.161 0.045166 232.387 0.045166 232.613 0.045166C232.952 0.632949 233.178 1.37898 233.675 1.78591C235.145 2.93887 236.727 3.95618 238.287 4.9961C239.87 6.03603 241.294 7.2116 241.904 9.11059C241.882 9.60794 241.882 10.1505 241.882 10.6705Z" fill="#045633"/>
<path d="M241.859 8.99768C241.859 8.99768 242.176 9.83414 241.859 10.7384L241.385 10.8741L240.91 9.42721L241.859 8.99768Z" fill="#045633"/>
<path d="M208.062 10.8288C208.062 10.8288 207.678 9.96973 207.994 9.06545L208.469 8.92981L208.944 10.3767L208.062 10.8288Z" fill="#045633"/>
</g>
<defs>
<clipPath id="clip0_366_7">
<rect width="242" height="35" fill="white"/>
</clipPath>
</defs>
</svg>
