<svg width="235" height="35" viewBox="0 0 235 35" fill="none" xmlns="http://www.w3.org/2000/svg">
<path d="M3.35599 11.9685L2.08915 14.2689H0V14.1467L2.18921 10.7572L3.35599 11.9685ZM8.4346 12.402C7.92338 12.402 7.49738 12.3278 7.1566 12.1797C6.81571 12.0315 6.52681 11.8055 6.28978 11.5018C6.05274 11.1981 5.81939 10.8054 5.58971 10.3239L4.74508 8.31245L5.47861 8.5013C5.15991 8.50877 4.86923 8.55875 4.6062 8.65133C4.34317 8.74404 4.11908 8.86439 3.93391 9.01252C3.74863 9.16065 3.60608 9.3292 3.50614 9.51816C3.40608 9.707 3.35599 9.90155 3.35599 10.1015C3.35599 10.3609 3.42827 10.5776 3.57272 10.7516C3.71718 10.9258 3.90792 11.0573 4.14507 11.1462C4.38211 11.2351 4.63398 11.2796 4.90069 11.2796C5.22662 11.2796 5.53594 11.2426 5.82864 11.1684C6.12123 11.0943 6.35648 11.0129 6.53429 10.924L6.75648 11.0351L6.30093 12.6242C6.00455 12.7501 5.70449 12.8483 5.40075 12.9188C5.09701 12.989 4.81546 13.0243 4.55623 13.0243C4.31172 13.0243 4.05249 12.9965 3.7783 12.941C3.50412 12.8854 3.23195 12.7927 2.96156 12.6631C2.69106 12.5335 2.44654 12.3631 2.22815 12.1519C2.00951 11.9407 1.83538 11.6796 1.70577 11.3685C1.57615 11.0573 1.51135 10.6905 1.51135 10.2683C1.51135 9.68303 1.63918 9.1718 1.89473 8.73477C2.15028 8.29762 2.49284 7.93097 2.92263 7.63459C3.35231 7.33821 3.83017 7.11588 4.35611 6.96775C4.88217 6.81962 5.41558 6.74556 5.95636 6.74556L6.16752 6.86781L7.0899 9.30142C7.27518 9.77561 7.4956 10.1349 7.75115 10.3794C8.0067 10.6239 8.30866 10.7462 8.65679 10.7462V12.1797L8.4346 12.402ZM10.9905 10.7462V12.1797L10.7683 12.402H8.4346V10.9684L8.65679 10.7462H10.9905ZM10.7683 12.402V10.9684L10.9905 10.7462H13.0464L12.4019 11.0461C12.313 10.9572 12.2518 10.8017 12.2185 10.5794C12.1851 10.3572 12.1685 10.0905 12.1685 9.77929V6.65665L14.0021 6.45654H14.1242V10.3349C14.1242 10.4832 14.1261 10.6665 14.1299 10.8851C14.1336 11.1036 14.141 11.3184 14.1521 11.5296C14.1632 11.7407 14.1836 11.913 14.2132 12.0464V12.1353C13.991 12.2242 13.7206 12.2908 13.402 12.3353C13.0834 12.3797 12.6908 12.402 12.2241 12.402H10.7683ZM12.4685 14.0466C12.4685 13.7652 12.5556 13.5483 12.7297 13.3965C12.9037 13.2447 13.1131 13.1688 13.3575 13.1688C13.602 13.1688 13.8095 13.2447 13.9798 13.3965C14.1502 13.5483 14.2355 13.7652 14.2355 14.0466C14.2355 14.3208 14.1502 14.5356 13.9798 14.6911C13.8095 14.8467 13.602 14.9245 13.3575 14.9245C13.1131 14.9245 12.9037 14.8467 12.7297 14.6911C12.5556 14.5356 12.4685 14.3208 12.4685 14.0466ZM10.457 14.2689C10.457 13.9947 10.5423 13.7818 10.7127 13.63C10.883 13.4781 11.0942 13.4021 11.3461 13.4021C11.5906 13.4021 11.7962 13.4781 11.9629 13.63C12.1296 13.7818 12.2129 13.9947 12.2129 14.2689C12.2129 14.5504 12.1296 14.769 11.9629 14.9245C11.7962 15.0801 11.5869 15.158 11.335 15.158C11.0905 15.158 10.883 15.0801 10.7127 14.9245C10.5423 14.769 10.457 14.5504 10.457 14.2689ZM19.2696 12.402V10.7462H21.0809V12.1797L20.8587 12.402H19.2696ZM15.0244 13.491C15.2171 13.5354 15.4097 13.5743 15.6022 13.6077C15.7949 13.641 15.9875 13.6577 16.1802 13.6577C16.4765 13.6577 16.7414 13.6206 16.9747 13.5466C17.2082 13.4725 17.3803 13.3984 17.4915 13.3244L17.0358 13.7799C17.1618 13.5946 17.2674 13.3595 17.3526 13.0743C17.4377 12.789 17.5026 12.452 17.5471 12.063C17.5915 11.674 17.6138 11.2314 17.6138 10.735C17.6138 10.0979 17.5841 9.49217 17.5249 8.91804C17.4655 8.34391 17.3989 7.80124 17.3247 7.29002L19.2139 7.09002H19.3362C19.4029 7.59376 19.4584 8.14937 19.5029 8.75697C19.5473 9.36445 19.5695 9.97929 19.5695 10.6016C19.5695 11.4537 19.4843 12.1779 19.314 12.7742C19.1436 13.3705 18.8973 13.8541 18.575 14.2244C18.2527 14.5949 17.8637 14.8653 17.4082 15.0357C16.9525 15.206 16.4394 15.2913 15.8689 15.2913C15.6764 15.2913 15.4745 15.2783 15.2634 15.2524C15.0522 15.2264 14.8744 15.2006 14.7299 15.1746C14.5854 15.1486 14.5132 15.1356 14.5132 15.1356V15.0245L15.0244 13.491ZM23.1923 12.402H20.8587V10.9684L21.0809 10.7462H23.4146H25.7483H28.082V12.1797L27.8597 12.402H25.526H23.1923ZM37.4611 12.402L38.5058 10.7462H41.8841V12.1797L41.6618 12.402H37.4611ZM27.8597 12.402L27.8708 10.9684L28.0931 10.7462H37.4611C37.9797 10.7462 38.3353 10.6795 38.528 10.5461C38.7206 10.4128 38.8169 10.2128 38.8169 9.94606C38.8169 9.72375 38.7669 9.5108 38.667 9.307C38.5669 9.10332 38.4502 8.93477 38.3168 8.80136L39.1281 8.86807C38.8169 8.94214 38.5502 8.9978 38.328 9.03472C38.1057 9.07175 37.9002 9.09774 37.7112 9.11258C37.5223 9.1273 37.313 9.13477 37.0833 9.13477H30.2156C29.8674 9.13477 29.5692 9.04029 29.321 8.85133C29.0728 8.66249 28.9265 8.33097 28.8821 7.85678L33.3938 3.80062H33.505L34.2718 4.97854L30.838 7.9902L30.5601 7.47898H37.4278C37.7759 7.47898 38.1205 7.46972 38.4613 7.45109C38.8022 7.43269 39.0836 7.39755 39.3059 7.34556H39.4392C39.6245 7.51601 39.8115 7.72895 40.0005 7.9845C40.1893 8.24017 40.3504 8.51993 40.4838 8.82368C40.6171 9.1273 40.6838 9.43484 40.6838 9.74594C40.6838 10.0868 40.6098 10.4091 40.4616 10.7128C40.3135 11.0166 40.0578 11.287 39.6949 11.524L39.2614 12.1686C39.0614 12.2427 38.8317 12.3001 38.5724 12.3407C38.3131 12.3816 38.0204 12.402 37.6945 12.402H27.8597ZM44.2177 10.7462V12.1797L43.9954 12.402H41.6618V10.9684L41.8841 10.7462H44.2177ZM43.9954 12.402V10.9684L44.2177 10.7462H46.2735L45.629 11.0461C45.5401 10.9572 45.4791 10.8072 45.4458 10.596C45.4124 10.3849 45.3957 10.1239 45.3957 9.81265V4.14518L47.2293 3.94507H47.3515V10.3349C47.3515 10.4832 47.3533 10.6665 47.3571 10.8851C47.3608 11.1036 47.3683 11.3184 47.3793 11.5296C47.3905 11.7407 47.4108 11.913 47.4404 12.0464V12.1353C47.2181 12.2242 46.9477 12.2908 46.6292 12.3353C46.3106 12.3797 45.9179 12.402 45.4512 12.402H43.9954ZM49.1074 4.15623L51.1188 3.95622L51.152 4.04513C51.1225 4.17842 51.1022 4.34519 51.091 4.54519C51.0799 4.74519 51.0725 4.94887 51.0688 5.15635C51.065 5.36383 51.0631 5.54163 51.0631 5.68976V12.402H49.1074V4.15623ZM54.5452 12.5353C54.7674 12.7945 55.0045 13.0039 55.2564 13.1632C55.5083 13.3225 55.7657 13.4355 56.0287 13.5022C56.2917 13.5688 56.5381 13.6021 56.7677 13.6021C56.9826 13.6021 57.1714 13.5651 57.3345 13.491C57.4975 13.4168 57.6309 13.3687 57.7345 13.3466L57.2566 13.7911C57.3826 13.6058 57.4882 13.3633 57.5734 13.0632C57.6585 12.7632 57.7216 12.426 57.7624 12.0518C57.803 11.6778 57.8234 11.2943 57.8234 10.9017C57.8234 10.5017 57.8087 10.0868 57.779 9.65703C57.7493 9.22736 57.7123 8.80884 57.6678 8.40136C57.6234 7.99388 57.5679 7.62343 57.5012 7.29002L59.3681 7.09002H59.4904C59.5868 7.79376 59.6589 8.44018 59.7071 9.02914C59.7552 9.61811 59.7793 10.1424 59.7793 10.6016C59.7793 11.424 59.6959 12.1334 59.5293 12.7298C59.3627 13.3261 59.1292 13.8133 58.8292 14.1911C58.5292 14.5689 58.1736 14.8467 57.7624 15.0245C57.3512 15.2024 56.901 15.2913 56.4121 15.2913C56.0343 15.2913 55.6934 15.2413 55.3897 15.1413C55.0861 15.0413 54.823 14.9209 54.6007 14.78C54.3785 14.6393 54.2007 14.506 54.0673 14.38C53.934 14.2541 53.8451 14.1652 53.8006 14.1133L54.4229 12.5353H54.5452ZM55.5565 11.2239C55.3119 11.2239 55.1045 11.1462 54.9341 10.9906C54.7637 10.8351 54.6785 10.6165 54.6785 10.3349C54.6785 10.0535 54.7637 9.83674 54.9341 9.68481C55.1045 9.53299 55.3119 9.45704 55.5565 9.45704C55.801 9.45704 56.0083 9.53299 56.1788 9.68481C56.3491 9.83674 56.4343 10.0535 56.4343 10.3349C56.4343 10.6165 56.3491 10.8351 56.1788 10.9906C56.0083 11.1462 55.801 11.2239 55.5565 11.2239ZM61.4462 5.26757L63.4576 5.06745L63.491 5.15635C63.4613 5.28977 63.441 5.45641 63.4299 5.65641C63.4188 5.85654 63.4113 6.06022 63.4077 6.2677C63.4039 6.47517 63.4021 6.65298 63.4021 6.80112V12.402H61.4462V5.26757ZM63.0909 4.323C62.8909 4.323 62.7076 4.28596 62.5408 4.21178C62.3742 4.13771 62.2315 4.0526 62.1129 3.95622C61.9944 3.85984 61.9018 3.7821 61.8352 3.72287L62.5131 3.90068C62.3056 3.9154 62.1056 3.94139 61.9129 3.97842C61.7203 4.01545 61.5129 4.12288 61.2906 4.30068H61.1795L60.6239 3.61178C60.7869 3.42649 60.9739 3.27467 61.1851 3.1561C61.3963 3.03752 61.6574 2.9783 61.9685 2.9783C62.2055 2.9783 62.4223 3.02827 62.6187 3.12821C62.8149 3.22827 62.9798 3.34317 63.1131 3.47278C63.2465 3.6024 63.3429 3.70803 63.4021 3.78957L62.5353 3.38945C62.639 3.38945 62.7557 3.38197 62.8854 3.36726C63.0149 3.35242 63.1557 3.31717 63.3076 3.26162C63.4594 3.20608 63.6132 3.11527 63.7687 2.98945H63.891L64.4356 3.68952C64.2725 3.8748 64.0855 4.02661 63.8744 4.14518C63.6632 4.26364 63.4021 4.323 63.0909 4.323ZM68.5473 12.402V10.7462H70.3587V12.1797L70.1364 12.402H68.5473ZM64.3021 13.491C64.4948 13.5354 64.6874 13.5743 64.8801 13.6077C65.0726 13.641 65.2654 13.6577 65.4579 13.6577C65.7543 13.6577 66.0192 13.6206 66.2525 13.5466C66.4859 13.4725 66.6581 13.3984 66.7692 13.3244L66.3136 13.7799C66.4395 13.5946 66.5451 13.3595 66.6304 13.0743C66.7155 12.789 66.7804 12.452 66.8248 12.063C66.8693 11.674 66.8915 11.2314 66.8915 10.735C66.8915 10.0979 66.8618 9.49217 66.8026 8.91804C66.7434 8.34391 66.6766 7.80124 66.6026 7.29002L68.4917 7.09002H68.614C68.6806 7.59376 68.7362 8.14937 68.7806 8.75697C68.8251 9.36445 68.8473 9.97929 68.8473 10.6016C68.8473 11.4537 68.7621 12.1779 68.5917 12.7742C68.4213 13.3705 68.1751 13.8541 67.8528 14.2244C67.5305 14.5949 67.1416 14.8653 66.6859 15.0357C66.2304 15.206 65.7172 15.2913 65.1468 15.2913C64.9541 15.2913 64.7522 15.2783 64.5412 15.2524C64.33 15.2264 64.1521 15.2006 64.0077 15.1746C63.8632 15.1486 63.7911 15.1356 63.7911 15.1356V15.0245L64.3021 13.491ZM72.47 12.402H70.1364V10.9684L70.3587 10.7462H72.6924H75.026V12.1797L74.8038 12.402H72.47ZM77.3597 10.7462V12.1797L77.1375 12.402H74.8038V10.9684L75.026 10.7462H77.3597ZM81.0047 2.20037L81.5493 1.83372C81.5048 1.75954 81.4677 1.67989 81.4381 1.59466C81.4084 1.50956 81.3937 1.41508 81.3937 1.31134C81.4011 1.17057 81.4417 1.03727 81.5159 0.911333C81.59 0.785397 81.7084 0.692706 81.8715 0.633477L81.6714 0.655675C81.79 0.663153 81.89 0.707654 81.9715 0.789079C82.053 0.870504 82.0937 0.970567 82.0937 1.08914C82.0937 1.22244 82.0438 1.33912 81.9438 1.43918C81.8438 1.53912 81.7141 1.61508 81.5548 1.66695C81.3954 1.71882 81.2195 1.74482 81.0269 1.74482C80.7825 1.74482 80.5658 1.69662 80.3769 1.60024C80.188 1.50398 79.9824 1.37437 79.7601 1.2114L79.649 1.22244L79.2266 1.72251C79.5379 2.01153 79.8472 2.21521 80.1546 2.33379C80.462 2.45236 80.7825 2.51158 81.1158 2.51158C81.4492 2.51158 81.7529 2.44856 82.027 2.32262C82.3012 2.19669 82.5178 2.02256 82.6772 1.80036C82.8365 1.57805 82.916 1.3225 82.916 1.0336C82.916 0.759413 82.8254 0.518695 82.6439 0.311215C82.4623 0.103736 82.1975 0 81.8492 0C81.627 0 81.4159 0.0574457 81.2159 0.172224C81.0159 0.287121 80.8547 0.440954 80.7325 0.633477C80.6103 0.82612 80.549 1.04463 80.549 1.28914C80.549 1.42991 80.5806 1.58173 80.6436 1.74482C80.7065 1.90779 80.8269 2.0596 81.0047 2.20037ZM81.0492 6.11208C81.6419 6.11208 82.1622 6.22509 82.6105 6.45097C83.0587 6.67696 83.4068 6.98438 83.6552 7.37335C83.9034 7.76231 84.0274 8.19387 84.0274 8.66806C84.0274 9.20884 83.9034 9.68113 83.6552 10.0849C83.4068 10.4887 83.0865 10.8498 82.6938 11.1684L82.2937 10.7462H84.9275V12.1797L84.7053 12.402H82.7272C82.216 12.402 81.7807 12.3353 81.4214 12.2019C81.0621 12.0686 80.7491 11.8796 80.4824 11.6352L81.9159 11.5907C81.5159 11.8871 81.0899 12.0963 80.6379 12.2185C80.1861 12.3407 79.6897 12.402 79.1489 12.402H77.1375V10.9684L77.3597 10.7462H79.9824L79.5489 11.1684C79.1341 10.8351 78.784 10.4535 78.4988 10.0238C78.2136 9.59413 78.0709 9.12729 78.0709 8.62355C78.0709 8.26794 78.1488 7.93833 78.3043 7.63459C78.4599 7.33085 78.6747 7.06592 78.9488 6.83992C79.223 6.61405 79.5396 6.43624 79.899 6.3065C80.2583 6.17689 80.6416 6.11208 81.0492 6.11208ZM79.4044 9.02368L79.5823 7.57903C79.649 8.00123 79.7564 8.38842 79.9045 8.74023C80.0526 9.09216 80.2213 9.40149 80.4102 9.6682C80.5991 9.9349 80.7861 10.1571 80.9713 10.3349C81.1566 10.5127 81.3195 10.6424 81.4604 10.7239L80.8714 10.8795C81.1084 10.7462 81.3195 10.5738 81.5048 10.3627C81.69 10.1515 81.8363 9.91816 81.9438 9.66261C82.0511 9.40694 82.1049 9.14962 82.1049 8.89027C82.1049 8.68279 82.064 8.48836 81.9826 8.30688C81.9012 8.12539 81.7789 7.97726 81.6159 7.86236C81.4529 7.74746 81.2566 7.69014 81.0269 7.69014C80.8417 7.69014 80.6491 7.73274 80.4491 7.81785C80.2491 7.90307 80.0582 8.04207 79.8769 8.23459C79.6953 8.42723 79.5379 8.69027 79.4044 9.02368ZM82.1382 5.20086C81.9012 5.20086 81.6955 5.123 81.5215 4.96751C81.3474 4.8119 81.2602 4.59706 81.2602 4.323C81.2602 4.04145 81.3474 3.82471 81.5215 3.67278C81.6955 3.52097 81.9012 3.44501 82.1382 3.44501C82.3901 3.44501 82.6013 3.52097 82.7716 3.67278C82.942 3.82471 83.0273 4.04145 83.0273 4.323C83.0273 4.59706 82.942 4.8119 82.7716 4.96751C82.6013 5.123 82.3901 5.20086 82.1382 5.20086ZM80.1268 5.43422C79.8823 5.43422 79.6748 5.35647 79.5045 5.20086C79.3341 5.04526 79.2488 4.83042 79.2488 4.55635C79.2488 4.27481 79.3341 4.05629 79.5045 3.90068C79.6748 3.74507 79.8823 3.66732 80.1268 3.66732C80.3712 3.66732 80.5787 3.74507 80.7491 3.90068C80.9195 4.05629 81.0047 4.27481 81.0047 4.55635C81.0047 4.83042 80.9195 5.04526 80.7491 5.20086C80.5787 5.35647 80.3712 5.43422 80.1268 5.43422ZM87.0389 10.7462V12.1797L86.8167 12.402H84.4831V10.9684L84.7053 10.7462H87.0389ZM89.3726 10.7462V12.1797L89.1504 12.402H86.8167V10.9684L87.0389 10.7462H89.3726ZM89.3726 10.7462H89.5949C89.7801 10.7535 89.932 10.7757 90.0505 10.8128C90.169 10.8498 90.2913 10.8943 90.4172 10.9462V4.15623L92.4175 3.95622L92.462 4.04513C92.4323 4.17842 92.412 4.34519 92.4008 4.54519C92.3898 4.74519 92.3823 4.94887 92.3787 5.15635C92.3749 5.36383 92.3731 5.54163 92.3731 5.68976V11.7241C92.5953 11.6426 92.8213 11.5388 93.0509 11.4129C93.2806 11.287 93.501 11.1444 93.7122 10.985C93.9234 10.8257 94.1066 10.6646 94.2622 10.5017V4.15623L96.2626 3.95622L96.307 4.04513C96.2995 4.11919 96.2885 4.23765 96.2736 4.40074C96.2589 4.56371 96.2459 4.75635 96.2348 4.97854C96.2237 5.20086 96.2181 5.43789 96.2181 5.68976V10.2016C96.2181 10.5721 96.1348 10.8906 95.9681 11.1573C95.8015 11.4241 95.5514 11.6721 95.218 11.9019C94.8846 12.1316 94.4734 12.3723 93.9845 12.6242C93.4955 12.8762 92.9287 13.1724 92.2842 13.5132C92.0915 13.3429 91.8748 13.1724 91.6341 13.002C91.3934 12.8317 91.1063 12.689 90.7728 12.5742C90.4394 12.4593 90.0394 12.402 89.5727 12.402H89.1504V10.9684L89.3726 10.7462ZM99.1889 7.89014C98.9666 7.89014 98.7703 7.83459 98.5999 7.7235C98.4295 7.61228 98.2943 7.45109 98.1944 7.24005C98.0943 7.02889 98.0442 6.77143 98.0442 6.46769V5.76763L98.8111 5.67873H98.9332V6.40098C98.9332 6.66769 98.9573 6.85844 99.0055 6.97334C99.0537 7.08824 99.1241 7.15482 99.2167 7.17334C99.3093 7.19185 99.4148 7.19743 99.5334 7.19007L99.2778 7.32338C99.3445 7.23447 99.3871 7.09191 99.4056 6.89547C99.424 6.69927 99.4334 6.49357 99.4334 6.27873V5.84538L100.167 5.75647H100.278V6.15659C100.278 6.27505 100.272 6.38627 100.261 6.48989C100.25 6.59363 100.219 6.67138 100.167 6.72325L100.122 6.3566C100.182 6.46022 100.25 6.54176 100.328 6.60111C100.406 6.66034 100.495 6.70105 100.595 6.72325C100.695 6.74556 100.8 6.75661 100.911 6.75661L100.634 6.9344C100.671 6.88253 100.71 6.81037 100.75 6.71767C100.791 6.62509 100.826 6.48621 100.856 6.30104C100.885 6.11576 100.9 5.86389 100.9 5.54531V5.32312L101.667 5.23421H101.789V5.36751C101.789 5.93796 101.732 6.38247 101.617 6.70105C101.502 7.01963 101.356 7.24005 101.178 7.36218C101 7.48444 100.811 7.54568 100.611 7.54568C100.448 7.54568 100.306 7.51234 100.184 7.44563C100.061 7.37892 99.9667 7.31969 99.9001 7.26782L100.111 7.19007C100.015 7.44195 99.8835 7.62165 99.7168 7.72896C99.5501 7.83637 99.3741 7.89014 99.1889 7.89014ZM107.712 12.402C107.268 12.402 106.901 12.3428 106.612 12.2242C106.323 12.1056 106.079 11.9185 105.879 11.6629C105.679 11.4073 105.486 11.0832 105.301 10.6905L104.156 8.21239L105.112 8.94581C104.882 8.97549 104.655 9.0181 104.429 9.07365C104.203 9.1292 104.017 9.21252 103.873 9.32374C103.729 9.43483 103.656 9.59781 103.656 9.81265C103.656 9.97573 103.703 10.1497 103.795 10.3349C103.888 10.5202 104.001 10.7092 104.134 10.9017C104.267 11.0943 104.403 11.287 104.54 11.4796C104.677 11.6721 104.792 11.8593 104.884 12.0407C104.977 12.2223 105.023 12.3871 105.023 12.5353C105.023 13.054 104.869 13.5244 104.562 13.9467C104.254 14.3689 103.825 14.706 103.273 14.9578C102.721 15.2098 102.086 15.3358 101.367 15.3358C100.804 15.3358 100.317 15.2932 99.9057 15.2079C99.4946 15.1227 99.1778 15.0375 98.9556 14.9524C98.7332 14.8672 98.6221 14.8245 98.6221 14.8245L99.1 13.2021H99.2223C99.3185 13.2318 99.4724 13.2798 99.6834 13.3466C99.8946 13.4133 100.158 13.4762 100.472 13.5354C100.787 13.5946 101.141 13.6243 101.534 13.6243C102.067 13.6243 102.528 13.5429 102.917 13.3799C103.306 13.2168 103.619 13.0317 103.856 12.8242L103.901 13.5354C103.664 13.2243 103.419 12.9225 103.167 12.6298C102.915 12.3371 102.68 12.0501 102.462 11.7685C102.243 11.487 102.067 11.2017 101.934 10.9128C101.8 10.6239 101.734 10.3275 101.734 10.0238C101.734 9.54962 101.843 9.14403 102.062 8.80694C102.28 8.46984 102.569 8.18272 102.928 7.94569C103.288 7.70866 103.684 7.51411 104.117 7.36218C104.551 7.21037 104.986 7.09002 105.423 7.00111L105.601 7.09002L106.557 9.24588C106.72 9.61632 106.866 9.9127 106.996 10.1349C107.125 10.3572 107.26 10.5146 107.401 10.6072C107.542 10.6999 107.72 10.7462 107.935 10.7462V12.1797L107.712 12.402ZM100.133 10.6683C99.8965 10.6683 99.6908 10.5906 99.5168 10.435C99.3426 10.2794 99.2556 10.0646 99.2556 9.79045C99.2556 9.5089 99.3426 9.29216 99.5168 9.14023C99.6908 8.98842 99.9001 8.91258 100.145 8.91258C100.389 8.91258 100.597 8.98842 100.767 9.14023C100.937 9.29216 101.023 9.5089 101.023 9.79045C101.023 10.0646 100.937 10.2794 100.767 10.435C100.597 10.5906 100.385 10.6683 100.133 10.6683ZM100.133 12.7576C99.889 12.7576 99.6797 12.6816 99.5056 12.5298C99.3315 12.3779 99.2445 12.1611 99.2445 11.8796C99.2445 11.5982 99.3315 11.3814 99.5056 11.2295C99.6797 11.0777 99.889 11.0017 100.133 11.0017C100.378 11.0017 100.585 11.0777 100.756 11.2295C100.926 11.3814 101.011 11.5982 101.011 11.8796C101.011 12.1611 100.926 12.3779 100.756 12.5298C100.585 12.6816 100.378 12.7576 100.133 12.7576ZM109.857 10.7462L110.313 12.402H107.712V10.9684L107.935 10.7462H109.857ZM115.669 12.402C115.165 12.402 114.743 12.3278 114.402 12.1797C114.061 12.0315 113.771 11.8055 113.53 11.5018C113.289 11.1981 113.058 10.8054 112.835 10.3239L111.98 8.31245L112.646 8.5013C112.343 8.50877 112.065 8.55875 111.813 8.65133C111.561 8.74404 111.343 8.86439 111.157 9.01252C110.972 9.16065 110.831 9.3292 110.735 9.51816C110.639 9.707 110.591 9.90155 110.591 10.1015C110.591 10.3609 110.665 10.5776 110.813 10.7516C110.961 10.9258 111.154 11.0573 111.391 11.1462C111.628 11.2351 111.876 11.2796 112.135 11.2796C112.461 11.2796 112.77 11.2426 113.063 11.1684C113.356 11.0943 113.591 11.0129 113.769 10.924L113.991 11.0351L113.535 12.6242C113.239 12.7501 112.941 12.8483 112.641 12.9188C112.341 12.989 112.057 13.0243 111.791 13.0243C111.554 13.0243 111.296 12.9965 111.018 12.941C110.741 12.8854 110.468 12.7927 110.202 12.6631C109.935 12.5335 109.692 12.3631 109.474 12.1519C109.255 11.9407 109.079 11.6796 108.946 11.3685C108.813 11.0573 108.746 10.6905 108.746 10.2683C108.746 9.68303 108.874 9.1718 109.129 8.73477C109.385 8.29762 109.727 7.93097 110.157 7.63459C110.587 7.33821 111.067 7.11588 111.596 6.96775C112.126 6.81962 112.661 6.74556 113.202 6.74556L113.413 6.86781L114.336 9.30142C114.513 9.77561 114.732 10.1349 114.991 10.3794C115.251 10.6239 115.551 10.7462 115.891 10.7462V12.1797L115.669 12.402ZM118.225 10.7462V12.1797L118.003 12.402H115.669V10.9684L115.891 10.7462H118.225ZM118.003 12.402V10.9684L118.225 10.7462H120.403L119.759 11.0461C119.67 10.9572 119.607 10.8072 119.57 10.596C119.533 10.3849 119.514 10.1239 119.514 9.81265V4.15623L121.359 3.95622H121.481V11.5573L120.681 10.7462H122.937V12.1797L122.715 12.402H118.003ZM125.271 10.7462V12.1797L125.048 12.402H122.715V10.9684L122.937 10.7462H125.271ZM127.604 10.7462V12.1797L127.382 12.402H125.048V10.9684L125.271 10.7462H127.604ZM129.938 10.7462V12.1797L129.716 12.402H127.382V10.9684L127.604 10.7462H129.938ZM129.938 10.7462H132.694L132.372 11.7797L131.638 9.9127C131.586 9.77929 131.512 9.60706 131.416 9.3959C131.32 9.18474 131.212 8.96622 131.094 8.74023C130.975 8.51435 130.858 8.30688 130.744 8.11791C130.629 7.92895 130.527 7.7864 130.438 7.69014L130.405 7.56788C130.716 7.31601 131.066 7.09001 131.455 6.89001C131.844 6.69001 132.253 6.53072 132.683 6.41215C133.113 6.29357 133.546 6.23435 133.983 6.23435C134.568 6.23435 135.076 6.33809 135.505 6.54545C135.935 6.75293 136.267 7.03993 136.5 7.40669C136.734 7.77346 136.85 8.18653 136.85 8.64588C136.85 8.97181 136.785 9.29039 136.656 9.60149C136.526 9.91271 136.354 10.1941 136.139 10.4461C135.924 10.698 135.687 10.898 135.428 11.0461L135.028 10.7462H137.784V12.1797L137.561 12.402H129.716V10.9684L129.938 10.7462ZM134.027 11.4684L133.305 11.124C133.587 10.9906 133.857 10.8314 134.116 10.6461C134.376 10.4608 134.591 10.2313 134.761 9.9571C134.931 9.68303 135.016 9.35341 135.016 8.96813C135.016 8.58284 134.904 8.2772 134.678 8.05121C134.452 7.82533 134.153 7.71233 133.783 7.71233C133.464 7.71233 133.174 7.77536 132.911 7.9013C132.648 8.02711 132.435 8.14569 132.272 8.25691L132.361 7.71233C132.531 7.89762 132.67 8.08278 132.777 8.26794C132.885 8.45322 132.99 8.67174 133.094 8.92362C133.198 9.1756 133.32 9.49786 133.461 9.89039L134.027 11.4684ZM137.317 12.402V10.9684L137.539 10.7462H139.595L138.95 11.0461C138.861 10.9572 138.8 10.8072 138.767 10.596C138.734 10.3849 138.717 10.1239 138.717 9.81265V4.14518L140.551 3.94507H140.673V10.3349C140.673 10.4832 140.675 10.6665 140.678 10.8851C140.682 11.1036 140.69 11.3184 140.701 11.5296C140.712 11.7407 140.732 11.913 140.762 12.0464V12.1353C140.54 12.2242 140.269 12.2908 139.951 12.3353C139.632 12.3797 139.239 12.402 138.773 12.402H137.317ZM142.429 4.15623L144.44 3.95622L144.473 4.04513C144.444 4.17842 144.424 4.34519 144.412 4.54519C144.401 4.74519 144.394 4.94887 144.39 5.15635C144.386 5.36383 144.385 5.54163 144.385 5.68976V12.402H142.429V4.15623ZM150.022 11.7797L149.3 9.80148C149.248 9.66071 149.172 9.4867 149.072 9.27923C148.972 9.07175 148.865 8.85323 148.75 8.62355C148.635 8.39388 148.52 8.18462 148.406 7.99566C148.291 7.8067 148.189 7.66426 148.1 7.56788L148.067 7.44563C148.378 7.20112 148.726 6.97702 149.111 6.77322C149.496 6.56954 149.906 6.40847 150.339 6.28989C150.773 6.17132 151.204 6.11208 151.634 6.11208C152.226 6.11208 152.738 6.21761 153.167 6.42877C153.597 6.63993 153.929 6.92705 154.162 7.29002C154.395 7.6531 154.512 8.06795 154.512 8.53466C154.512 8.85323 154.445 9.17359 154.312 9.49584C154.179 9.81822 153.999 10.109 153.773 10.3683C153.547 10.6276 153.29 10.8239 153.001 10.9572L152.689 10.7462H155.379V12.1797L155.157 12.402H151.245C150.763 12.402 150.38 12.4556 150.095 12.5632C149.809 12.6705 149.609 12.8057 149.495 12.9687C149.38 13.1317 149.319 13.2984 149.311 13.4688L149.267 13.1354C149.348 13.3207 149.498 13.4484 149.717 13.5188C149.935 13.5892 150.234 13.6243 150.611 13.6243H152.99V13.7466L152.423 15.2469H150.411C149.863 15.2469 149.387 15.1616 148.983 14.9912C148.58 14.8209 148.268 14.58 148.05 14.2689C147.831 13.9577 147.722 13.5836 147.722 13.1466C147.722 12.902 147.768 12.6631 147.861 12.4298C147.954 12.1963 148.098 11.9814 148.294 11.7851C148.491 11.5889 148.739 11.4148 149.039 11.2629C149.339 11.111 149.704 11.0017 150.134 10.935L150.022 11.7797ZM151.689 11.4684L150.867 10.9684C151.104 10.887 151.332 10.7776 151.55 10.6405C151.769 10.5035 151.962 10.3443 152.128 10.1627C152.295 9.9812 152.428 9.77751 152.528 9.55152C152.628 9.32552 152.678 9.07923 152.678 8.81252C152.678 8.44944 152.564 8.15685 152.334 7.93466C152.104 7.71234 151.808 7.60123 151.445 7.60123C151.126 7.60123 150.836 7.66426 150.573 7.79008C150.309 7.91601 150.093 8.03459 149.922 8.14569L150.022 7.59008C150.193 7.77536 150.332 7.96052 150.439 8.14569C150.547 8.33097 150.65 8.55127 150.75 8.80694C150.85 9.06249 150.971 9.38664 151.112 9.77929L151.689 11.4684ZM157.49 10.7462V12.1797L157.268 12.402H154.934V10.9684L155.157 10.7462H157.49ZM159.824 10.7462V12.1797L159.602 12.402H157.268V10.9684L157.49 10.7462H159.824ZM161.746 10.7462L162.202 12.402H159.602V10.9684L159.824 10.7462H161.746ZM167.558 12.402C167.055 12.402 166.632 12.3278 166.292 12.1797C165.951 12.0315 165.66 11.8055 165.419 11.5018C165.178 11.1981 164.947 10.8054 164.725 10.3239L163.869 8.31245L164.536 8.5013C164.232 8.50877 163.954 8.55875 163.702 8.65133C163.45 8.74404 163.232 8.86439 163.047 9.01252C162.861 9.16065 162.721 9.3292 162.624 9.51816C162.528 9.707 162.48 9.90155 162.48 10.1015C162.48 10.3609 162.554 10.5776 162.702 10.7516C162.85 10.9258 163.043 11.0573 163.28 11.1462C163.517 11.2351 163.765 11.2796 164.024 11.2796C164.351 11.2796 164.66 11.2426 164.952 11.1684C165.245 11.0943 165.48 11.0129 165.658 10.924L165.88 11.0351L165.425 12.6242C165.128 12.7501 164.83 12.8483 164.53 12.9188C164.23 12.989 163.947 13.0243 163.68 13.0243C163.443 13.0243 163.186 12.9965 162.908 12.941C162.63 12.8854 162.358 12.7927 162.091 12.6631C161.824 12.5335 161.582 12.3631 161.363 12.1519C161.144 11.9407 160.969 11.6796 160.835 11.3685C160.702 11.0573 160.635 10.6905 160.635 10.2683C160.635 9.68303 160.763 9.1718 161.019 8.73477C161.274 8.29762 161.617 7.93097 162.046 7.63459C162.476 7.33821 162.956 7.11588 163.486 6.96775C164.015 6.81962 164.551 6.74556 165.091 6.74556L165.302 6.86781L166.225 9.30142C166.403 9.77561 166.621 10.1349 166.881 10.3794C167.14 10.6239 167.44 10.7462 167.781 10.7462V12.1797L167.558 12.402ZM170.114 10.7462V12.1797L169.892 12.402H167.558V10.9684L167.781 10.7462H170.114ZM172.448 10.7462V12.1797L172.226 12.402H169.892V10.9684L170.114 10.7462H172.448ZM174.782 10.7462V12.1797L174.56 12.402H172.226V10.9684L172.448 10.7462H174.782ZM174.56 12.402V10.9684L174.782 10.7462H180.249L179.838 10.9795C179.431 10.7647 178.997 10.4776 178.538 10.1182C178.079 9.75888 177.61 9.34404 177.132 8.87353C176.654 8.40314 176.178 7.89762 175.704 7.35672L176.815 5.87873H176.938C177.841 6.84182 178.627 7.63826 179.294 8.26794C179.96 8.89774 180.527 9.394 180.994 9.75709C181.46 10.1202 181.846 10.3757 182.149 10.5239C182.453 10.672 182.69 10.7462 182.861 10.7462H183.161V12.1797L182.938 12.402H174.56ZM177.226 14.28C177.226 13.9986 177.314 13.7818 177.488 13.63C177.662 13.4781 177.871 13.4021 178.115 13.4021C178.36 13.4021 178.567 13.4781 178.738 13.63C178.908 13.7818 178.993 13.9986 178.993 14.28C178.993 14.5542 178.908 14.769 178.738 14.9245C178.567 15.0801 178.36 15.158 178.115 15.158C177.871 15.158 177.662 15.0801 177.488 14.9245C177.314 14.769 177.226 14.5542 177.226 14.28ZM184.972 5.78983V5.05641L187.817 4.13403H187.928V4.86745L185.094 5.78983H184.972ZM184.861 10.7462L185.317 12.402H182.716V10.9684L182.938 10.7462H184.861ZM190.673 12.402C190.169 12.402 189.747 12.3278 189.406 12.1797C189.065 12.0315 188.775 11.8055 188.534 11.5018C188.293 11.1981 188.061 10.8054 187.839 10.3239L186.984 8.31245L187.65 8.5013C187.347 8.50877 187.069 8.55875 186.817 8.65133C186.565 8.74404 186.346 8.86439 186.161 9.01252C185.976 9.16065 185.835 9.3292 185.739 9.51816C185.643 9.707 185.594 9.90155 185.594 10.1015C185.594 10.3609 185.669 10.5776 185.817 10.7516C185.965 10.9258 186.158 11.0573 186.395 11.1462C186.632 11.2351 186.88 11.2796 187.139 11.2796C187.465 11.2796 187.774 11.2426 188.067 11.1684C188.36 11.0943 188.595 11.0129 188.773 10.924L188.995 11.0351L188.539 12.6242C188.243 12.7501 187.945 12.8483 187.645 12.9188C187.345 12.989 187.061 13.0243 186.795 13.0243C186.558 13.0243 186.3 12.9965 186.022 12.941C185.745 12.8854 185.472 12.7927 185.206 12.6631C184.939 12.5335 184.696 12.3631 184.478 12.1519C184.259 11.9407 184.083 11.6796 183.95 11.3685C183.816 11.0573 183.75 10.6905 183.75 10.2683C183.75 9.68303 183.878 9.1718 184.133 8.73477C184.389 8.29762 184.731 7.93097 185.161 7.63459C185.591 7.33821 186.07 7.11588 186.6 6.96775C187.13 6.81962 187.665 6.74556 188.206 6.74556L188.417 6.86781L189.339 9.30142C189.517 9.77561 189.736 10.1349 189.995 10.3794C190.254 10.6239 190.554 10.7462 190.895 10.7462V12.1797L190.673 12.402ZM190.673 12.402V10.9684L190.895 10.7462H192.951L192.307 11.0461C192.218 10.9572 192.157 10.8072 192.123 10.596C192.09 10.3849 192.073 10.1239 192.073 9.81265V4.14518L193.907 3.94507H194.029V10.3349C194.029 10.4832 194.031 10.6665 194.035 10.8851C194.038 11.1036 194.046 11.3184 194.057 11.5296C194.068 11.7407 194.088 11.913 194.118 12.0464V12.1353C193.896 12.2242 193.625 12.2908 193.307 12.3353C192.988 12.3797 192.595 12.402 192.129 12.402H190.673ZM195.785 4.15623L197.796 3.95622L197.83 4.04513C197.8 4.17842 197.78 4.34519 197.769 4.54519C197.757 4.74519 197.75 4.94887 197.746 5.15635C197.743 5.36383 197.741 5.54163 197.741 5.68976V12.402H195.785V4.15623Z" fill="black"/>
<path d="M6.35673 31.8243C5.66771 31.8243 4.9769 31.8058 4.2842 31.7687C3.59149 31.7317 2.85985 31.6168 2.0894 31.4243C1.94863 31.3872 1.79302 31.3446 1.6227 31.2964C1.45225 31.2483 1.28928 31.1983 1.13367 31.1464C0.978175 31.0945 0.85224 31.0465 0.755859 31.002L1.15599 29.4239H1.27812C1.35967 29.4609 1.47456 29.5072 1.6227 29.5628C1.77083 29.6184 1.91718 29.6684 2.06163 29.7129C2.20608 29.7573 2.31908 29.7943 2.40062 29.824C2.77843 29.9351 3.20431 30.0148 3.6785 30.063C4.15268 30.1111 4.62307 30.1407 5.0899 30.1517C5.55661 30.1629 5.97893 30.1685 6.35673 30.1685H8.67924L8.25704 30.4241C7.93846 30.1796 7.66986 29.8703 7.45133 29.4962C7.23281 29.1221 7.1235 28.6905 7.1235 28.2016C7.1235 27.6459 7.26048 27.1699 7.53466 26.7736C7.80885 26.3772 8.19033 26.0716 8.67924 25.8568C9.16826 25.6419 9.72388 25.5345 10.3462 25.5345C10.724 25.5345 11.1371 25.5733 11.5854 25.6511C12.0336 25.7289 12.4724 25.8419 12.9022 25.9901L12.9466 26.079C12.9169 26.2124 12.8947 26.3902 12.8799 26.6124C12.8651 26.8347 12.854 27.0606 12.8466 27.2904C12.8391 27.52 12.8355 27.7089 12.8355 27.857V31.4687L12.7909 31.5576C12.5688 31.6465 12.2928 31.7132 11.9632 31.7577C11.6334 31.8021 11.2352 31.8243 10.7685 31.8243H6.35673ZM9.04601 28.2571C9.04601 28.5979 9.14607 28.9221 9.34607 29.2295C9.54607 29.5369 9.82204 29.7889 10.174 29.9851C10.5259 30.1814 10.9388 30.2797 11.413 30.2797L10.8796 30.9242V28.2571C10.8796 27.9607 10.8944 27.7052 10.9241 27.4904C10.9537 27.2755 10.9907 27.0755 11.0352 26.8902L11.213 27.3126C11.1388 27.2904 11.0556 27.2644 10.963 27.2347C10.8703 27.205 10.7685 27.1774 10.6574 27.1514C10.5462 27.1255 10.4129 27.1126 10.2573 27.1126C9.87949 27.1126 9.5831 27.2254 9.36827 27.4514C9.15343 27.6774 9.04601 27.9459 9.04601 28.2571ZM10.1572 24.89C9.91284 24.89 9.70535 24.8121 9.53491 24.6565C9.36458 24.501 9.27936 24.2824 9.27936 24.001C9.27936 23.7194 9.36458 23.5027 9.53491 23.3507C9.70535 23.1989 9.91284 23.123 10.1572 23.123C10.4017 23.123 10.6092 23.1989 10.7795 23.3507C10.95 23.5027 11.0352 23.7194 11.0352 24.001C11.0352 24.2824 10.95 24.501 10.7795 24.6565C10.6092 24.8121 10.4017 24.89 10.1572 24.89ZM17.9807 31.8243V30.1685H19.7921V31.6021L19.5697 31.8243H17.9807ZM13.7356 32.9134C13.9282 32.9578 14.1208 32.9967 14.3135 33.0301C14.5061 33.0635 14.6987 33.0801 14.8914 33.0801C15.1876 33.0801 15.4526 33.043 15.6859 32.969C15.9193 32.8948 16.0915 32.8208 16.2026 32.7467L15.7471 33.2023C15.8729 33.017 15.9785 32.7819 16.0637 32.4967C16.149 32.2115 16.2138 31.8744 16.2582 31.4853C16.3027 31.0964 16.3249 30.6538 16.3249 30.1574C16.3249 29.5203 16.2952 28.9146 16.236 28.3405C16.1767 27.7663 16.11 27.2237 16.036 26.7124L17.9251 26.5124H18.0474C18.1141 27.0162 18.1696 27.5718 18.214 28.1793C18.2585 28.7869 18.2807 29.4017 18.2807 30.024C18.2807 30.876 18.1955 31.6002 18.0252 32.1966C17.8547 32.7929 17.6084 33.2764 17.2862 33.6468C16.9639 34.0172 16.575 34.2877 16.1193 34.458C15.6637 34.6284 15.1506 34.7137 14.5802 34.7137C14.3875 34.7137 14.1857 34.7007 13.9746 34.6747C13.7634 34.6489 13.5855 34.6229 13.441 34.597C13.2966 34.571 13.2244 34.5581 13.2244 34.5581V34.447L13.7356 32.9134ZM26.1152 32.4022C25.8411 32.2541 25.5707 32.1373 25.304 32.0522C25.0373 31.967 24.7354 31.9077 24.3984 31.8744C24.0612 31.841 23.6556 31.8243 23.1814 31.8243H19.5587V30.3908L19.7809 30.1685H21.8257L21.17 30.4797C21.0886 30.3908 21.0348 30.2463 21.0089 30.0462C20.9829 29.8462 20.97 29.6017 20.97 29.3128V26.8347L22.8036 26.6347H22.9259V30.9798L22.1257 30.1685H23.1926C23.5038 30.1685 23.789 30.1926 24.0482 30.2406C24.3075 30.289 24.552 30.3611 24.7817 30.4575L24.3039 31.1354V26.4679L26.1375 26.2679H26.2596V31.4798L25.5929 30.7574C25.9782 30.7352 26.319 30.6649 26.6153 30.5464C26.9116 30.4278 27.1654 30.2797 27.3766 30.1019C27.5877 29.9241 27.7451 29.7351 27.8489 29.5351L27.6377 30.6909V26.1123L29.4713 25.9123H29.5936V28.8461C29.5936 29.4906 29.4528 30.0481 29.1712 30.5185C28.8898 30.989 28.4916 31.378 27.9767 31.6854C27.4617 31.9928 26.8413 32.2319 26.1152 32.4022ZM25.1928 23.6453C24.9631 23.6453 24.7706 23.575 24.615 23.4342C24.4594 23.2934 24.3816 23.0971 24.3816 22.8452C24.3816 22.5859 24.4594 22.3859 24.615 22.2451C24.7706 22.1043 24.9631 22.0339 25.1928 22.0339C25.4226 22.0339 25.6151 22.1043 25.7707 22.2451C25.9263 22.3859 26.0041 22.5859 26.0041 22.8452C26.0041 23.0971 25.9263 23.2934 25.7707 23.4342C25.6151 23.575 25.4226 23.6453 25.1928 23.6453ZM26.3485 25.3233C26.1115 25.3233 25.9059 25.2456 25.7319 25.09C25.5578 24.9344 25.4707 24.7159 25.4707 24.4343C25.4707 24.1601 25.5578 23.9472 25.7319 23.7953C25.9059 23.6434 26.1152 23.5675 26.3597 23.5675C26.6042 23.5675 26.8117 23.6434 26.982 23.7953C27.1524 23.9472 27.2376 24.1601 27.2376 24.4343C27.2376 24.7159 27.1524 24.9344 26.982 25.09C26.8117 25.2456 26.6005 25.3233 26.3485 25.3233ZM24.3371 25.5345C24.0927 25.5345 23.8853 25.4566 23.7148 25.3011C23.5445 25.1455 23.4593 24.9269 23.4593 24.6455C23.4593 24.3713 23.5445 24.1564 23.7148 24.001C23.8853 23.8453 24.0927 23.7675 24.3371 23.7675C24.5817 23.7675 24.7891 23.8453 24.9595 24.001C25.1299 24.1564 25.2151 24.3713 25.2151 24.6455C25.2151 24.9269 25.1318 25.1455 24.9652 25.3011C24.7984 25.4566 24.5891 25.5345 24.3371 25.5345ZM32.2828 31.8243C31.8753 31.8243 31.5587 31.6854 31.3327 31.4075C31.1067 31.1297 30.9938 30.7427 30.9938 30.2463C31.1123 30.1796 31.2345 30.087 31.3604 29.9685C31.4864 29.8499 31.6327 29.6721 31.7995 29.4351C31.9662 29.198 32.1681 28.8683 32.4051 28.446L33.2052 27.0792V28.4683L31.2048 25.0011V24.8788H33.0718L34.0831 26.7236L33.3497 26.8125L35.3389 23.3786H37.228V23.5008L34.072 29.124C33.909 29.4129 33.7683 29.637 33.6497 29.7962C33.5311 29.9555 33.42 30.074 33.3163 30.1517C33.2126 30.2296 33.1052 30.2982 32.9941 30.3574L32.505 30.1685H35.5389L35.55 31.4576L34.5166 29.624L35.0944 28.6349H35.1833L36.928 31.5576V31.6465C36.8539 31.7132 36.7521 31.7595 36.6224 31.7853C36.4927 31.8113 36.3427 31.8243 36.1724 31.8243H32.2828ZM30.7826 22.7563C30.7826 22.4673 30.8586 22.2025 31.0104 21.9617C31.1622 21.7209 31.3772 21.5283 31.6551 21.3838C31.9328 21.2393 32.2643 21.1671 32.6496 21.1671H33.3163V21.2672L32.9719 22.2895H32.6606C32.431 22.2895 32.242 22.3284 32.0939 22.4062C31.9457 22.4839 31.8383 22.6488 31.7716 22.9008L31.7383 22.534C31.8124 22.7193 31.918 22.8433 32.0551 22.9062C32.192 22.9693 32.3495 23.0007 32.5273 23.0007H33.3163V23.1008L32.9829 24.1009H32.2273C31.9457 24.1009 31.6956 24.0398 31.4772 23.9175C31.2586 23.7953 31.0883 23.6323 30.966 23.4286C30.8438 23.2248 30.7826 23.0007 30.7826 22.7563ZM38.0503 23.5786L40.0618 23.3786L40.0951 23.4675C40.0654 23.6008 40.0451 23.7675 40.034 23.9676C40.0229 24.1676 40.0155 24.3713 40.0118 24.5788C40.0081 24.7863 40.0062 24.9641 40.0062 25.1122V31.8243H38.0503V23.5786ZM52.2903 25.5345C52.883 25.5345 53.4015 25.6475 53.8461 25.8734C54.2906 26.0994 54.6388 26.4068 54.8907 26.7958C55.1426 27.1847 55.2685 27.6163 55.2685 28.0904C55.2685 28.6313 55.1445 29.1035 54.8963 29.5072C54.6481 29.911 54.3314 30.2722 53.9461 30.5908L53.535 30.1685H56.1687V31.6021L55.9464 31.8243H53.9683C53.4646 31.8243 53.0312 31.7577 52.6681 31.6243C52.305 31.491 51.9903 31.302 51.7236 31.0575L53.157 31.0131C52.757 31.3095 52.3329 31.5186 51.8847 31.6409C51.4364 31.7631 50.9419 31.8243 50.4012 31.8243H48.6453C47.9711 31.8243 47.2821 31.8058 46.5784 31.7687C45.8745 31.7317 45.1374 31.6168 44.3668 31.4243C44.2261 31.3872 44.0706 31.3446 43.9001 31.2964C43.7298 31.2483 43.5668 31.1983 43.4112 31.1464C43.2556 31.0945 43.1297 31.0465 43.0334 31.002L43.4334 29.4239H43.5557C43.6371 29.4609 43.752 29.5072 43.9001 29.5628C44.0482 29.6184 44.1947 29.6684 44.3392 29.7129C44.4836 29.7573 44.5966 29.7943 44.678 29.824C45.0633 29.9351 45.4911 30.0148 45.9616 30.063C46.432 30.1111 46.9043 30.1407 47.3785 30.1517C47.8527 30.1629 48.2749 30.1685 48.6453 30.1685H51.2345L50.79 30.5908C50.3752 30.2574 50.0251 29.8759 49.7399 29.4462C49.4547 29.0164 49.312 28.5497 49.312 28.046C49.312 27.6904 49.3899 27.3606 49.5455 27.0569C49.701 26.7533 49.9158 26.4883 50.19 26.2623C50.4641 26.0363 50.7808 25.8585 51.1402 25.7289C51.4995 25.5993 51.8828 25.5345 52.2903 25.5345ZM50.6567 28.446L50.8345 27.0013C50.9012 27.4237 51.0087 27.8107 51.1568 28.1626C51.3049 28.5146 51.4717 28.8239 51.6568 29.0906C51.8421 29.3573 52.0273 29.5795 52.2125 29.7573C52.3977 29.9351 52.5607 30.0649 52.7015 30.1463L52.1125 30.3019C52.3496 30.1685 52.5607 29.9963 52.7459 29.7851C52.9312 29.5739 53.0793 29.3406 53.1904 29.085C53.3016 28.8294 53.3572 28.5719 53.3572 28.3127C53.3572 28.1052 53.3145 27.9108 53.2293 27.7292C53.1441 27.5477 53.0201 27.3996 52.8571 27.2847C52.694 27.1699 52.4978 27.1126 52.2681 27.1126C52.0903 27.1126 51.8995 27.1552 51.6958 27.2403C51.492 27.3255 51.3012 27.4645 51.1234 27.657C50.9456 27.8497 50.79 28.1127 50.6567 28.446ZM52.2236 24.89C51.9791 24.89 51.7716 24.8121 51.6013 24.6565C51.431 24.501 51.3457 24.2824 51.3457 24.001C51.3457 23.7194 51.431 23.5027 51.6013 23.3507C51.7716 23.1989 51.9791 23.123 52.2236 23.123C52.4681 23.123 52.6756 23.1989 52.8459 23.3507C53.0163 23.5027 53.1015 23.7194 53.1015 24.001C53.1015 24.2824 53.0163 24.501 52.8459 24.6565C52.6756 24.8121 52.4681 24.89 52.2236 24.89ZM55.7242 31.8243V30.3908L55.9464 30.1685H61.4139L61.0027 30.4018C60.5952 30.1871 60.1618 29.9 59.7025 29.5406C59.2432 29.1813 58.7746 28.7665 58.2968 28.2959C57.8189 27.8256 57.3429 27.3199 56.8688 26.7791L57.9801 25.3011H58.1022C59.0061 26.2642 59.7914 27.0606 60.4582 27.6904C61.1249 28.3202 61.6917 28.8164 62.1584 29.1795C62.6252 29.5425 63.0105 29.7982 63.3141 29.9463C63.6179 30.0944 63.855 30.1685 64.0254 30.1685H64.3254V31.6021L64.1032 31.8243H55.7242ZM58.3913 33.7024C58.3913 33.4208 58.4783 33.2041 58.6524 33.0523C58.8265 32.9005 59.0358 32.8245 59.2803 32.8245C59.5247 32.8245 59.7322 32.9005 59.9026 33.0523C60.0729 33.2041 60.1581 33.4208 60.1581 33.7024C60.1581 33.9766 60.0729 34.1913 59.9026 34.3469C59.7322 34.5025 59.5247 34.5803 59.2803 34.5803C59.0358 34.5803 58.8265 34.5025 58.6524 34.3469C58.4783 34.1913 58.3913 33.9766 58.3913 33.7024ZM64.1032 30.1685H66.1924L65.5367 30.4685C65.4478 30.3796 65.3868 30.2296 65.3534 30.0184C65.3201 29.8073 65.3033 29.5462 65.3033 29.2351V26.079L67.137 25.8789H67.2592V30.9686L66.4702 30.1685H68.6928V31.6021L68.4705 31.8243H63.8809V30.3908L64.1032 30.1685ZM66.2591 25.0678C66.0146 25.0678 65.8071 24.9899 65.6368 24.8343C65.4664 24.6788 65.3812 24.4602 65.3812 24.1788C65.3812 23.8972 65.4664 23.6805 65.6368 23.5286C65.8071 23.3767 66.0146 23.3008 66.2591 23.3008C66.5036 23.3008 66.7111 23.3767 66.8814 23.5286C67.0517 23.6805 67.137 23.8972 67.137 24.1788C67.137 24.4602 67.0517 24.6788 66.8814 24.8343C66.7111 24.9899 66.5036 25.0678 66.2591 25.0678ZM68.4705 31.8243V30.3908L68.6928 30.1685H70.7486L70.1041 30.4685C70.0152 30.3796 69.9541 30.2296 69.9208 30.0184C69.8875 29.8073 69.8707 29.5462 69.8707 29.2351V23.5675L71.7043 23.3675H71.8266V29.7573C71.8266 29.9054 71.8284 30.0888 71.8322 30.3074C71.8359 30.526 71.8433 30.7408 71.8544 30.9519C71.8655 31.163 71.8858 31.3354 71.9155 31.4687V31.5576C71.6932 31.6465 71.4228 31.7132 71.1042 31.7577C70.7856 31.8021 70.393 31.8243 69.9263 31.8243H68.4705ZM73.5823 23.5786L75.5937 23.3786L75.6271 23.4675C75.5974 23.6008 75.5771 23.7675 75.5661 23.9676C75.5549 24.1676 75.5476 24.3713 75.5439 24.5788C75.5401 24.7863 75.5382 24.9641 75.5382 25.1122V31.8243H73.5823V23.5786ZM82.066 30.1685H84.3551L83.9329 30.5464C83.6142 30.2944 83.3438 29.9926 83.1216 29.6406C82.8993 29.2887 82.7882 28.8869 82.7882 28.4349C82.7882 27.8423 82.9272 27.3402 83.205 26.9291C83.4828 26.5179 83.8718 26.2031 84.3718 25.9845C84.8719 25.766 85.4516 25.6568 86.111 25.6568C86.3332 25.6568 86.5796 25.6734 86.85 25.7067C87.1203 25.74 87.4037 25.7901 87.7001 25.8568C87.9964 25.9235 88.289 26.0049 88.578 26.1013L88.6224 26.1902C88.5928 26.3235 88.5687 26.5013 88.5503 26.7236C88.5317 26.9458 88.5188 27.1718 88.5113 27.4015C88.5039 27.6311 88.5002 27.8201 88.5002 27.9682V31.4687L88.4558 31.5576C88.2335 31.6465 87.9594 31.7132 87.6333 31.7577C87.3074 31.8021 86.9111 31.8243 86.4444 31.8243H81.8436V30.3908L82.066 30.1685ZM84.7107 28.3349C84.7107 28.7275 84.8183 29.072 85.033 29.3684C85.2478 29.6647 85.5349 29.8962 85.8943 30.063C86.2536 30.2296 86.6481 30.3129 87.0777 30.3129L86.5443 31.0353V28.3682C86.5443 28.0718 86.5592 27.8163 86.5888 27.6015C86.6185 27.3866 86.6555 27.1903 86.6999 27.0125L86.8777 27.4348C86.811 27.4125 86.7314 27.3847 86.6388 27.3514C86.5462 27.318 86.4407 27.2885 86.3221 27.2625C86.2035 27.2366 86.0628 27.2236 85.8998 27.2236C85.522 27.2236 85.2294 27.3199 85.0219 27.5126C84.8145 27.7052 84.7107 27.9793 84.7107 28.3349ZM85.8109 24.901C85.5664 24.901 85.3589 24.8233 85.1886 24.6677C85.0183 24.5121 84.933 24.2972 84.933 24.0232C84.933 23.7416 85.0183 23.5231 85.1886 23.3675C85.3589 23.2119 85.5664 23.1341 85.8109 23.1341C86.0554 23.1341 86.2629 23.2119 86.4332 23.3675C86.6035 23.5231 86.6888 23.7416 86.6888 24.0232C86.6888 24.2972 86.6035 24.5121 86.4332 24.6677C86.2629 24.8233 86.0554 24.901 85.8109 24.901ZM86.7333 33.5579C86.7333 33.2764 86.8203 33.0597 86.9944 32.9078C87.1685 32.7559 87.3778 32.6799 87.6223 32.6799C87.8668 32.6799 88.0743 32.7559 88.2446 32.9078C88.4149 33.0597 88.5002 33.2764 88.5002 33.5579C88.5002 33.832 88.4149 34.0468 88.2446 34.2024C88.0743 34.3581 87.8668 34.4358 87.6223 34.4358C87.3778 34.4358 87.1685 34.3581 86.9944 34.2024C86.8203 34.0468 86.7333 33.832 86.7333 33.5579ZM84.7219 33.7913C84.7219 33.5097 84.8071 33.293 84.9774 33.1412C85.1479 32.9893 85.3552 32.9134 85.5997 32.9134C85.8517 32.9134 86.061 32.9893 86.2276 33.1412C86.3944 33.293 86.4777 33.5097 86.4777 33.7913C86.4777 34.0655 86.3944 34.2802 86.2276 34.4358C86.061 34.5914 85.8517 34.6692 85.5997 34.6692C85.3552 34.6692 85.1479 34.5914 84.9774 34.4358C84.8071 34.2802 84.7219 34.0655 84.7219 33.7913ZM86.0554 30.1685V31.6021L85.8331 31.8243H81.9214C81.4325 31.8243 81.0417 31.8744 80.749 31.9744C80.4564 32.0744 80.2509 32.2059 80.1323 32.3688C80.0137 32.5318 79.9693 32.7059 79.9989 32.8911L79.8767 32.5578C79.9804 32.743 80.1712 32.8708 80.4491 32.9412C80.7268 33.0116 81.1065 33.0467 81.5881 33.0467H84.3441V33.169L83.7773 34.6692H81.0325C80.5656 34.6692 80.1248 34.5932 79.71 34.4414C79.2951 34.2896 78.9599 34.0655 78.7044 33.7691C78.4487 33.4727 78.3209 33.1059 78.3209 32.6689C78.3209 32.3355 78.3932 32.0207 78.5376 31.7243C78.6821 31.428 78.9062 31.163 79.2099 30.9297C79.5137 30.6963 79.9007 30.5112 80.3712 30.3741C80.8416 30.2371 81.4066 30.1685 82.066 30.1685H86.0554ZM94.1278 31.3909L92.8609 33.6912H90.7716V33.569L92.9609 30.1796L94.1278 31.3909ZM99.2062 31.8243C98.6951 31.8243 98.2691 31.7502 97.9282 31.6021C97.5875 31.454 97.2986 31.228 97.0615 30.9242C96.8245 30.6205 96.5912 30.2277 96.3614 29.7463L95.5168 27.7348L96.2503 27.9237C95.9317 27.9312 95.6409 27.9812 95.378 28.0737C95.1149 28.1663 94.8908 28.2868 94.7056 28.4349C94.5204 28.5831 94.3778 28.7516 94.2778 28.9405C94.1778 29.1294 94.1278 29.324 94.1278 29.524C94.1278 29.7832 94.2 29.9999 94.3445 30.1741C94.4889 30.3482 94.6797 30.4797 94.9167 30.5686C95.1538 30.6575 95.4057 30.7019 95.6724 30.7019C95.9984 30.7019 96.3077 30.6649 96.6004 30.5908C96.893 30.5167 97.1281 30.4352 97.3059 30.3463L97.5282 30.4575L97.0726 32.0466C96.7762 32.1725 96.4763 32.2707 96.1725 32.3411C95.8688 32.4115 95.5872 32.4466 95.3279 32.4466C95.0835 32.4466 94.8241 32.4189 94.5501 32.3634C94.2759 32.3077 94.0036 32.2151 93.7333 32.0855C93.4628 31.9558 93.2183 31.7853 92.9998 31.5742C92.7813 31.3631 92.6071 31.102 92.4775 30.7908C92.3478 30.4797 92.283 30.1129 92.283 29.6906C92.283 29.1053 92.4108 28.5942 92.6665 28.1571C92.922 27.72 93.2646 27.3533 93.6943 27.0569C94.1241 26.7605 94.6019 26.5383 95.1279 26.3902C95.6538 26.242 96.1872 26.1679 96.7281 26.1679L96.9393 26.2901L97.8617 28.7238C98.0468 29.198 98.2673 29.5573 98.5229 29.8018C98.7785 30.0462 99.0803 30.1685 99.4286 30.1685V31.6021L99.2062 31.8243ZM99.2062 31.8243V30.3908L99.4286 30.1685H101.484L100.84 30.4685C100.751 30.3796 100.69 30.224 100.656 30.0018C100.623 29.7795 100.606 29.5128 100.606 29.2017V26.079L102.44 25.8789H102.562V29.7573C102.562 29.9054 102.564 30.0888 102.568 30.3074C102.571 30.526 102.579 30.7408 102.59 30.9519C102.601 31.163 102.621 31.3354 102.651 31.4687V31.5576C102.429 31.6465 102.158 31.7132 101.84 31.7577C101.521 31.8021 101.128 31.8243 100.662 31.8243H99.2062ZM100.906 33.469C100.906 33.1875 100.993 32.9708 101.167 32.8189C101.341 32.667 101.551 32.591 101.795 32.591C102.04 32.591 102.247 32.667 102.418 32.8189C102.588 32.9708 102.673 33.1875 102.673 33.469C102.673 33.7431 102.588 33.9579 102.418 34.1136C102.247 34.2692 102.04 34.3469 101.795 34.3469C101.551 34.3469 101.341 34.2692 101.167 34.1136C100.993 33.9579 100.906 33.7431 100.906 33.469ZM98.8951 33.6912C98.8951 33.4172 98.9804 33.2041 99.1507 33.0523C99.321 32.9005 99.5322 32.8245 99.7842 32.8245C100.028 32.8245 100.234 32.9005 100.401 33.0523C100.567 33.2041 100.651 33.4172 100.651 33.6912C100.651 33.9728 100.567 34.1913 100.401 34.3469C100.234 34.5025 100.025 34.5803 99.773 34.5803C99.5285 34.5803 99.321 34.5025 99.1507 34.3469C98.9804 34.1913 98.8951 33.9728 98.8951 33.6912ZM107.707 31.8243V30.1685H109.519V31.6021L109.296 31.8243H107.707ZM103.462 32.9134C103.655 32.9578 103.847 32.9967 104.04 33.0301C104.233 33.0635 104.425 33.0801 104.618 33.0801C104.914 33.0801 105.179 33.043 105.413 32.969C105.646 32.8948 105.818 32.8208 105.929 32.7467L105.474 33.2023C105.599 33.017 105.705 32.7819 105.79 32.4967C105.875 32.2115 105.94 31.8744 105.985 31.4853C106.029 31.0964 106.051 30.6538 106.051 30.1574C106.051 29.5203 106.022 28.9146 105.963 28.3405C105.903 27.7663 105.837 27.2237 105.763 26.7124L107.652 26.5124H107.774C107.841 27.0162 107.896 27.5718 107.941 28.1793C107.985 28.7869 108.007 29.4017 108.007 30.024C108.007 30.876 107.922 31.6002 107.752 32.1966C107.581 32.7929 107.335 33.2764 107.013 33.6468C106.691 34.0172 106.302 34.2877 105.846 34.458C105.39 34.6284 104.877 34.7137 104.307 34.7137C104.114 34.7137 103.912 34.7007 103.701 34.6747C103.49 34.6489 103.312 34.6229 103.168 34.597C103.023 34.571 102.951 34.5581 102.951 34.5581V34.447L103.462 32.9134ZM118.898 31.8243L119.942 30.1685H123.321V31.6021L123.098 31.8243H118.898ZM109.296 31.8243L109.308 30.3908L109.53 30.1685H118.898C119.416 30.1685 119.772 30.1019 119.965 29.9685C120.157 29.8352 120.254 29.6351 120.254 29.3684C120.254 29.1462 120.204 28.9331 120.104 28.7294C120.004 28.5256 119.887 28.3571 119.753 28.2238L120.565 28.2905C120.254 28.3646 119.987 28.4201 119.765 28.4571C119.542 28.4942 119.337 28.5202 119.148 28.5349C118.959 28.5497 118.75 28.5572 118.52 28.5572H111.652C111.304 28.5572 111.006 28.4627 110.758 28.2737C110.51 28.0848 110.363 27.7534 110.319 27.2792L114.83 23.223H114.942L115.708 24.401L112.275 27.4125L111.997 26.9014H118.864C119.213 26.9014 119.557 26.892 119.898 26.8735C120.239 26.8551 120.52 26.8198 120.743 26.768H120.876C121.061 26.9383 121.248 27.1514 121.437 27.4069C121.626 27.6626 121.787 27.9422 121.921 28.246C122.054 28.5497 122.121 28.8573 122.121 29.1684C122.121 29.5091 122.046 29.8315 121.898 30.1351C121.75 30.4389 121.495 30.7094 121.132 30.9464L120.698 31.5909C120.498 31.6651 120.268 31.7224 120.009 31.7631C119.75 31.804 119.457 31.8243 119.131 31.8243H109.296ZM123.098 31.8243V30.3908L123.321 30.1685H125.377L124.732 30.4685C124.643 30.3796 124.582 30.2296 124.549 30.0184C124.515 29.8073 124.499 29.5462 124.499 29.2351V23.5675L126.332 23.3675H126.455V29.7573C126.455 29.9054 126.456 30.0888 126.46 30.3074C126.464 30.526 126.471 30.7408 126.482 30.9519C126.493 31.163 126.514 31.3354 126.543 31.4687V31.5576C126.321 31.6465 126.051 31.7132 125.732 31.7577C125.414 31.8021 125.021 31.8243 124.554 31.8243H123.098ZM128.21 23.5786L130.222 23.3786L130.255 23.4675C130.225 23.6008 130.205 23.7675 130.194 23.9676C130.183 24.1676 130.175 24.3713 130.172 24.5788C130.168 24.7863 130.166 24.9641 130.166 25.1122V31.8243H128.21V23.5786ZM133.004 31.9577C133.227 32.2169 133.464 32.4263 133.716 32.5856C133.968 32.7449 134.225 32.8577 134.488 32.9245C134.751 32.9912 134.997 33.0245 135.227 33.0245C135.442 33.0245 135.631 32.9875 135.794 32.9134C135.957 32.8392 136.09 32.7912 136.194 32.7689L135.716 33.2134C135.842 33.0282 135.947 32.7856 136.033 32.4855C136.118 32.1856 136.181 31.8484 136.222 31.4742C136.262 31.1001 136.283 30.7167 136.283 30.3241C136.283 29.9241 136.268 29.5091 136.238 29.0795C136.209 28.6498 136.172 28.2313 136.127 27.8237C136.083 27.4162 136.027 27.0458 135.96 26.7124L137.827 26.5124H137.95C138.046 27.2162 138.118 27.8626 138.166 28.4515C138.215 29.0405 138.238 29.5648 138.238 30.024C138.238 30.8463 138.155 31.5558 137.989 32.1522C137.822 32.7486 137.589 33.2357 137.288 33.6135C136.988 33.9913 136.633 34.2692 136.222 34.447C135.81 34.6248 135.36 34.7137 134.871 34.7137C134.494 34.7137 134.153 34.6637 133.849 34.5636C133.545 34.4637 133.282 34.3432 133.06 34.2024C132.838 34.0617 132.66 33.9283 132.527 33.8025C132.393 33.6765 132.304 33.5876 132.26 33.5357L132.882 31.9577H133.004ZM134.016 30.6463C133.771 30.6463 133.564 30.5686 133.393 30.413C133.223 30.2574 133.138 30.0389 133.138 29.7573C133.138 29.4759 133.223 29.2592 133.393 29.1072C133.564 28.9554 133.771 28.8794 134.016 28.8794C134.26 28.8794 134.468 28.9554 134.638 29.1072C134.808 29.2592 134.894 29.4759 134.894 29.7573C134.894 30.0389 134.808 30.2574 134.638 30.413C134.468 30.5686 134.26 30.6463 134.016 30.6463ZM139.905 24.6899L141.917 24.4899L141.95 24.5788C141.921 24.7122 141.9 24.8788 141.889 25.0788C141.878 25.2788 141.871 25.4826 141.867 25.6901C141.863 25.8975 141.861 26.0753 141.861 26.2235V31.8243H139.905V24.6899ZM141.55 23.7453C141.35 23.7453 141.167 23.7083 141 23.6342C140.833 23.5601 140.691 23.4749 140.572 23.3786C140.454 23.2823 140.361 23.2045 140.294 23.1452L140.972 23.323C140.765 23.3378 140.565 23.3638 140.372 23.4008C140.18 23.4379 139.972 23.5453 139.75 23.7231H139.639L139.083 23.0341C139.246 22.8489 139.433 22.6971 139.644 22.5785C139.855 22.4599 140.117 22.4007 140.428 22.4007C140.665 22.4007 140.882 22.4507 141.078 22.5506C141.274 22.6507 141.439 22.7656 141.572 22.8952C141.706 23.0248 141.802 23.1305 141.861 23.2119L140.994 22.8119C141.098 22.8119 141.215 22.8044 141.345 22.7897C141.474 22.7748 141.615 22.7396 141.767 22.684C141.919 22.6285 142.072 22.5377 142.228 22.4118H142.35L142.895 23.1119C142.732 23.2971 142.545 23.4489 142.334 23.5675C142.122 23.6861 141.861 23.7453 141.55 23.7453ZM147.007 31.8243V30.1685H148.818V31.6021L148.596 31.8243H147.007ZM142.761 32.9134C142.954 32.9578 143.147 32.9967 143.339 33.0301C143.532 33.0635 143.725 33.0801 143.917 33.0801C144.213 33.0801 144.478 33.043 144.712 32.969C144.945 32.8948 145.117 32.8208 145.228 32.7467L144.773 33.2023C144.899 33.017 145.004 32.7819 145.09 32.4967C145.175 32.2115 145.24 31.8744 145.284 31.4853C145.329 31.0964 145.351 30.6538 145.351 30.1574C145.351 29.5203 145.321 28.9146 145.262 28.3405C145.203 27.7663 145.136 27.2237 145.062 26.7124L146.951 26.5124H147.073C147.14 27.0162 147.195 27.5718 147.24 28.1793C147.284 28.7869 147.307 29.4017 147.307 30.024C147.307 30.876 147.221 31.6002 147.051 32.1966C146.881 32.7929 146.634 33.2764 146.312 33.6468C145.99 34.0172 145.601 34.2877 145.145 34.458C144.69 34.6284 144.176 34.7137 143.606 34.7137C143.413 34.7137 143.212 34.7007 143 34.6747C142.789 34.6489 142.611 34.6229 142.467 34.597C142.322 34.571 142.25 34.5581 142.25 34.5581V34.447L142.761 32.9134ZM152.463 21.6228L153.007 21.256C152.963 21.1819 152.926 21.1023 152.896 21.0171C152.867 20.932 152.852 20.8375 152.852 20.7338C152.859 20.593 152.9 20.4596 152.974 20.3336C153.048 20.2078 153.167 20.1151 153.33 20.0559L153.13 20.0781C153.248 20.0856 153.348 20.13 153.43 20.2115C153.511 20.2929 153.552 20.393 153.552 20.5114C153.552 20.6448 153.502 20.7615 153.402 20.8615C153.302 20.9615 153.172 21.0375 153.013 21.0894C152.854 21.1412 152.678 21.1671 152.485 21.1671C152.241 21.1671 152.024 21.119 151.835 21.0227C151.646 20.9264 151.44 20.7968 151.218 20.6337L151.107 20.6449L150.685 21.1449C150.996 21.4338 151.305 21.6375 151.613 21.7561C151.92 21.8747 152.241 21.9339 152.574 21.9339C152.907 21.9339 153.211 21.871 153.485 21.745C153.759 21.6191 153.976 21.445 154.135 21.2227C154.295 21.0005 154.374 20.7449 154.374 20.4559C154.374 20.1818 154.284 19.9411 154.102 19.7336C153.921 19.5262 153.656 19.4224 153.307 19.4224C153.085 19.4224 152.874 19.4799 152.674 19.5946C152.474 19.7095 152.313 19.8632 152.191 20.0559C152.068 20.2484 152.007 20.467 152.007 20.7116C152.007 20.8523 152.039 21.0041 152.102 21.1671C152.165 21.3302 152.285 21.482 152.463 21.6228ZM152.507 25.5345C153.1 25.5345 153.62 25.6475 154.069 25.8734C154.517 26.0994 154.865 26.4068 155.113 26.7958C155.361 27.1847 155.486 27.6163 155.486 28.0904C155.486 28.6313 155.361 29.1035 155.113 29.5072C154.865 29.911 154.545 30.2722 154.152 30.5908L153.752 30.1685H156.386V31.6021L156.163 31.8243H154.185C153.674 31.8243 153.239 31.7577 152.88 31.6243C152.52 31.491 152.207 31.302 151.941 31.0575L153.374 31.0131C152.974 31.3095 152.548 31.5186 152.096 31.6409C151.644 31.7631 151.148 31.8243 150.607 31.8243H148.596V30.3908L148.818 30.1685H151.44L151.007 30.5908C150.592 30.2574 150.242 29.8759 149.957 29.4462C149.672 29.0164 149.529 28.5497 149.529 28.046C149.529 27.6904 149.607 27.3606 149.762 27.0569C149.918 26.7533 150.133 26.4883 150.407 26.2623C150.681 26.0363 150.998 25.8585 151.357 25.7289C151.716 25.5993 152.1 25.5345 152.507 25.5345ZM150.863 28.446L151.04 27.0013C151.107 27.4237 151.215 27.8107 151.363 28.1626C151.511 28.5146 151.68 28.8239 151.868 29.0906C152.057 29.3573 152.244 29.5795 152.43 29.7573C152.615 29.9351 152.778 30.0649 152.918 30.1463L152.329 30.3019C152.567 30.1685 152.778 29.9963 152.963 29.7851C153.148 29.5739 153.294 29.3406 153.402 29.085C153.509 28.8294 153.563 28.5719 153.563 28.3127C153.563 28.1052 153.522 27.9108 153.441 27.7292C153.359 27.5477 153.237 27.3996 153.074 27.2847C152.911 27.1699 152.715 27.1126 152.485 27.1126C152.3 27.1126 152.107 27.1552 151.907 27.2403C151.707 27.3255 151.516 27.4645 151.335 27.657C151.153 27.8497 150.996 28.1127 150.863 28.446ZM153.596 24.6233C153.359 24.6233 153.154 24.5454 152.98 24.3898C152.806 24.2343 152.718 24.0195 152.718 23.7453C152.718 23.4639 152.806 23.2471 152.98 23.0952C153.154 22.9434 153.359 22.8674 153.596 22.8674C153.848 22.8674 154.059 22.9434 154.23 23.0952C154.4 23.2471 154.485 23.4639 154.485 23.7453C154.485 24.0195 154.4 24.2343 154.23 24.3898C154.059 24.5454 153.848 24.6233 153.596 24.6233ZM151.585 24.8566C151.341 24.8566 151.133 24.7788 150.963 24.6233C150.792 24.4677 150.707 24.2528 150.707 23.9786C150.707 23.6972 150.792 23.4786 150.963 23.323C151.133 23.1675 151.341 23.0896 151.585 23.0896C151.829 23.0896 152.037 23.1675 152.207 23.323C152.378 23.4786 152.463 23.6972 152.463 23.9786C152.463 24.2528 152.378 24.4677 152.207 24.6233C152.037 24.7788 151.829 24.8566 151.585 24.8566Z" fill="black"/>
<path d="M155.941 31.8245V30.391L156.164 30.1687H158.219L157.575 30.4688C157.486 30.3799 157.425 30.2298 157.392 30.0187C157.358 29.8075 157.342 29.5464 157.342 29.2353V23.5677L159.175 23.3677H159.297V29.7576C159.297 29.9057 159.299 30.0891 159.303 30.3076C159.307 30.5262 159.314 30.7411 159.325 30.9521C159.336 31.1633 159.357 31.3356 159.386 31.4689V31.5578C159.164 31.6467 158.894 31.7134 158.575 31.7579C158.257 31.8023 157.864 31.8245 157.397 31.8245H155.941ZM161.053 23.5789L163.065 23.3789L163.098 23.4678C163.068 23.6011 163.048 23.7677 163.037 23.9678C163.026 24.1679 163.018 24.3715 163.015 24.579C163.011 24.7865 163.009 24.9643 163.009 25.1124V31.8245H161.053V23.5789ZM169.781 31.8245V30.1687H174.426V31.6023L174.204 31.8245H169.781ZM165.936 31.7024L166.525 30.1687H170.226C170.693 30.1687 171.02 30.1039 171.209 29.9743C171.398 29.8447 171.493 29.6428 171.493 29.3686C171.493 29.1464 171.441 28.9333 171.337 28.7297C171.233 28.5259 171.118 28.3573 170.993 28.224L171.793 28.2796C171.489 28.3463 171.226 28.3981 171.004 28.4352C170.781 28.4722 170.574 28.4982 170.381 28.5129C170.189 28.5278 169.981 28.5351 169.759 28.5351H169.326C169.103 28.5351 168.853 28.5278 168.576 28.5129C168.298 28.4982 168.02 28.4649 167.742 28.413C167.464 28.361 167.199 28.2832 166.948 28.1795L167.425 26.6571H167.536C167.855 26.7535 168.211 26.8182 168.603 26.8516C168.996 26.8849 169.374 26.9016 169.737 26.9016H170.092C170.448 26.9016 170.794 26.8923 171.132 26.8737C171.469 26.8553 171.748 26.8201 171.97 26.7682H172.104C172.289 26.9385 172.476 27.1516 172.665 27.4072C172.854 27.6628 173.015 27.9425 173.149 28.2462C173.282 28.55 173.348 28.8575 173.348 29.1686C173.348 29.539 173.263 29.8873 173.093 30.2132C172.922 30.5392 172.637 30.8207 172.237 31.0577L171.859 31.6245C171.674 31.6912 171.467 31.7412 171.237 31.7745C171.007 31.8079 170.752 31.8245 170.47 31.8245H165.936V31.7024ZM183.383 30.1687V31.5801L183.161 31.8245C182.998 31.8245 182.805 31.7967 182.583 31.7412C182.361 31.6856 182.142 31.5744 181.928 31.4078C181.713 31.2411 181.531 30.9875 181.383 30.6466L181.794 30.6911C181.683 31.3356 181.476 31.8746 181.172 32.308C180.868 32.7414 180.496 33.0655 180.055 33.2803C179.614 33.4951 179.123 33.6026 178.583 33.6026C178.153 33.6026 177.736 33.5137 177.333 33.3359C176.929 33.1581 176.569 32.9043 176.255 32.5747C175.94 32.2451 175.691 31.8579 175.51 31.4134C175.328 30.9688 175.238 30.4799 175.238 29.9465C175.238 29.3834 175.323 28.8481 175.493 28.3407C175.664 27.8333 175.904 27.3813 176.216 26.9848C176.527 26.5886 176.899 26.2756 177.333 26.046C177.766 25.8162 178.245 25.7014 178.772 25.7014C179.209 25.7014 179.586 25.8069 179.905 26.0181C180.224 26.2292 180.47 26.4997 180.644 26.8294C180.818 27.159 180.905 27.5165 180.905 27.9018C180.905 28.2055 180.855 28.5204 180.755 28.8463C180.655 29.1723 180.509 29.4872 180.316 29.7909C180.124 30.0947 179.874 30.3652 179.566 30.6022C179.259 30.8392 178.897 31.0281 178.483 31.169C178.068 31.3097 177.594 31.38 177.06 31.38L176.004 31.8245H174.204V30.4354L174.426 30.1687H176.06C176.549 30.1687 176.984 30.1132 177.366 30.0021C177.747 29.891 178.075 29.7408 178.349 29.552C178.623 29.363 178.831 29.1501 178.972 28.913C179.112 28.676 179.183 28.4352 179.183 28.1907C179.183 27.8054 179.053 27.5146 178.794 27.3183C178.535 27.122 178.194 26.9942 177.771 26.935L178.505 26.8905C178.194 27.0239 177.933 27.2386 177.721 27.535C177.51 27.8314 177.353 28.1648 177.249 28.5351C177.145 28.9056 177.093 29.2723 177.093 29.6353C177.093 30.0725 177.197 30.4688 177.405 30.8244C177.612 31.18 177.886 31.4615 178.227 31.669C178.568 31.8765 178.942 31.9801 179.349 31.9801C179.624 31.9801 179.886 31.9191 180.138 31.7967C180.39 31.6745 180.627 31.5097 180.85 31.3023L179.538 32.6914C179.842 32.3061 180.04 31.9246 180.133 31.5468C180.225 31.169 180.275 30.8577 180.283 30.6132C180.283 30.3318 180.259 30.0706 180.211 29.8297C180.162 29.589 180.075 29.302 179.949 28.9686L181.394 28.1907C181.564 28.6648 181.735 29.0482 181.905 29.3408C182.076 29.6335 182.278 29.8447 182.511 29.9743C182.744 30.1039 183.035 30.1687 183.383 30.1687ZM183.161 30.1687H185.917L185.595 31.2022L184.861 29.3352C184.809 29.202 184.735 29.0296 184.639 28.8186C184.543 28.6074 184.435 28.3889 184.317 28.1629C184.198 27.9369 184.082 27.7294 183.967 27.5406C183.852 27.3516 183.75 27.2091 183.661 27.1128L183.628 26.9905C183.939 26.7386 184.289 26.5127 184.678 26.3127C185.067 26.1125 185.476 25.9534 185.906 25.8348C186.336 25.7162 186.769 25.657 187.206 25.657C187.791 25.657 188.299 25.7606 188.729 25.9681C189.158 26.1756 189.49 26.4626 189.723 26.8294C189.957 27.196 190.073 27.6092 190.073 28.0684C190.073 28.3943 190.008 28.7129 189.879 29.0241C189.749 29.3352 189.577 29.6168 189.362 29.8687C189.147 30.1206 188.91 30.3207 188.651 30.4688L188.251 30.1687H191.007V31.6023L190.784 31.8245H182.939V30.391L183.161 30.1687ZM187.251 30.8911L186.528 30.5466C186.81 30.4132 187.08 30.2539 187.339 30.0688C187.599 29.8835 187.814 29.6539 187.984 29.3798C188.154 29.1056 188.24 28.776 188.24 28.3907C188.24 28.0054 188.127 27.6999 187.901 27.4739C187.675 27.2479 187.376 27.135 187.006 27.135C186.687 27.135 186.397 27.198 186.134 27.3238C185.871 27.4498 185.658 27.5684 185.495 27.6794L185.584 27.135C185.754 27.3202 185.893 27.5053 186 27.6906C186.108 27.8759 186.213 28.0943 186.317 28.3463C186.421 28.5981 186.543 28.9204 186.684 29.313L187.251 30.8911ZM194.596 26.2015C195.293 26.2015 195.893 26.3312 196.396 26.5904C196.9 26.8497 197.287 27.1998 197.558 27.6405C197.828 28.0813 197.963 28.5796 197.963 29.1352C197.963 29.6983 197.836 30.204 197.58 30.6522C197.324 31.1004 196.965 31.456 196.502 31.719C196.039 31.982 195.5 32.1135 194.885 32.1135C194.485 32.1135 194.094 32.0561 193.713 31.9413C193.331 31.8264 192.972 31.6486 192.635 31.4078C192.298 31.1671 191.988 30.8577 191.707 30.4799L193.151 29.3798C193.381 29.5946 193.644 29.7853 193.94 29.952C194.237 30.1188 194.544 30.2503 194.863 30.3465C195.181 30.4429 195.489 30.4947 195.785 30.5021C195.919 30.5096 196.02 30.5114 196.091 30.5076C196.161 30.504 196.219 30.5021 196.263 30.5021L195.33 31.0467C195.544 30.8097 195.72 30.5521 195.857 30.2742C195.994 29.9965 196.063 29.6872 196.063 29.3464C196.063 29.0205 195.965 28.7426 195.769 28.5129C195.572 28.2832 195.307 28.111 194.974 27.9961C194.641 27.8813 194.263 27.8314 193.841 27.8462L194.207 27.5016C194.155 28.1685 194.065 28.7704 193.935 29.3075C193.805 29.8447 193.607 30.2985 193.34 30.6688C193.074 31.0392 192.714 31.3244 192.262 31.5246C191.81 31.7246 191.236 31.8245 190.54 31.8245V30.391L190.762 30.1687C191.184 30.1687 191.507 30.0465 191.729 29.8021C191.951 29.5576 192.124 29.1761 192.246 28.6574C192.368 28.1388 192.474 27.4758 192.563 26.6683L192.718 26.5237C192.992 26.4348 193.292 26.359 193.618 26.2959C193.944 26.233 194.27 26.2015 194.596 26.2015Z" fill="black"/>
<path d="M220.302 2C220.485 2.0937 220.667 2.18557 220.85 2.2823C221.286 2.51411 221.722 2.74531 222.156 2.98259C222.469 3.15477 222.785 3.32634 223.089 3.51495C223.779 3.94084 224.468 4.37099 225.148 4.81514C225.567 5.08892 225.971 5.38705 226.377 5.68091C226.783 5.97477 227.182 6.26681 227.575 6.57224C227.864 6.79735 228.142 7.04011 228.419 7.28104C228.778 7.59194 229.144 7.89676 229.485 8.22713C229.891 8.61894 230.276 9.03084 230.665 9.44395C230.909 9.7001 231.141 9.96537 231.37 10.2349C231.509 10.3973 231.635 10.572 231.765 10.7417C231.896 10.9115 232.031 11.069 232.146 11.2443C232.415 11.6537 232.685 12.0638 232.932 12.4854C233.141 12.8407 233.33 13.2082 233.509 13.5806C233.63 13.8373 233.726 14.1087 233.825 14.3764C233.9 14.5792 233.967 14.7856 234.025 14.9957C234.096 15.2476 234.158 15.5013 234.217 15.7569C234.294 16.0864 234.344 16.4218 234.367 16.7595C234.389 17.1057 234.428 17.4513 234.447 17.7975C234.465 18.1966 234.475 18.5963 234.468 18.9955C234.463 19.324 234.431 19.6519 234.404 19.9799C234.382 20.2494 234.357 20.5195 234.321 20.7878C234.291 21.0136 234.245 21.2381 234.2 21.462C234.137 21.7824 234.072 22.1026 234.004 22.4227C233.974 22.5716 233.936 22.7189 233.891 22.8638C233.878 22.886 233.861 22.905 233.84 22.9191C233.818 22.9333 233.794 22.9423 233.769 22.9453C233.591 22.9538 233.412 22.9483 233.234 22.9483H233.097C232.945 22.9483 232.921 22.9197 232.952 22.7713C233.01 22.4999 233.066 22.2286 233.126 21.9584C233.182 21.7108 233.252 21.4668 233.299 21.2186C233.347 20.9704 233.381 20.7221 233.408 20.4721C233.45 20.0699 233.485 19.6665 233.515 19.2632C233.542 18.9736 233.556 18.6828 233.554 18.3919C233.546 18.0719 233.504 17.7525 233.476 17.4337C233.455 17.1976 233.437 16.9615 233.408 16.7273C233.387 16.5648 233.353 16.4036 233.318 16.2436C233.248 15.9205 233.188 15.595 233.097 15.278C233 14.9303 232.884 14.5877 232.752 14.2516C232.621 13.9067 232.466 13.5713 232.288 13.2478C232.038 12.8054 231.766 12.3735 231.475 11.9573C231.209 11.5783 230.914 11.2187 230.615 10.8622C230.361 10.558 230.088 10.2732 229.814 9.98909C229.497 9.66116 229.177 9.33627 228.846 9.02232C228.582 8.77226 228.301 8.53863 228.024 8.30196C227.72 8.04399 227.42 7.78359 227.107 7.53718C226.706 7.22202 226.298 6.91721 225.89 6.61361C225.582 6.38566 225.271 6.16257 224.955 5.94435C224.635 5.72228 224.31 5.50569 223.982 5.29213C223.688 5.09866 223.391 4.90822 223.091 4.72448C222.79 4.54074 222.493 4.37282 222.192 4.1982C221.835 3.99256 221.478 3.7857 221.115 3.58979C221.078 3.57206 221.038 3.56214 220.998 3.56067C220.957 3.55921 220.917 3.56622 220.879 3.58127C220.621 3.7139 220.373 3.86601 220.122 4.01142C219.833 4.17752 219.544 4.34179 219.258 4.51214C219.076 4.62166 218.897 4.74152 218.717 4.85651C218.487 5.00192 218.256 5.1449 218.029 5.29335C217.773 5.46066 217.518 5.62859 217.267 5.8032C216.856 6.08916 216.446 6.37694 216.04 6.67019C215.729 6.89409 215.418 7.11859 215.121 7.36013C214.536 7.83591 213.965 8.3263 213.381 8.80634C212.769 9.31132 212.216 9.87836 211.663 10.4442C211.351 10.7648 211.055 11.1068 210.774 11.4542C210.457 11.8439 210.152 12.2416 209.858 12.6473C209.663 12.9213 209.483 13.2057 209.319 13.499C209.127 13.8251 208.953 14.1612 208.797 14.506C208.646 14.8549 208.519 15.2136 208.417 15.5798C208.311 15.9595 208.234 16.3501 208.169 16.7388C208.089 17.1639 208.051 17.5957 208.055 18.0281C208.062 18.3645 208.048 18.7016 208.059 19.038C208.068 19.3009 208.093 19.5631 208.12 19.8241C208.161 20.1788 208.208 20.5335 208.265 20.8864C208.323 21.2393 208.387 21.5757 208.463 21.9207C208.524 22.2055 208.605 22.4872 208.674 22.7725C208.682 22.8272 208.687 22.8826 208.688 22.938C208.637 22.938 208.599 22.9447 208.562 22.9447H206.737C206.6 22.9447 206.59 22.9203 206.569 22.7865C206.542 22.6228 206.486 22.4646 206.453 22.2998C206.392 21.9822 206.331 21.664 206.275 21.3458C206.241 21.1632 206.202 20.9807 206.177 20.7945C206.148 20.5828 206.131 20.3687 206.108 20.1575C206.089 19.9835 206.067 19.8095 206.047 19.6349C206.04 19.557 206.043 19.4779 206.041 19.3994C206.027 18.9358 205.98 18.4698 206.009 18.0092C206.033 17.6612 206.001 17.3065 206.098 16.9609C206.143 16.8021 206.126 16.6269 206.149 16.4602C206.181 16.2266 206.216 15.9929 206.265 15.7623C206.339 15.4241 206.411 15.0846 206.513 14.7542C206.604 14.4573 206.73 14.1707 206.848 13.8823C206.94 13.656 207.035 13.4297 207.143 13.2131C207.278 12.9417 207.42 12.6734 207.575 12.413C207.777 12.0711 207.981 11.7286 208.21 11.4043C208.48 11.0228 208.762 10.6492 209.062 10.2933C209.46 9.82239 209.869 9.35939 210.299 8.91707C210.698 8.51004 211.127 8.14499 211.532 7.755C212.07 7.24722 212.639 6.77337 213.236 6.33617C213.799 5.91028 214.371 5.4996 214.939 5.08527C215.144 4.93682 215.352 4.79262 215.565 4.65634C215.986 4.3862 216.41 4.1183 216.834 3.85262C217.183 3.63724 217.532 3.42247 217.889 3.22048C218.395 2.93331 218.906 2.65344 219.422 2.38087C219.645 2.26284 219.876 2.1661 220.106 2.06084C220.135 2.04301 220.162 2.02264 220.187 2H220.302Z" fill="#045633"/>
<path d="M206.871 29.9493V29.8216C206.871 28.8822 206.871 27.9428 206.871 27.0034C206.871 26.8878 206.911 26.861 207.018 26.8623C207.676 26.8696 208.334 26.8732 208.993 26.8732C210.12 26.8732 211.248 26.8665 212.376 26.8647C213.031 26.8647 213.686 26.8616 214.341 26.8647C215.214 26.8696 216.087 26.8647 216.96 26.8921C217.311 26.9094 217.655 26.9988 217.97 27.1549C218.185 27.2458 218.394 27.3473 218.598 27.4591C218.963 27.6775 219.291 27.941 219.538 28.292C219.676 28.4747 219.798 28.6689 219.903 28.8725C219.998 29.0751 220.048 29.2983 220.111 29.5162C220.137 29.6068 220.139 29.7035 220.164 29.7948C220.172 29.8271 220.214 29.8508 220.241 29.8788C220.269 29.8477 220.316 29.8179 220.321 29.7857C220.359 29.5104 220.428 29.2402 220.526 28.9801C220.648 28.6665 220.828 28.3786 221.056 28.1314C221.44 27.7109 221.915 27.3843 222.445 27.1768C222.776 27.0372 223.124 26.9405 223.48 26.889C223.666 26.8684 223.854 26.8597 224.042 26.8629C224.347 26.8592 224.651 26.8592 224.955 26.8629C225.351 26.8671 225.746 26.8835 226.142 26.8823C227.289 26.8793 228.435 26.8653 229.581 26.8641C230.327 26.8641 231.074 26.8811 231.82 26.8823C232.362 26.8823 232.903 26.8689 233.445 26.8629C233.598 26.8629 233.61 26.8744 233.61 27.0277C233.61 27.9519 233.61 28.8761 233.61 29.7997C233.61 29.9165 233.577 29.95 233.46 29.95C230.149 29.9471 226.837 29.9471 223.525 29.95C223.242 29.9472 222.96 29.998 222.695 30.0996C222.538 30.1605 222.368 30.1964 222.213 30.2657C222.035 30.3412 221.865 30.435 221.706 30.5456C221.494 30.6971 221.296 30.8669 221.113 31.053C220.906 31.2732 220.714 31.5065 220.537 31.7515C220.436 31.8878 220.372 32.0508 220.288 32.1999C220.282 32.2108 220.273 32.2202 220.263 32.2273C220.252 32.2345 220.24 32.2392 220.228 32.2412C220.21 32.2412 220.185 32.2139 220.176 32.1932C220.004 31.8217 219.774 31.4796 219.496 31.1796C219.209 30.8656 218.893 30.5833 218.515 30.3886C218.293 30.2795 218.063 30.186 217.828 30.1088C217.402 29.956 216.953 29.9469 216.503 29.9469C213.345 29.9506 210.188 29.9506 207.03 29.9469L206.871 29.9493Z" fill="#045633"/>
<path d="M220.217 28.5032C220.182 28.4125 220.15 28.3206 220.111 28.2288C220.007 27.9854 219.924 27.7256 219.786 27.4987C219.635 27.2644 219.462 27.0452 219.269 26.844C219.033 26.5873 218.727 26.4273 218.418 26.2672C218.138 26.1212 217.832 26.075 217.537 25.9904C217.421 25.9675 217.302 25.9577 217.184 25.9612C217.001 25.9521 216.813 25.946 216.628 25.9387C216.593 25.9387 216.558 25.9387 216.524 25.9387H207.144C207.076 25.9417 207.008 25.9394 206.94 25.932C206.925 25.9268 206.911 25.9178 206.899 25.9058C206.888 25.8938 206.88 25.8792 206.876 25.8633C206.87 25.7093 206.869 25.5554 206.876 25.4015C206.876 25.3747 206.921 25.3455 206.951 25.3266C206.968 25.3163 206.996 25.3266 207.019 25.3266C210.451 25.3266 213.881 25.3287 217.312 25.3327C217.574 25.3327 217.836 25.4124 218.095 25.469C218.297 25.5109 218.495 25.568 218.688 25.64C219.001 25.7598 219.292 25.9338 219.546 26.1541C219.755 26.3354 219.924 26.5579 220.043 26.8075C220.097 26.9195 220.116 27.0472 220.159 27.1647C220.172 27.1969 220.214 27.2182 220.243 27.2444C220.269 27.2133 220.314 27.1835 220.319 27.1513C220.397 26.5879 220.658 26.1474 221.152 25.8468C221.455 25.6699 221.784 25.5404 222.126 25.4629C222.627 25.337 223.131 25.323 223.641 25.323C226.903 25.323 230.164 25.323 233.425 25.323C233.608 25.323 233.608 25.323 233.608 25.5055C233.608 25.6053 233.604 25.7057 233.608 25.8055C233.612 25.9052 233.568 25.9314 233.486 25.9369C233.455 25.9369 233.425 25.9369 233.394 25.9369C230.267 25.9369 227.14 25.9369 224.013 25.9369C223.674 25.9279 223.335 25.9445 222.999 25.9868C222.695 26.0336 222.382 26.0835 222.103 26.235C221.915 26.3366 221.719 26.426 221.541 26.5429C221.259 26.7311 221.012 26.9661 220.81 27.2377C220.537 27.5978 220.377 28.0079 220.258 28.4387C220.253 28.4565 220.247 28.474 220.239 28.491C220.239 28.491 220.235 28.4971 220.217 28.5032Z" fill="#045633"/>
<path d="M218.813 13.2259C218.813 13.4163 218.813 13.5958 218.813 13.7734C218.819 14.405 218.827 15.0361 218.834 15.6668C218.844 16.4097 218.848 17.152 218.872 17.8942C218.897 18.7168 219.265 19.3319 219.97 19.7803C221.106 20.5037 222.775 20.3839 223.773 19.5266C224.45 18.9552 224.912 18.1695 225.081 17.2998C225.092 17.2445 225.105 17.1897 225.118 17.1343L225.146 17.1386C225.128 17.2974 225.112 17.4574 225.09 17.6156C225.014 18.2395 224.839 18.8475 224.574 19.4171C224.05 20.5062 223.165 21.0817 221.979 21.2235C221.035 21.3475 220.075 21.2048 219.208 20.8116C218.38 20.4344 217.835 19.7992 217.576 18.9285C217.532 18.7611 217.511 18.5882 217.515 18.415C217.511 17.0672 217.511 15.7196 217.515 14.3721C217.518 14.2768 217.54 14.1829 217.58 14.0965C217.699 13.845 217.875 13.6242 218.093 13.451C218.292 13.2812 218.527 13.2149 218.813 13.2259Z" fill="#045633"/>
<path d="M218.47 20.6735H215.333V20.5366C215.333 19.5899 215.333 18.6426 215.333 17.6959C215.335 17.6404 215.325 17.5852 215.303 17.534C215.282 17.4828 215.249 17.4367 215.209 17.399C214.552 16.7459 213.895 16.0915 213.239 15.4356C213.201 15.3979 213.166 15.3571 213.123 15.3097C213.162 15.2671 213.196 15.2269 213.233 15.188C213.89 14.5317 214.547 13.8763 215.203 13.2216C215.247 13.182 215.282 13.1334 215.305 13.079C215.328 13.0247 215.338 12.966 215.336 12.9071C215.331 11.964 215.333 11.021 215.333 10.0773V9.96415C215.382 9.96111 215.423 9.95746 215.464 9.95685C216.311 9.95685 217.157 9.94651 218.004 9.9605C218.571 9.97023 218.458 9.9605 218.792 9.63256C219.38 9.05092 219.963 8.46319 220.549 7.8779C220.592 7.8347 220.632 7.78846 220.67 7.7477C221.3 8.38106 221.927 9.0132 222.557 9.65021L222.297 9.83273C222.292 9.47681 222.037 9.34174 221.787 9.21641C221.5 9.07404 221.211 9.11967 220.93 9.25474C220.9 9.26995 220.869 9.28638 220.832 9.30645C220.763 9.23344 220.696 9.15922 220.627 9.08864C220.522 8.98278 220.423 8.97852 220.314 9.08073C220.204 9.18295 220.123 9.28455 220.016 9.37095C219.953 9.42343 219.876 9.45491 219.794 9.46099C219.402 9.46708 219.131 9.66055 218.945 9.98666C218.911 10.0553 218.897 10.132 218.905 10.2081C218.913 10.2864 218.905 10.3656 218.88 10.4404C218.855 10.5152 218.815 10.5839 218.762 10.642C218.709 10.7001 218.644 10.7461 218.571 10.7772C218.499 10.8082 218.421 10.8235 218.342 10.822L216.206 10.8171C215.988 10.8171 215.958 10.8476 215.959 11.0605C215.959 11.7997 215.959 12.539 215.959 13.2782C215.96 13.3278 215.951 13.3771 215.932 13.4227C215.912 13.4684 215.884 13.5094 215.847 13.5428C215.34 14.0434 214.835 14.5459 214.333 15.0505C214.294 15.0876 214.257 15.127 214.222 15.1685C214.19 15.2025 214.171 15.2479 214.171 15.2951C214.171 15.3423 214.19 15.3876 214.222 15.4216C214.255 15.4599 214.289 15.4964 214.325 15.5311C214.831 16.0373 215.338 16.5431 215.846 17.0485C215.882 17.082 215.911 17.123 215.931 17.1686C215.95 17.2143 215.96 17.2636 215.958 17.3132C215.958 18.064 215.958 18.8148 215.958 19.5643C215.958 19.7791 215.985 19.8077 216.202 19.8077C216.645 19.8077 217.087 19.8077 217.53 19.8004C217.582 19.7985 217.634 19.8101 217.681 19.8341C217.728 19.858 217.768 19.8936 217.797 19.9373C217.979 20.1557 218.18 20.3571 218.376 20.5621C218.414 20.5931 218.455 20.62 218.498 20.6424L218.47 20.6735Z" fill="#045633"/>
<path d="M217.516 19.4804H216.277C216.277 19.4323 216.271 19.3879 216.271 19.3435C216.271 18.6158 216.274 17.8881 216.278 17.1605C216.278 17.1125 216.268 17.065 216.249 17.0212C216.229 16.9774 216.201 16.9382 216.165 16.9062C215.635 16.3789 215.105 15.8516 214.576 15.3243C214.57 15.3149 214.565 15.3049 214.561 15.2945C214.591 15.2616 214.621 15.2251 214.658 15.1904C215.154 14.6956 215.651 14.2012 216.148 13.7071C216.192 13.6651 216.227 13.6139 216.249 13.5572C216.271 13.5004 216.281 13.4394 216.277 13.3786C216.271 12.6394 216.277 11.9001 216.277 11.1512H217.692C217.648 11.2044 217.601 11.255 217.551 11.3027C217.351 11.47 217.272 11.6738 217.281 11.9409C217.3 12.4988 217.284 13.0573 217.288 13.6159C217.291 13.6692 217.282 13.7225 217.262 13.7721C217.242 13.8216 217.211 13.8661 217.172 13.9024C216.739 14.3283 216.31 14.7609 215.88 15.191C215.776 15.2957 215.776 15.3079 215.88 15.4131C216.311 15.8469 216.742 16.2819 217.177 16.7133C217.213 16.7472 217.242 16.7885 217.261 16.8345C217.28 16.8805 217.289 16.9301 217.287 16.9798C217.284 17.4994 217.284 18.019 217.287 18.5385C217.29 18.8245 217.354 19.1065 217.472 19.3666C217.485 19.4007 217.496 19.4311 217.516 19.4804Z" fill="#045633"/>
<path d="M220.741 12.9156C220.737 12.8505 220.73 12.7975 220.73 12.7446C220.733 11.7866 220.735 10.8287 220.737 9.87106C220.735 9.82518 220.743 9.77943 220.761 9.73686C220.778 9.69428 220.804 9.65583 220.837 9.62405C221.189 9.27299 221.667 9.28455 221.993 9.66177C222.031 9.70882 222.052 9.76694 222.054 9.82726C222.057 10.8238 222.054 11.8198 222.054 12.8164C222.054 12.8693 222.054 12.9168 221.98 12.9162C221.574 12.9144 221.166 12.9156 220.741 12.9156Z" fill="#045633"/>
<path d="M220.713 16.3738V13.2332H221.139C221.392 13.2332 221.647 13.2332 221.901 13.2332C221.977 13.2332 222.009 13.2496 222.009 13.3348C222.006 14.3155 222.006 15.2963 222.009 16.2771C222.009 16.33 222.009 16.3762 221.935 16.3756C221.532 16.3726 221.129 16.3738 220.713 16.3738Z" fill="#045633"/>
<path d="M225.171 16.3738C224.751 16.3738 224.351 16.3738 223.954 16.3708C223.932 16.3708 223.9 16.3306 223.89 16.3032C223.883 16.2692 223.882 16.2342 223.887 16.1998C223.883 15.5993 223.894 14.9982 223.874 14.3983C223.859 13.9468 224.073 13.6451 224.43 13.4181C224.703 13.2447 225.011 13.1802 225.331 13.1681C225.422 13.165 225.513 13.1681 225.63 13.1681C225.544 13.2526 225.471 13.3135 225.412 13.3853C225.217 13.6207 225.171 13.9043 225.171 14.1987V16.3738Z" fill="#045633"/>
<path d="M222.284 13.249H223.601C223.601 13.291 223.606 13.3317 223.606 13.3707C223.606 14.3295 223.606 15.2878 223.606 16.246C223.606 16.3476 223.584 16.3768 223.478 16.3677C223.343 16.3625 223.211 16.33 223.089 16.2722C222.967 16.2144 222.857 16.1324 222.768 16.0313C222.702 15.9564 222.634 15.8828 222.57 15.8055C222.384 15.5798 222.271 15.3322 222.278 15.0262C222.292 14.4415 222.284 13.8525 222.284 13.249Z" fill="#045633"/>
<path d="M219.127 16.3616V13.2338H220.412C220.415 13.2867 220.42 13.339 220.42 13.3914C220.42 13.9645 220.411 14.5376 220.42 15.1107C220.424 15.3194 220.354 15.5227 220.22 15.6833C219.942 16.044 219.558 16.2302 219.127 16.3616Z" fill="#045633"/>
<path d="M218.574 20.744C219.619 21.4133 220.809 21.5593 222.024 21.4711L220.659 22.8267L218.574 20.744Z" fill="#045633"/>
<path d="M222.637 18.1151L221.61 19.1573L220.6 18.1431L221.6 17.127L222.637 18.1151Z" fill="#045633"/>
<path d="M219.131 11.3367V10.3438C219.131 10.1899 219.186 10.041 219.286 9.92442C219.387 9.80787 219.526 9.73147 219.678 9.70922C219.827 9.6834 219.981 9.70677 220.115 9.77581C220.25 9.84485 220.358 9.9558 220.424 10.0919C220.442 10.1301 220.451 10.1716 220.451 10.2136C220.451 10.5561 220.451 10.8981 220.451 11.2406C220.451 11.2954 220.451 11.3373 220.374 11.3367C219.965 11.3361 219.558 11.3367 219.131 11.3367Z" fill="#045633"/>
<path d="M217.515 12.9064C217.515 12.5134 217.51 12.1265 217.52 11.7395C217.52 11.6787 217.58 11.6178 217.62 11.5637C217.92 11.1834 218.477 11.1524 218.803 11.6714C218.815 11.6895 218.823 11.7105 218.825 11.7322C218.825 12.1198 218.825 12.5073 218.825 12.9034L217.515 12.9064Z" fill="#045633"/>
<path d="M222.303 11.3233V10.4442C222.302 10.3626 222.317 10.2816 222.347 10.2059C222.378 10.1301 222.423 10.0612 222.48 10.003C222.538 9.94482 222.606 9.89852 222.681 9.86679C222.756 9.83506 222.837 9.81852 222.918 9.81813C223.06 9.81168 223.199 9.84917 223.318 9.92545C223.437 10.0017 223.53 10.113 223.583 10.244C223.61 10.3276 223.622 10.4154 223.618 10.5032C223.623 10.7563 223.618 11.01 223.618 11.2637C223.616 11.2844 223.612 11.3048 223.606 11.3246L222.303 11.3233Z" fill="#045633"/>
<path d="M223.619 12.9052H222.33V11.6178H223.619V12.9052Z" fill="#045633"/>
<path d="M220.417 11.6245V12.9022H219.121V11.7158C219.121 11.661 219.114 11.6081 219.199 11.6087C219.592 11.6087 219.983 11.6087 220.376 11.6087C220.39 11.6123 220.404 11.6176 220.417 11.6245Z" fill="#045633"/>
<path d="M220.283 9.58754L220.451 9.41049C220.59 9.50966 220.591 9.52609 220.474 9.74999C220.412 9.69705 220.353 9.64595 220.283 9.58754Z" fill="#045633"/>
<path d="M218.883 11.3617L218.646 11.1688L218.883 10.9863V11.3617Z" fill="#045633"/>
</svg>
